<svg xmlns="http://www.w3.org/2000/svg" xmlns:xlink="http://www.w3.org/1999/xlink" width="1280" zoomAndPan="magnify" viewBox="0 0 960 540.000001" height="720" preserveAspectRatio="xMidYMid meet" version="1.0"><defs><clipPath id="ade4dfb1cf"><path d="M 0.886719 0 L 959.113281 0 L 959.113281 539 L 0.886719 539 Z M 0.886719 0 " clip-rule="nonzero"/></clipPath><clipPath id="5a151423da"><path d="M 337 162 L 670 162 L 670 377.433594 L 337 377.433594 Z M 337 162 " clip-rule="nonzero"/></clipPath><clipPath id="52d7eba9e0"><path d="M 474 167 L 504 167 L 504 198 L 474 198 Z M 474 167 " clip-rule="nonzero"/></clipPath><clipPath id="53426fb128"><path d="M 403.511719 165.164062 L 403.511719 233.53125 L 370.855469 233.53125 L 370.855469 267.714844 L 343.511719 267.714844 L 343.207031 270.6875 C 341.5 289.308594 344.746094 306.488281 352.207031 321.175781 L 354.710938 325.675781 C 356.195312 328.378906 357.976562 330.914062 359.816406 333.386719 C 361.652344 335.863281 362.320312 337.226562 363.480469 338.867188 C 383.207031 361.042969 412.609375 371.746094 446.558594 371.746094 C 521.742188 371.746094 585.546875 338.398438 613.789062 263.480469 C 633.816406 265.539062 653.039062 260.394531 661.796875 243.277344 C 647.84375 235.21875 629.914062 237.800781 619.582031 243 L 646.957031 165.15625 L 540.078125 233.523438 L 505.9375 233.523438 L 505.9375 165.15625 Z M 403.511719 165.164062 " clip-rule="nonzero"/></clipPath><clipPath id="438b939adc"><path d="M 478 170 L 501 170 L 501 195 L 478 195 Z M 478 170 " clip-rule="nonzero"/></clipPath><clipPath id="40172682bc"><path d="M 403.511719 165.164062 L 403.511719 233.53125 L 370.855469 233.53125 L 370.855469 267.714844 L 343.511719 267.714844 L 343.207031 270.6875 C 341.5 289.308594 344.746094 306.488281 352.207031 321.175781 L 354.710938 325.675781 C 356.195312 328.378906 357.976562 330.914062 359.816406 333.386719 C 361.652344 335.863281 362.320312 337.226562 363.480469 338.867188 C 383.207031 361.042969 412.609375 371.746094 446.558594 371.746094 C 521.742188 371.746094 585.546875 338.398438 613.789062 263.480469 C 633.816406 265.539062 653.039062 260.394531 661.796875 243.277344 C 647.84375 235.21875 629.914062 237.800781 619.582031 243 L 646.957031 165.15625 L 540.078125 233.523438 L 505.9375 233.523438 L 505.9375 165.15625 Z M 403.511719 165.164062 " clip-rule="nonzero"/></clipPath><clipPath id="117dcc1e77"><path d="M 477 169 L 502 169 L 502 197 L 477 197 Z M 477 169 " clip-rule="nonzero"/></clipPath><clipPath id="b95be6b220"><path d="M 403.511719 165.164062 L 403.511719 233.53125 L 370.855469 233.53125 L 370.855469 267.714844 L 343.511719 267.714844 L 343.207031 270.6875 C 341.5 289.308594 344.746094 306.488281 352.207031 321.175781 L 354.710938 325.675781 C 356.195312 328.378906 357.976562 330.914062 359.816406 333.386719 C 361.652344 335.863281 362.320312 337.226562 363.480469 338.867188 C 383.207031 361.042969 412.609375 371.746094 446.558594 371.746094 C 521.742188 371.746094 585.546875 338.398438 613.789062 263.480469 C 633.816406 265.539062 653.039062 260.394531 661.796875 243.277344 C 647.84375 235.21875 629.914062 237.800781 619.582031 243 L 646.957031 165.15625 L 540.078125 233.523438 L 505.9375 233.523438 L 505.9375 165.15625 Z M 403.511719 165.164062 " clip-rule="nonzero"/></clipPath><clipPath id="e4891bd1e6"><path d="M 508 167 L 538 167 L 538 198 L 508 198 Z M 508 167 " clip-rule="nonzero"/></clipPath><clipPath id="588374de04"><path d="M 403.511719 165.164062 L 403.511719 233.53125 L 370.855469 233.53125 L 370.855469 267.714844 L 343.511719 267.714844 L 343.207031 270.6875 C 341.5 289.308594 344.746094 306.488281 352.207031 321.175781 L 354.710938 325.675781 C 356.195312 328.378906 357.976562 330.914062 359.816406 333.386719 C 361.652344 335.863281 362.320312 337.226562 363.480469 338.867188 C 383.207031 361.042969 412.609375 371.746094 446.558594 371.746094 C 521.742188 371.746094 585.546875 338.398438 613.789062 263.480469 C 633.816406 265.539062 653.039062 260.394531 661.796875 243.277344 C 647.84375 235.21875 629.914062 237.800781 619.582031 243 L 646.957031 165.15625 L 540.078125 233.523438 L 505.9375 233.523438 L 505.9375 165.15625 Z M 403.511719 165.164062 " clip-rule="nonzero"/></clipPath><clipPath id="6c2da5d999"><path d="M 512 170 L 535 170 L 535 195 L 512 195 Z M 512 170 " clip-rule="nonzero"/></clipPath><clipPath id="01799c05ff"><path d="M 403.511719 165.164062 L 403.511719 233.53125 L 370.855469 233.53125 L 370.855469 267.714844 L 343.511719 267.714844 L 343.207031 270.6875 C 341.5 289.308594 344.746094 306.488281 352.207031 321.175781 L 354.710938 325.675781 C 356.195312 328.378906 357.976562 330.914062 359.816406 333.386719 C 361.652344 335.863281 362.320312 337.226562 363.480469 338.867188 C 383.207031 361.042969 412.609375 371.746094 446.558594 371.746094 C 521.742188 371.746094 585.546875 338.398438 613.789062 263.480469 C 633.816406 265.539062 653.039062 260.394531 661.796875 243.277344 C 647.84375 235.21875 629.914062 237.800781 619.582031 243 L 646.957031 165.15625 L 540.078125 233.523438 L 505.9375 233.523438 L 505.9375 165.15625 Z M 403.511719 165.164062 " clip-rule="nonzero"/></clipPath><clipPath id="8d44fca0ad"><path d="M 510 169 L 536 169 L 536 197 L 510 197 Z M 510 169 " clip-rule="nonzero"/></clipPath><clipPath id="9899260c8b"><path d="M 403.511719 165.164062 L 403.511719 233.53125 L 370.855469 233.53125 L 370.855469 267.714844 L 343.511719 267.714844 L 343.207031 270.6875 C 341.5 289.308594 344.746094 306.488281 352.207031 321.175781 L 354.710938 325.675781 C 356.195312 328.378906 357.976562 330.914062 359.816406 333.386719 C 361.652344 335.863281 362.320312 337.226562 363.480469 338.867188 C 383.207031 361.042969 412.609375 371.746094 446.558594 371.746094 C 521.742188 371.746094 585.546875 338.398438 613.789062 263.480469 C 633.816406 265.539062 653.039062 260.394531 661.796875 243.277344 C 647.84375 235.21875 629.914062 237.800781 619.582031 243 L 646.957031 165.15625 L 540.078125 233.523438 L 505.9375 233.523438 L 505.9375 165.15625 Z M 403.511719 165.164062 " clip-rule="nonzero"/></clipPath><clipPath id="f106f66920"><path d="M 342.652344 201 L 369 201 L 369 232 L 342.652344 232 Z M 342.652344 201 " clip-rule="nonzero"/></clipPath><clipPath id="edc0dc50ee"><path d="M 403.511719 165.164062 L 403.511719 233.53125 L 370.855469 233.53125 L 370.855469 267.714844 L 343.511719 267.714844 L 343.207031 270.6875 C 341.5 289.308594 344.746094 306.488281 352.207031 321.175781 L 354.710938 325.675781 C 356.195312 328.378906 357.976562 330.914062 359.816406 333.386719 C 361.652344 335.863281 362.320312 337.226562 363.480469 338.867188 C 383.207031 361.042969 412.609375 371.746094 446.558594 371.746094 C 521.742188 371.746094 585.546875 338.398438 613.789062 263.480469 C 633.816406 265.539062 653.039062 260.394531 661.796875 243.277344 C 647.84375 235.21875 629.914062 237.800781 619.582031 243 L 646.957031 165.15625 L 540.078125 233.523438 L 505.9375 233.523438 L 505.9375 165.15625 Z M 403.511719 165.164062 " clip-rule="nonzero"/></clipPath><clipPath id="41f4d98e56"><path d="M 342.652344 235 L 369 235 L 369 266 L 342.652344 266 Z M 342.652344 235 " clip-rule="nonzero"/></clipPath><clipPath id="9cf42f4d67"><path d="M 403.511719 165.164062 L 403.511719 233.53125 L 370.855469 233.53125 L 370.855469 267.714844 L 343.511719 267.714844 L 343.207031 270.6875 C 341.5 289.308594 344.746094 306.488281 352.207031 321.175781 L 354.710938 325.675781 C 356.195312 328.378906 357.976562 330.914062 359.816406 333.386719 C 361.652344 335.863281 362.320312 337.226562 363.480469 338.867188 C 383.207031 361.042969 412.609375 371.746094 446.558594 371.746094 C 521.742188 371.746094 585.546875 338.398438 613.789062 263.480469 C 633.816406 265.539062 653.039062 260.394531 661.796875 243.277344 C 647.84375 235.21875 629.914062 237.800781 619.582031 243 L 646.957031 165.15625 L 540.078125 233.523438 L 505.9375 233.523438 L 505.9375 165.15625 Z M 403.511719 165.164062 " clip-rule="nonzero"/></clipPath><clipPath id="47dca6e8ba"><path d="M 342.652344 204 L 365 204 L 365 229 L 342.652344 229 Z M 342.652344 204 " clip-rule="nonzero"/></clipPath><clipPath id="74134e1ced"><path d="M 403.511719 165.164062 L 403.511719 233.53125 L 370.855469 233.53125 L 370.855469 267.714844 L 343.511719 267.714844 L 343.207031 270.6875 C 341.5 289.308594 344.746094 306.488281 352.207031 321.175781 L 354.710938 325.675781 C 356.195312 328.378906 357.976562 330.914062 359.816406 333.386719 C 361.652344 335.863281 362.320312 337.226562 363.480469 338.867188 C 383.207031 361.042969 412.609375 371.746094 446.558594 371.746094 C 521.742188 371.746094 585.546875 338.398438 613.789062 263.480469 C 633.816406 265.539062 653.039062 260.394531 661.796875 243.277344 C 647.84375 235.21875 629.914062 237.800781 619.582031 243 L 646.957031 165.15625 L 540.078125 233.523438 L 505.9375 233.523438 L 505.9375 165.15625 Z M 403.511719 165.164062 " clip-rule="nonzero"/></clipPath><clipPath id="2192681e7e"><path d="M 342.652344 203 L 366 203 L 366 230 L 342.652344 230 Z M 342.652344 203 " clip-rule="nonzero"/></clipPath><clipPath id="f09f484efb"><path d="M 403.511719 165.164062 L 403.511719 233.53125 L 370.855469 233.53125 L 370.855469 267.714844 L 343.511719 267.714844 L 343.207031 270.6875 C 341.5 289.308594 344.746094 306.488281 352.207031 321.175781 L 354.710938 325.675781 C 356.195312 328.378906 357.976562 330.914062 359.816406 333.386719 C 361.652344 335.863281 362.320312 337.226562 363.480469 338.867188 C 383.207031 361.042969 412.609375 371.746094 446.558594 371.746094 C 521.742188 371.746094 585.546875 338.398438 613.789062 263.480469 C 633.816406 265.539062 653.039062 260.394531 661.796875 243.277344 C 647.84375 235.21875 629.914062 237.800781 619.582031 243 L 646.957031 165.15625 L 540.078125 233.523438 L 505.9375 233.523438 L 505.9375 165.15625 Z M 403.511719 165.164062 " clip-rule="nonzero"/></clipPath><clipPath id="80164dc9f2"><path d="M 342.652344 238 L 365 238 L 365 263 L 342.652344 263 Z M 342.652344 238 " clip-rule="nonzero"/></clipPath><clipPath id="4017f445d7"><path d="M 403.511719 165.164062 L 403.511719 233.53125 L 370.855469 233.53125 L 370.855469 267.714844 L 343.511719 267.714844 L 343.207031 270.6875 C 341.5 289.308594 344.746094 306.488281 352.207031 321.175781 L 354.710938 325.675781 C 356.195312 328.378906 357.976562 330.914062 359.816406 333.386719 C 361.652344 335.863281 362.320312 337.226562 363.480469 338.867188 C 383.207031 361.042969 412.609375 371.746094 446.558594 371.746094 C 521.742188 371.746094 585.546875 338.398438 613.789062 263.480469 C 633.816406 265.539062 653.039062 260.394531 661.796875 243.277344 C 647.84375 235.21875 629.914062 237.800781 619.582031 243 L 646.957031 165.15625 L 540.078125 233.523438 L 505.9375 233.523438 L 505.9375 165.15625 Z M 403.511719 165.164062 " clip-rule="nonzero"/></clipPath><clipPath id="4e3bc9d535"><path d="M 342.652344 237 L 366 237 L 366 264 L 342.652344 264 Z M 342.652344 237 " clip-rule="nonzero"/></clipPath><clipPath id="1ea9229d78"><path d="M 403.511719 165.164062 L 403.511719 233.53125 L 370.855469 233.53125 L 370.855469 267.714844 L 343.511719 267.714844 L 343.207031 270.6875 C 341.5 289.308594 344.746094 306.488281 352.207031 321.175781 L 354.710938 325.675781 C 356.195312 328.378906 357.976562 330.914062 359.816406 333.386719 C 361.652344 335.863281 362.320312 337.226562 363.480469 338.867188 C 383.207031 361.042969 412.609375 371.746094 446.558594 371.746094 C 521.742188 371.746094 585.546875 338.398438 613.789062 263.480469 C 633.816406 265.539062 653.039062 260.394531 661.796875 243.277344 C 647.84375 235.21875 629.914062 237.800781 619.582031 243 L 646.957031 165.15625 L 540.078125 233.523438 L 505.9375 233.523438 L 505.9375 165.15625 Z M 403.511719 165.164062 " clip-rule="nonzero"/></clipPath><clipPath id="0f286e1929"><path d="M 372 235 L 403 235 L 403 266 L 372 266 Z M 372 235 " clip-rule="nonzero"/></clipPath><clipPath id="f1a5b3ea82"><path d="M 403.511719 165.164062 L 403.511719 233.53125 L 370.855469 233.53125 L 370.855469 267.714844 L 343.511719 267.714844 L 343.207031 270.6875 C 341.5 289.308594 344.746094 306.488281 352.207031 321.175781 L 354.710938 325.675781 C 356.195312 328.378906 357.976562 330.914062 359.816406 333.386719 C 361.652344 335.863281 362.320312 337.226562 363.480469 338.867188 C 383.207031 361.042969 412.609375 371.746094 446.558594 371.746094 C 521.742188 371.746094 585.546875 338.398438 613.789062 263.480469 C 633.816406 265.539062 653.039062 260.394531 661.796875 243.277344 C 647.84375 235.21875 629.914062 237.800781 619.582031 243 L 646.957031 165.15625 L 540.078125 233.523438 L 505.9375 233.523438 L 505.9375 165.15625 Z M 403.511719 165.164062 " clip-rule="nonzero"/></clipPath><clipPath id="58876801e3"><path d="M 372 201 L 403 201 L 403 232 L 372 232 Z M 372 201 " clip-rule="nonzero"/></clipPath><clipPath id="bb2779485b"><path d="M 403.511719 165.164062 L 403.511719 233.53125 L 370.855469 233.53125 L 370.855469 267.714844 L 343.511719 267.714844 L 343.207031 270.6875 C 341.5 289.308594 344.746094 306.488281 352.207031 321.175781 L 354.710938 325.675781 C 356.195312 328.378906 357.976562 330.914062 359.816406 333.386719 C 361.652344 335.863281 362.320312 337.226562 363.480469 338.867188 C 383.207031 361.042969 412.609375 371.746094 446.558594 371.746094 C 521.742188 371.746094 585.546875 338.398438 613.789062 263.480469 C 633.816406 265.539062 653.039062 260.394531 661.796875 243.277344 C 647.84375 235.21875 629.914062 237.800781 619.582031 243 L 646.957031 165.15625 L 540.078125 233.523438 L 505.9375 233.523438 L 505.9375 165.15625 Z M 403.511719 165.164062 " clip-rule="nonzero"/></clipPath><clipPath id="5212d551c6"><path d="M 376 238 L 399 238 L 399 263 L 376 263 Z M 376 238 " clip-rule="nonzero"/></clipPath><clipPath id="88b9f42535"><path d="M 403.511719 165.164062 L 403.511719 233.53125 L 370.855469 233.53125 L 370.855469 267.714844 L 343.511719 267.714844 L 343.207031 270.6875 C 341.5 289.308594 344.746094 306.488281 352.207031 321.175781 L 354.710938 325.675781 C 356.195312 328.378906 357.976562 330.914062 359.816406 333.386719 C 361.652344 335.863281 362.320312 337.226562 363.480469 338.867188 C 383.207031 361.042969 412.609375 371.746094 446.558594 371.746094 C 521.742188 371.746094 585.546875 338.398438 613.789062 263.480469 C 633.816406 265.539062 653.039062 260.394531 661.796875 243.277344 C 647.84375 235.21875 629.914062 237.800781 619.582031 243 L 646.957031 165.15625 L 540.078125 233.523438 L 505.9375 233.523438 L 505.9375 165.15625 Z M 403.511719 165.164062 " clip-rule="nonzero"/></clipPath><clipPath id="4046b74b10"><path d="M 375 237 L 400 237 L 400 264 L 375 264 Z M 375 237 " clip-rule="nonzero"/></clipPath><clipPath id="c58347b641"><path d="M 403.511719 165.164062 L 403.511719 233.53125 L 370.855469 233.53125 L 370.855469 267.714844 L 343.511719 267.714844 L 343.207031 270.6875 C 341.5 289.308594 344.746094 306.488281 352.207031 321.175781 L 354.710938 325.675781 C 356.195312 328.378906 357.976562 330.914062 359.816406 333.386719 C 361.652344 335.863281 362.320312 337.226562 363.480469 338.867188 C 383.207031 361.042969 412.609375 371.746094 446.558594 371.746094 C 521.742188 371.746094 585.546875 338.398438 613.789062 263.480469 C 633.816406 265.539062 653.039062 260.394531 661.796875 243.277344 C 647.84375 235.21875 629.914062 237.800781 619.582031 243 L 646.957031 165.15625 L 540.078125 233.523438 L 505.9375 233.523438 L 505.9375 165.15625 Z M 403.511719 165.164062 " clip-rule="nonzero"/></clipPath><clipPath id="9be87f1725"><path d="M 376 204 L 399 204 L 399 229 L 376 229 Z M 376 204 " clip-rule="nonzero"/></clipPath><clipPath id="8b8bfaadf9"><path d="M 403.511719 165.164062 L 403.511719 233.53125 L 370.855469 233.53125 L 370.855469 267.714844 L 343.511719 267.714844 L 343.207031 270.6875 C 341.5 289.308594 344.746094 306.488281 352.207031 321.175781 L 354.710938 325.675781 C 356.195312 328.378906 357.976562 330.914062 359.816406 333.386719 C 361.652344 335.863281 362.320312 337.226562 363.480469 338.867188 C 383.207031 361.042969 412.609375 371.746094 446.558594 371.746094 C 521.742188 371.746094 585.546875 338.398438 613.789062 263.480469 C 633.816406 265.539062 653.039062 260.394531 661.796875 243.277344 C 647.84375 235.21875 629.914062 237.800781 619.582031 243 L 646.957031 165.15625 L 540.078125 233.523438 L 505.9375 233.523438 L 505.9375 165.15625 Z M 403.511719 165.164062 " clip-rule="nonzero"/></clipPath><clipPath id="2f17cd3195"><path d="M 375 203 L 400 203 L 400 230 L 375 230 Z M 375 203 " clip-rule="nonzero"/></clipPath><clipPath id="b00c6ef2bf"><path d="M 403.511719 165.164062 L 403.511719 233.53125 L 370.855469 233.53125 L 370.855469 267.714844 L 343.511719 267.714844 L 343.207031 270.6875 C 341.5 289.308594 344.746094 306.488281 352.207031 321.175781 L 354.710938 325.675781 C 356.195312 328.378906 357.976562 330.914062 359.816406 333.386719 C 361.652344 335.863281 362.320312 337.226562 363.480469 338.867188 C 383.207031 361.042969 412.609375 371.746094 446.558594 371.746094 C 521.742188 371.746094 585.546875 338.398438 613.789062 263.480469 C 633.816406 265.539062 653.039062 260.394531 661.796875 243.277344 C 647.84375 235.21875 629.914062 237.800781 619.582031 243 L 646.957031 165.15625 L 540.078125 233.523438 L 505.9375 233.523438 L 505.9375 165.15625 Z M 403.511719 165.164062 " clip-rule="nonzero"/></clipPath><clipPath id="206040fb7b"><path d="M 406 201 L 437 201 L 437 232 L 406 232 Z M 406 201 " clip-rule="nonzero"/></clipPath><clipPath id="5209224a3d"><path d="M 403.511719 165.164062 L 403.511719 233.53125 L 370.855469 233.53125 L 370.855469 267.714844 L 343.511719 267.714844 L 343.207031 270.6875 C 341.5 289.308594 344.746094 306.488281 352.207031 321.175781 L 354.710938 325.675781 C 356.195312 328.378906 357.976562 330.914062 359.816406 333.386719 C 361.652344 335.863281 362.320312 337.226562 363.480469 338.867188 C 383.207031 361.042969 412.609375 371.746094 446.558594 371.746094 C 521.742188 371.746094 585.546875 338.398438 613.789062 263.480469 C 633.816406 265.539062 653.039062 260.394531 661.796875 243.277344 C 647.84375 235.21875 629.914062 237.800781 619.582031 243 L 646.957031 165.15625 L 540.078125 233.523438 L 505.9375 233.523438 L 505.9375 165.15625 Z M 403.511719 165.164062 " clip-rule="nonzero"/></clipPath><clipPath id="4c720d0587"><path d="M 406 235 L 437 235 L 437 266 L 406 266 Z M 406 235 " clip-rule="nonzero"/></clipPath><clipPath id="0efb8ab868"><path d="M 403.511719 165.164062 L 403.511719 233.53125 L 370.855469 233.53125 L 370.855469 267.714844 L 343.511719 267.714844 L 343.207031 270.6875 C 341.5 289.308594 344.746094 306.488281 352.207031 321.175781 L 354.710938 325.675781 C 356.195312 328.378906 357.976562 330.914062 359.816406 333.386719 C 361.652344 335.863281 362.320312 337.226562 363.480469 338.867188 C 383.207031 361.042969 412.609375 371.746094 446.558594 371.746094 C 521.742188 371.746094 585.546875 338.398438 613.789062 263.480469 C 633.816406 265.539062 653.039062 260.394531 661.796875 243.277344 C 647.84375 235.21875 629.914062 237.800781 619.582031 243 L 646.957031 165.15625 L 540.078125 233.523438 L 505.9375 233.523438 L 505.9375 165.15625 Z M 403.511719 165.164062 " clip-rule="nonzero"/></clipPath><clipPath id="9eda938785"><path d="M 410 204 L 433 204 L 433 229 L 410 229 Z M 410 204 " clip-rule="nonzero"/></clipPath><clipPath id="bf929d787e"><path d="M 403.511719 165.164062 L 403.511719 233.53125 L 370.855469 233.53125 L 370.855469 267.714844 L 343.511719 267.714844 L 343.207031 270.6875 C 341.5 289.308594 344.746094 306.488281 352.207031 321.175781 L 354.710938 325.675781 C 356.195312 328.378906 357.976562 330.914062 359.816406 333.386719 C 361.652344 335.863281 362.320312 337.226562 363.480469 338.867188 C 383.207031 361.042969 412.609375 371.746094 446.558594 371.746094 C 521.742188 371.746094 585.546875 338.398438 613.789062 263.480469 C 633.816406 265.539062 653.039062 260.394531 661.796875 243.277344 C 647.84375 235.21875 629.914062 237.800781 619.582031 243 L 646.957031 165.15625 L 540.078125 233.523438 L 505.9375 233.523438 L 505.9375 165.15625 Z M 403.511719 165.164062 " clip-rule="nonzero"/></clipPath><clipPath id="57520bdc2c"><path d="M 409 203 L 434 203 L 434 230 L 409 230 Z M 409 203 " clip-rule="nonzero"/></clipPath><clipPath id="e8c39a70b5"><path d="M 403.511719 165.164062 L 403.511719 233.53125 L 370.855469 233.53125 L 370.855469 267.714844 L 343.511719 267.714844 L 343.207031 270.6875 C 341.5 289.308594 344.746094 306.488281 352.207031 321.175781 L 354.710938 325.675781 C 356.195312 328.378906 357.976562 330.914062 359.816406 333.386719 C 361.652344 335.863281 362.320312 337.226562 363.480469 338.867188 C 383.207031 361.042969 412.609375 371.746094 446.558594 371.746094 C 521.742188 371.746094 585.546875 338.398438 613.789062 263.480469 C 633.816406 265.539062 653.039062 260.394531 661.796875 243.277344 C 647.84375 235.21875 629.914062 237.800781 619.582031 243 L 646.957031 165.15625 L 540.078125 233.523438 L 505.9375 233.523438 L 505.9375 165.15625 Z M 403.511719 165.164062 " clip-rule="nonzero"/></clipPath><clipPath id="af3b1208f4"><path d="M 410 238 L 433 238 L 433 263 L 410 263 Z M 410 238 " clip-rule="nonzero"/></clipPath><clipPath id="92a03e1dba"><path d="M 403.511719 165.164062 L 403.511719 233.53125 L 370.855469 233.53125 L 370.855469 267.714844 L 343.511719 267.714844 L 343.207031 270.6875 C 341.5 289.308594 344.746094 306.488281 352.207031 321.175781 L 354.710938 325.675781 C 356.195312 328.378906 357.976562 330.914062 359.816406 333.386719 C 361.652344 335.863281 362.320312 337.226562 363.480469 338.867188 C 383.207031 361.042969 412.609375 371.746094 446.558594 371.746094 C 521.742188 371.746094 585.546875 338.398438 613.789062 263.480469 C 633.816406 265.539062 653.039062 260.394531 661.796875 243.277344 C 647.84375 235.21875 629.914062 237.800781 619.582031 243 L 646.957031 165.15625 L 540.078125 233.523438 L 505.9375 233.523438 L 505.9375 165.15625 Z M 403.511719 165.164062 " clip-rule="nonzero"/></clipPath><clipPath id="9ec8c2cf5f"><path d="M 409 237 L 434 237 L 434 264 L 409 264 Z M 409 237 " clip-rule="nonzero"/></clipPath><clipPath id="b324b28bfe"><path d="M 403.511719 165.164062 L 403.511719 233.53125 L 370.855469 233.53125 L 370.855469 267.714844 L 343.511719 267.714844 L 343.207031 270.6875 C 341.5 289.308594 344.746094 306.488281 352.207031 321.175781 L 354.710938 325.675781 C 356.195312 328.378906 357.976562 330.914062 359.816406 333.386719 C 361.652344 335.863281 362.320312 337.226562 363.480469 338.867188 C 383.207031 361.042969 412.609375 371.746094 446.558594 371.746094 C 521.742188 371.746094 585.546875 338.398438 613.789062 263.480469 C 633.816406 265.539062 653.039062 260.394531 661.796875 243.277344 C 647.84375 235.21875 629.914062 237.800781 619.582031 243 L 646.957031 165.15625 L 540.078125 233.523438 L 505.9375 233.523438 L 505.9375 165.15625 Z M 403.511719 165.164062 " clip-rule="nonzero"/></clipPath><clipPath id="207936c1fd"><path d="M 440 235 L 471 235 L 471 266 L 440 266 Z M 440 235 " clip-rule="nonzero"/></clipPath><clipPath id="1412ccda66"><path d="M 403.511719 165.164062 L 403.511719 233.53125 L 370.855469 233.53125 L 370.855469 267.714844 L 343.511719 267.714844 L 343.207031 270.6875 C 341.5 289.308594 344.746094 306.488281 352.207031 321.175781 L 354.710938 325.675781 C 356.195312 328.378906 357.976562 330.914062 359.816406 333.386719 C 361.652344 335.863281 362.320312 337.226562 363.480469 338.867188 C 383.207031 361.042969 412.609375 371.746094 446.558594 371.746094 C 521.742188 371.746094 585.546875 338.398438 613.789062 263.480469 C 633.816406 265.539062 653.039062 260.394531 661.796875 243.277344 C 647.84375 235.21875 629.914062 237.800781 619.582031 243 L 646.957031 165.15625 L 540.078125 233.523438 L 505.9375 233.523438 L 505.9375 165.15625 Z M 403.511719 165.164062 " clip-rule="nonzero"/></clipPath><clipPath id="2be84c3e5d"><path d="M 440 201 L 471 201 L 471 232 L 440 232 Z M 440 201 " clip-rule="nonzero"/></clipPath><clipPath id="1e9fff8fda"><path d="M 403.511719 165.164062 L 403.511719 233.53125 L 370.855469 233.53125 L 370.855469 267.714844 L 343.511719 267.714844 L 343.207031 270.6875 C 341.5 289.308594 344.746094 306.488281 352.207031 321.175781 L 354.710938 325.675781 C 356.195312 328.378906 357.976562 330.914062 359.816406 333.386719 C 361.652344 335.863281 362.320312 337.226562 363.480469 338.867188 C 383.207031 361.042969 412.609375 371.746094 446.558594 371.746094 C 521.742188 371.746094 585.546875 338.398438 613.789062 263.480469 C 633.816406 265.539062 653.039062 260.394531 661.796875 243.277344 C 647.84375 235.21875 629.914062 237.800781 619.582031 243 L 646.957031 165.15625 L 540.078125 233.523438 L 505.9375 233.523438 L 505.9375 165.15625 Z M 403.511719 165.164062 " clip-rule="nonzero"/></clipPath><clipPath id="4114b10f6a"><path d="M 444 238 L 467 238 L 467 263 L 444 263 Z M 444 238 " clip-rule="nonzero"/></clipPath><clipPath id="3b214a794b"><path d="M 403.511719 165.164062 L 403.511719 233.53125 L 370.855469 233.53125 L 370.855469 267.714844 L 343.511719 267.714844 L 343.207031 270.6875 C 341.5 289.308594 344.746094 306.488281 352.207031 321.175781 L 354.710938 325.675781 C 356.195312 328.378906 357.976562 330.914062 359.816406 333.386719 C 361.652344 335.863281 362.320312 337.226562 363.480469 338.867188 C 383.207031 361.042969 412.609375 371.746094 446.558594 371.746094 C 521.742188 371.746094 585.546875 338.398438 613.789062 263.480469 C 633.816406 265.539062 653.039062 260.394531 661.796875 243.277344 C 647.84375 235.21875 629.914062 237.800781 619.582031 243 L 646.957031 165.15625 L 540.078125 233.523438 L 505.9375 233.523438 L 505.9375 165.15625 Z M 403.511719 165.164062 " clip-rule="nonzero"/></clipPath><clipPath id="b06ffd3ef2"><path d="M 443 237 L 468 237 L 468 264 L 443 264 Z M 443 237 " clip-rule="nonzero"/></clipPath><clipPath id="e958251598"><path d="M 403.511719 165.164062 L 403.511719 233.53125 L 370.855469 233.53125 L 370.855469 267.714844 L 343.511719 267.714844 L 343.207031 270.6875 C 341.5 289.308594 344.746094 306.488281 352.207031 321.175781 L 354.710938 325.675781 C 356.195312 328.378906 357.976562 330.914062 359.816406 333.386719 C 361.652344 335.863281 362.320312 337.226562 363.480469 338.867188 C 383.207031 361.042969 412.609375 371.746094 446.558594 371.746094 C 521.742188 371.746094 585.546875 338.398438 613.789062 263.480469 C 633.816406 265.539062 653.039062 260.394531 661.796875 243.277344 C 647.84375 235.21875 629.914062 237.800781 619.582031 243 L 646.957031 165.15625 L 540.078125 233.523438 L 505.9375 233.523438 L 505.9375 165.15625 Z M 403.511719 165.164062 " clip-rule="nonzero"/></clipPath><clipPath id="71e2101f8c"><path d="M 444 204 L 467 204 L 467 229 L 444 229 Z M 444 204 " clip-rule="nonzero"/></clipPath><clipPath id="d60086662a"><path d="M 403.511719 165.164062 L 403.511719 233.53125 L 370.855469 233.53125 L 370.855469 267.714844 L 343.511719 267.714844 L 343.207031 270.6875 C 341.5 289.308594 344.746094 306.488281 352.207031 321.175781 L 354.710938 325.675781 C 356.195312 328.378906 357.976562 330.914062 359.816406 333.386719 C 361.652344 335.863281 362.320312 337.226562 363.480469 338.867188 C 383.207031 361.042969 412.609375 371.746094 446.558594 371.746094 C 521.742188 371.746094 585.546875 338.398438 613.789062 263.480469 C 633.816406 265.539062 653.039062 260.394531 661.796875 243.277344 C 647.84375 235.21875 629.914062 237.800781 619.582031 243 L 646.957031 165.15625 L 540.078125 233.523438 L 505.9375 233.523438 L 505.9375 165.15625 Z M 403.511719 165.164062 " clip-rule="nonzero"/></clipPath><clipPath id="25f32c003e"><path d="M 443 203 L 468 203 L 468 230 L 443 230 Z M 443 203 " clip-rule="nonzero"/></clipPath><clipPath id="9cebae1402"><path d="M 403.511719 165.164062 L 403.511719 233.53125 L 370.855469 233.53125 L 370.855469 267.714844 L 343.511719 267.714844 L 343.207031 270.6875 C 341.5 289.308594 344.746094 306.488281 352.207031 321.175781 L 354.710938 325.675781 C 356.195312 328.378906 357.976562 330.914062 359.816406 333.386719 C 361.652344 335.863281 362.320312 337.226562 363.480469 338.867188 C 383.207031 361.042969 412.609375 371.746094 446.558594 371.746094 C 521.742188 371.746094 585.546875 338.398438 613.789062 263.480469 C 633.816406 265.539062 653.039062 260.394531 661.796875 243.277344 C 647.84375 235.21875 629.914062 237.800781 619.582031 243 L 646.957031 165.15625 L 540.078125 233.523438 L 505.9375 233.523438 L 505.9375 165.15625 Z M 403.511719 165.164062 " clip-rule="nonzero"/></clipPath><clipPath id="1a61a791dd"><path d="M 474 201 L 504 201 L 504 232 L 474 232 Z M 474 201 " clip-rule="nonzero"/></clipPath><clipPath id="90f95a0f94"><path d="M 403.511719 165.164062 L 403.511719 233.53125 L 370.855469 233.53125 L 370.855469 267.714844 L 343.511719 267.714844 L 343.207031 270.6875 C 341.5 289.308594 344.746094 306.488281 352.207031 321.175781 L 354.710938 325.675781 C 356.195312 328.378906 357.976562 330.914062 359.816406 333.386719 C 361.652344 335.863281 362.320312 337.226562 363.480469 338.867188 C 383.207031 361.042969 412.609375 371.746094 446.558594 371.746094 C 521.742188 371.746094 585.546875 338.398438 613.789062 263.480469 C 633.816406 265.539062 653.039062 260.394531 661.796875 243.277344 C 647.84375 235.21875 629.914062 237.800781 619.582031 243 L 646.957031 165.15625 L 540.078125 233.523438 L 505.9375 233.523438 L 505.9375 165.15625 Z M 403.511719 165.164062 " clip-rule="nonzero"/></clipPath><clipPath id="811ca66cec"><path d="M 474 235 L 504 235 L 504 266 L 474 266 Z M 474 235 " clip-rule="nonzero"/></clipPath><clipPath id="4fb3a99c5e"><path d="M 403.511719 165.164062 L 403.511719 233.53125 L 370.855469 233.53125 L 370.855469 267.714844 L 343.511719 267.714844 L 343.207031 270.6875 C 341.5 289.308594 344.746094 306.488281 352.207031 321.175781 L 354.710938 325.675781 C 356.195312 328.378906 357.976562 330.914062 359.816406 333.386719 C 361.652344 335.863281 362.320312 337.226562 363.480469 338.867188 C 383.207031 361.042969 412.609375 371.746094 446.558594 371.746094 C 521.742188 371.746094 585.546875 338.398438 613.789062 263.480469 C 633.816406 265.539062 653.039062 260.394531 661.796875 243.277344 C 647.84375 235.21875 629.914062 237.800781 619.582031 243 L 646.957031 165.15625 L 540.078125 233.523438 L 505.9375 233.523438 L 505.9375 165.15625 Z M 403.511719 165.164062 " clip-rule="nonzero"/></clipPath><clipPath id="b82adb7591"><path d="M 478 204 L 501 204 L 501 229 L 478 229 Z M 478 204 " clip-rule="nonzero"/></clipPath><clipPath id="5cece325fe"><path d="M 403.511719 165.164062 L 403.511719 233.53125 L 370.855469 233.53125 L 370.855469 267.714844 L 343.511719 267.714844 L 343.207031 270.6875 C 341.5 289.308594 344.746094 306.488281 352.207031 321.175781 L 354.710938 325.675781 C 356.195312 328.378906 357.976562 330.914062 359.816406 333.386719 C 361.652344 335.863281 362.320312 337.226562 363.480469 338.867188 C 383.207031 361.042969 412.609375 371.746094 446.558594 371.746094 C 521.742188 371.746094 585.546875 338.398438 613.789062 263.480469 C 633.816406 265.539062 653.039062 260.394531 661.796875 243.277344 C 647.84375 235.21875 629.914062 237.800781 619.582031 243 L 646.957031 165.15625 L 540.078125 233.523438 L 505.9375 233.523438 L 505.9375 165.15625 Z M 403.511719 165.164062 " clip-rule="nonzero"/></clipPath><clipPath id="d399f2c277"><path d="M 477 203 L 502 203 L 502 230 L 477 230 Z M 477 203 " clip-rule="nonzero"/></clipPath><clipPath id="e97d2b8d59"><path d="M 403.511719 165.164062 L 403.511719 233.53125 L 370.855469 233.53125 L 370.855469 267.714844 L 343.511719 267.714844 L 343.207031 270.6875 C 341.5 289.308594 344.746094 306.488281 352.207031 321.175781 L 354.710938 325.675781 C 356.195312 328.378906 357.976562 330.914062 359.816406 333.386719 C 361.652344 335.863281 362.320312 337.226562 363.480469 338.867188 C 383.207031 361.042969 412.609375 371.746094 446.558594 371.746094 C 521.742188 371.746094 585.546875 338.398438 613.789062 263.480469 C 633.816406 265.539062 653.039062 260.394531 661.796875 243.277344 C 647.84375 235.21875 629.914062 237.800781 619.582031 243 L 646.957031 165.15625 L 540.078125 233.523438 L 505.9375 233.523438 L 505.9375 165.15625 Z M 403.511719 165.164062 " clip-rule="nonzero"/></clipPath><clipPath id="6d7d29c3d0"><path d="M 478 238 L 501 238 L 501 263 L 478 263 Z M 478 238 " clip-rule="nonzero"/></clipPath><clipPath id="a340fb770e"><path d="M 403.511719 165.164062 L 403.511719 233.53125 L 370.855469 233.53125 L 370.855469 267.714844 L 343.511719 267.714844 L 343.207031 270.6875 C 341.5 289.308594 344.746094 306.488281 352.207031 321.175781 L 354.710938 325.675781 C 356.195312 328.378906 357.976562 330.914062 359.816406 333.386719 C 361.652344 335.863281 362.320312 337.226562 363.480469 338.867188 C 383.207031 361.042969 412.609375 371.746094 446.558594 371.746094 C 521.742188 371.746094 585.546875 338.398438 613.789062 263.480469 C 633.816406 265.539062 653.039062 260.394531 661.796875 243.277344 C 647.84375 235.21875 629.914062 237.800781 619.582031 243 L 646.957031 165.15625 L 540.078125 233.523438 L 505.9375 233.523438 L 505.9375 165.15625 Z M 403.511719 165.164062 " clip-rule="nonzero"/></clipPath><clipPath id="d4a20eea75"><path d="M 477 237 L 502 237 L 502 264 L 477 264 Z M 477 237 " clip-rule="nonzero"/></clipPath><clipPath id="c4fb94270b"><path d="M 403.511719 165.164062 L 403.511719 233.53125 L 370.855469 233.53125 L 370.855469 267.714844 L 343.511719 267.714844 L 343.207031 270.6875 C 341.5 289.308594 344.746094 306.488281 352.207031 321.175781 L 354.710938 325.675781 C 356.195312 328.378906 357.976562 330.914062 359.816406 333.386719 C 361.652344 335.863281 362.320312 337.226562 363.480469 338.867188 C 383.207031 361.042969 412.609375 371.746094 446.558594 371.746094 C 521.742188 371.746094 585.546875 338.398438 613.789062 263.480469 C 633.816406 265.539062 653.039062 260.394531 661.796875 243.277344 C 647.84375 235.21875 629.914062 237.800781 619.582031 243 L 646.957031 165.15625 L 540.078125 233.523438 L 505.9375 233.523438 L 505.9375 165.15625 Z M 403.511719 165.164062 " clip-rule="nonzero"/></clipPath><clipPath id="00ff9951bf"><path d="M 508 235 L 538 235 L 538 266 L 508 266 Z M 508 235 " clip-rule="nonzero"/></clipPath><clipPath id="28b5f00d8b"><path d="M 403.511719 165.164062 L 403.511719 233.53125 L 370.855469 233.53125 L 370.855469 267.714844 L 343.511719 267.714844 L 343.207031 270.6875 C 341.5 289.308594 344.746094 306.488281 352.207031 321.175781 L 354.710938 325.675781 C 356.195312 328.378906 357.976562 330.914062 359.816406 333.386719 C 361.652344 335.863281 362.320312 337.226562 363.480469 338.867188 C 383.207031 361.042969 412.609375 371.746094 446.558594 371.746094 C 521.742188 371.746094 585.546875 338.398438 613.789062 263.480469 C 633.816406 265.539062 653.039062 260.394531 661.796875 243.277344 C 647.84375 235.21875 629.914062 237.800781 619.582031 243 L 646.957031 165.15625 L 540.078125 233.523438 L 505.9375 233.523438 L 505.9375 165.15625 Z M 403.511719 165.164062 " clip-rule="nonzero"/></clipPath><clipPath id="c731631e8e"><path d="M 508 201 L 538 201 L 538 232 L 508 232 Z M 508 201 " clip-rule="nonzero"/></clipPath><clipPath id="f53f03dcde"><path d="M 403.511719 165.164062 L 403.511719 233.53125 L 370.855469 233.53125 L 370.855469 267.714844 L 343.511719 267.714844 L 343.207031 270.6875 C 341.5 289.308594 344.746094 306.488281 352.207031 321.175781 L 354.710938 325.675781 C 356.195312 328.378906 357.976562 330.914062 359.816406 333.386719 C 361.652344 335.863281 362.320312 337.226562 363.480469 338.867188 C 383.207031 361.042969 412.609375 371.746094 446.558594 371.746094 C 521.742188 371.746094 585.546875 338.398438 613.789062 263.480469 C 633.816406 265.539062 653.039062 260.394531 661.796875 243.277344 C 647.84375 235.21875 629.914062 237.800781 619.582031 243 L 646.957031 165.15625 L 540.078125 233.523438 L 505.9375 233.523438 L 505.9375 165.15625 Z M 403.511719 165.164062 " clip-rule="nonzero"/></clipPath><clipPath id="dd5b2f268c"><path d="M 512 238 L 535 238 L 535 263 L 512 263 Z M 512 238 " clip-rule="nonzero"/></clipPath><clipPath id="ca26966350"><path d="M 403.511719 165.164062 L 403.511719 233.53125 L 370.855469 233.53125 L 370.855469 267.714844 L 343.511719 267.714844 L 343.207031 270.6875 C 341.5 289.308594 344.746094 306.488281 352.207031 321.175781 L 354.710938 325.675781 C 356.195312 328.378906 357.976562 330.914062 359.816406 333.386719 C 361.652344 335.863281 362.320312 337.226562 363.480469 338.867188 C 383.207031 361.042969 412.609375 371.746094 446.558594 371.746094 C 521.742188 371.746094 585.546875 338.398438 613.789062 263.480469 C 633.816406 265.539062 653.039062 260.394531 661.796875 243.277344 C 647.84375 235.21875 629.914062 237.800781 619.582031 243 L 646.957031 165.15625 L 540.078125 233.523438 L 505.9375 233.523438 L 505.9375 165.15625 Z M 403.511719 165.164062 " clip-rule="nonzero"/></clipPath><clipPath id="168759938f"><path d="M 510 237 L 536 237 L 536 264 L 510 264 Z M 510 237 " clip-rule="nonzero"/></clipPath><clipPath id="27ba00a484"><path d="M 403.511719 165.164062 L 403.511719 233.53125 L 370.855469 233.53125 L 370.855469 267.714844 L 343.511719 267.714844 L 343.207031 270.6875 C 341.5 289.308594 344.746094 306.488281 352.207031 321.175781 L 354.710938 325.675781 C 356.195312 328.378906 357.976562 330.914062 359.816406 333.386719 C 361.652344 335.863281 362.320312 337.226562 363.480469 338.867188 C 383.207031 361.042969 412.609375 371.746094 446.558594 371.746094 C 521.742188 371.746094 585.546875 338.398438 613.789062 263.480469 C 633.816406 265.539062 653.039062 260.394531 661.796875 243.277344 C 647.84375 235.21875 629.914062 237.800781 619.582031 243 L 646.957031 165.15625 L 540.078125 233.523438 L 505.9375 233.523438 L 505.9375 165.15625 Z M 403.511719 165.164062 " clip-rule="nonzero"/></clipPath><clipPath id="4a89e4dc32"><path d="M 512 204 L 535 204 L 535 229 L 512 229 Z M 512 204 " clip-rule="nonzero"/></clipPath><clipPath id="4e6eded7a8"><path d="M 403.511719 165.164062 L 403.511719 233.53125 L 370.855469 233.53125 L 370.855469 267.714844 L 343.511719 267.714844 L 343.207031 270.6875 C 341.5 289.308594 344.746094 306.488281 352.207031 321.175781 L 354.710938 325.675781 C 356.195312 328.378906 357.976562 330.914062 359.816406 333.386719 C 361.652344 335.863281 362.320312 337.226562 363.480469 338.867188 C 383.207031 361.042969 412.609375 371.746094 446.558594 371.746094 C 521.742188 371.746094 585.546875 338.398438 613.789062 263.480469 C 633.816406 265.539062 653.039062 260.394531 661.796875 243.277344 C 647.84375 235.21875 629.914062 237.800781 619.582031 243 L 646.957031 165.15625 L 540.078125 233.523438 L 505.9375 233.523438 L 505.9375 165.15625 Z M 403.511719 165.164062 " clip-rule="nonzero"/></clipPath><clipPath id="6518964b52"><path d="M 510 203 L 536 203 L 536 230 L 510 230 Z M 510 203 " clip-rule="nonzero"/></clipPath><clipPath id="164d80fa49"><path d="M 403.511719 165.164062 L 403.511719 233.53125 L 370.855469 233.53125 L 370.855469 267.714844 L 343.511719 267.714844 L 343.207031 270.6875 C 341.5 289.308594 344.746094 306.488281 352.207031 321.175781 L 354.710938 325.675781 C 356.195312 328.378906 357.976562 330.914062 359.816406 333.386719 C 361.652344 335.863281 362.320312 337.226562 363.480469 338.867188 C 383.207031 361.042969 412.609375 371.746094 446.558594 371.746094 C 521.742188 371.746094 585.546875 338.398438 613.789062 263.480469 C 633.816406 265.539062 653.039062 260.394531 661.796875 243.277344 C 647.84375 235.21875 629.914062 237.800781 619.582031 243 L 646.957031 165.15625 L 540.078125 233.523438 L 505.9375 233.523438 L 505.9375 165.15625 Z M 403.511719 165.164062 " clip-rule="nonzero"/></clipPath><clipPath id="69a3b3b8be"><path d="M 342.652344 204 L 661.796875 204 L 661.796875 371.75 L 342.652344 371.75 Z M 342.652344 204 " clip-rule="nonzero"/></clipPath><clipPath id="349bfa88c2"><path d="M 403.511719 165.164062 L 403.511719 233.53125 L 370.855469 233.53125 L 370.855469 267.714844 L 343.511719 267.714844 L 343.207031 270.6875 C 341.5 289.308594 344.746094 306.488281 352.207031 321.175781 L 354.710938 325.675781 C 356.195312 328.378906 357.976562 330.914062 359.816406 333.386719 C 361.652344 335.863281 362.320312 337.226562 363.480469 338.867188 C 383.207031 361.042969 412.609375 371.746094 446.558594 371.746094 C 521.742188 371.746094 585.546875 338.398438 613.789062 263.480469 C 633.816406 265.539062 653.039062 260.394531 661.796875 243.277344 C 647.84375 235.21875 629.914062 237.800781 619.582031 243 L 646.957031 165.15625 L 540.078125 233.523438 L 505.9375 233.523438 L 505.9375 165.15625 Z M 403.511719 165.164062 " clip-rule="nonzero"/></clipPath><clipPath id="826593a617"><path d="M 342.652344 294 L 661.796875 294 L 661.796875 371.75 L 342.652344 371.75 Z M 342.652344 294 " clip-rule="nonzero"/></clipPath><clipPath id="db2e7d2f76"><path d="M 403.511719 165.164062 L 403.511719 233.53125 L 370.855469 233.53125 L 370.855469 267.714844 L 343.511719 267.714844 L 343.207031 270.6875 C 341.5 289.308594 344.746094 306.488281 352.207031 321.175781 L 354.710938 325.675781 C 356.195312 328.378906 357.976562 330.914062 359.816406 333.386719 C 361.652344 335.863281 362.320312 337.226562 363.480469 338.867188 C 383.207031 361.042969 412.609375 371.746094 446.558594 371.746094 C 521.742188 371.746094 585.546875 338.398438 613.789062 263.480469 C 633.816406 265.539062 653.039062 260.394531 661.796875 243.277344 C 647.84375 235.21875 629.914062 237.800781 619.582031 243 L 646.957031 165.15625 L 540.078125 233.523438 L 505.9375 233.523438 L 505.9375 165.15625 Z M 403.511719 165.164062 " clip-rule="nonzero"/></clipPath><clipPath id="f8c3019030"><path d="M 357 334 L 456 334 L 456 371.75 L 357 371.75 Z M 357 334 " clip-rule="nonzero"/></clipPath><clipPath id="759747b68a"><path d="M 403.511719 165.164062 L 403.511719 233.53125 L 370.855469 233.53125 L 370.855469 267.714844 L 343.511719 267.714844 L 343.207031 270.6875 C 341.5 289.308594 344.746094 306.488281 352.207031 321.175781 L 354.710938 325.675781 C 356.195312 328.378906 357.976562 330.914062 359.816406 333.386719 C 361.652344 335.863281 362.320312 337.226562 363.480469 338.867188 C 383.207031 361.042969 412.609375 371.746094 446.558594 371.746094 C 521.742188 371.746094 585.546875 338.398438 613.789062 263.480469 C 633.816406 265.539062 653.039062 260.394531 661.796875 243.277344 C 647.84375 235.21875 629.914062 237.800781 619.582031 243 L 646.957031 165.15625 L 540.078125 233.523438 L 505.9375 233.523438 L 505.9375 165.15625 Z M 403.511719 165.164062 " clip-rule="nonzero"/></clipPath><clipPath id="b83ae77eff"><path d="M 342.652344 236 L 661.796875 236 L 661.796875 371.75 L 342.652344 371.75 Z M 342.652344 236 " clip-rule="nonzero"/></clipPath><clipPath id="250600de29"><path d="M 403.511719 165.164062 L 403.511719 233.53125 L 370.855469 233.53125 L 370.855469 267.714844 L 343.511719 267.714844 L 343.207031 270.6875 C 341.5 289.308594 344.746094 306.488281 352.207031 321.175781 L 354.710938 325.675781 C 356.195312 328.378906 357.976562 330.914062 359.816406 333.386719 C 361.652344 335.863281 362.320312 337.226562 363.480469 338.867188 C 383.207031 361.042969 412.609375 371.746094 446.558594 371.746094 C 521.742188 371.746094 585.546875 338.398438 613.789062 263.480469 C 633.816406 265.539062 653.039062 260.394531 661.796875 243.277344 C 647.84375 235.21875 629.914062 237.800781 619.582031 243 L 646.957031 165.15625 L 540.078125 233.523438 L 505.9375 233.523438 L 505.9375 165.15625 Z M 403.511719 165.164062 " clip-rule="nonzero"/></clipPath></defs><g clip-path="url(#ade4dfb1cf)"><path fill="#ffffff" d="M 0.886719 0 L 959.113281 0 L 959.113281 539 L 0.886719 539 Z M 0.886719 0 " fill-opacity="1" fill-rule="nonzero"/><path fill="#000000" d="M 0.886719 0 L 959.113281 0 L 959.113281 539 L 0.886719 539 Z M 0.886719 0 " fill-opacity="1" fill-rule="nonzero"/></g><g clip-path="url(#5a151423da)"><path fill="#394d54" d="M 509.621094 230.160156 L 543.5625 230.160156 L 543.5625 264.898438 L 560.722656 264.898438 C 568.800781 264.859375 576.660156 263.539062 584.308594 260.9375 C 588.007812 259.683594 592.136719 257.945312 595.769531 255.753906 C 590.980469 249.492188 588.535156 241.589844 587.734375 233.78125 C 586.75 223.183594 588.890625 209.378906 596.058594 201.082031 L 599.628906 196.953125 L 603.890625 200.371094 C 614.597656 208.984375 623.601562 221.015625 625.191406 234.738281 C 638.078125 230.941406 653.214844 231.84375 664.582031 238.410156 L 669.242188 241.105469 L 666.792969 245.902344 C 657.25 264.65625 637.152344 270.476562 617.515625 269.445312 C 588.125 342.726562 524.148438 377.425781 446.578125 377.425781 C 406.496094 377.425781 369.730469 362.421875 348.796875 326.824219 C 347.566406 324.609375 346.519531 322.300781 345.402344 320.03125 C 338.332031 304.359375 335.976562 287.191406 337.566406 270.128906 L 338.050781 264.996094 L 366.988281 264.996094 L 366.988281 230.183594 L 400.925781 230.183594 L 400.925781 196.203125 L 468.8125 196.203125 L 468.8125 162.222656 L 509.542969 162.222656 L 509.542969 230.191406 " fill-opacity="1" fill-rule="nonzero"/></g><g clip-path="url(#52d7eba9e0)"><g clip-path="url(#53426fb128)"><path fill="#20c2ef" d="M 474.554688 167.851562 L 503.972656 167.851562 L 503.972656 197.308594 L 474.550781 197.308594 Z M 474.554688 167.851562 " fill-opacity="1" fill-rule="nonzero"/></g></g><g clip-path="url(#438b939adc)"><g clip-path="url(#40172682bc)"><path fill="#000000" d="M 478.160156 194.855469 L 478.160156 170.304688 M 482.574219 194.851562 L 482.574219 170.304688 M 487.03125 194.851562 L 487.03125 170.304688 M 491.488281 194.851562 L 491.488281 170.304688 M 495.945312 194.851562 L 495.945312 170.304688 M 500.351562 194.851562 L 500.351562 170.304688 " fill-opacity="1" fill-rule="nonzero"/></g></g><g clip-path="url(#117dcc1e77)"><g clip-path="url(#b95be6b220)"><path stroke-linecap="butt" transform="matrix(1.484389, 0, 0, 1.486244, 290.698104, 162.190384)" fill="none" stroke-linejoin="miter" d="M 126.289028 21.978281 L 126.289028 5.459604 M 129.262684 21.975653 L 129.262684 5.459604 M 132.265287 21.975653 L 132.265287 5.459604 M 135.26789 21.975653 L 135.26789 5.459604 M 138.270493 21.975653 L 138.270493 5.459604 M 141.238886 21.975653 L 141.238886 5.459604 " stroke="#394d54" stroke-width="1.56" stroke-opacity="1" stroke-miterlimit="4"/></g></g><g clip-path="url(#e4891bd1e6)"><g clip-path="url(#588374de04)"><path fill="#00acd3" d="M 508.496094 197.324219 L 537.914062 197.324219 L 537.914062 167.871094 L 508.492188 167.871094 Z M 508.496094 197.324219 " fill-opacity="1" fill-rule="nonzero"/></g></g><g clip-path="url(#6c2da5d999)"><g clip-path="url(#01799c05ff)"><path fill="#000000" d="M 512.105469 170.308594 L 512.105469 194.855469 M 516.515625 170.308594 L 516.515625 194.855469 M 520.972656 170.308594 L 520.972656 194.855469 M 525.429688 170.308594 L 525.429688 194.855469 M 529.886719 170.308594 L 529.886719 194.855469 M 534.296875 170.308594 L 534.296875 194.855469 " fill-opacity="1" fill-rule="nonzero"/></g></g><g clip-path="url(#8d44fca0ad)"><g clip-path="url(#9899260c8b)"><path stroke-linecap="butt" transform="matrix(1.484389, 0, 0, -1.486244, 324.640132, 202.97098)" fill="none" stroke-linejoin="miter" d="M 126.291241 21.976466 L 126.291241 5.460417 M 129.262265 21.976466 L 129.262265 5.460417 M 132.264868 21.976466 L 132.264868 5.460417 M 135.267472 21.976466 L 135.267472 5.460417 M 138.270075 21.976466 L 138.270075 5.460417 M 141.241099 21.976466 L 141.241099 5.460417 " stroke="#394d54" stroke-width="1.56" stroke-opacity="1" stroke-miterlimit="4"/></g></g><g clip-path="url(#f106f66920)"><g clip-path="url(#edc0dc50ee)"><path fill="#00acd3" d="M 338.785156 201.824219 L 368.203125 201.824219 L 368.203125 231.277344 L 338.785156 231.277344 Z M 338.785156 201.824219 " fill-opacity="1" fill-rule="nonzero"/></g></g><g clip-path="url(#41f4d98e56)"><g clip-path="url(#9cf42f4d67)"><path fill="#20c2ef" d="M 338.785156 235.820312 L 368.203125 235.820312 L 368.203125 265.277344 L 338.785156 265.277344 Z M 338.785156 235.820312 " fill-opacity="1" fill-rule="nonzero"/></g></g><g clip-path="url(#47dca6e8ba)"><g clip-path="url(#74134e1ced)"><path fill="#000000" d="M 342.394531 228.839844 L 342.394531 204.289062 M 346.804688 228.835938 L 346.804688 204.289062 M 351.261719 228.835938 L 351.261719 204.289062 M 355.71875 228.835938 L 355.71875 204.289062 M 360.175781 228.835938 L 360.175781 204.289062 M 364.585938 228.835938 L 364.585938 204.289062 " fill-opacity="1" fill-rule="nonzero"/></g></g><g clip-path="url(#2192681e7e)"><g clip-path="url(#f09f484efb)"><path stroke-linecap="butt" transform="matrix(1.484389, 0, 0, 1.486244, 154.929943, 196.17484)" fill="none" stroke-linejoin="miter" d="M 126.290737 21.978227 L 126.290737 5.45955 M 129.261761 21.975599 L 129.261761 5.45955 M 132.264364 21.975599 L 132.264364 5.45955 M 135.266968 21.975599 L 135.266968 5.45955 M 138.269571 21.975599 L 138.269571 5.45955 M 141.240595 21.975599 L 141.240595 5.45955 " stroke="#394d54" stroke-width="1.56" stroke-opacity="1" stroke-miterlimit="4"/></g></g><g clip-path="url(#80164dc9f2)"><g clip-path="url(#4017f445d7)"><path fill="#000000" d="M 342.394531 262.824219 L 342.394531 238.273438 M 346.804688 262.820312 L 346.804688 238.273438 M 351.261719 262.820312 L 351.261719 238.273438 M 355.71875 262.820312 L 355.71875 238.273438 M 360.175781 262.820312 L 360.175781 238.273438 M 364.585938 262.820312 L 364.585938 238.273438 " fill-opacity="1" fill-rule="nonzero"/></g></g><g clip-path="url(#4e3bc9d535)"><g clip-path="url(#1ea9229d78)"><path stroke-linecap="butt" transform="matrix(1.484389, 0, 0, 1.486244, 154.929943, 230.159284)" fill="none" stroke-linejoin="miter" d="M 126.290737 21.978181 L 126.290737 5.459504 M 129.261761 21.975553 L 129.261761 5.459504 M 132.264364 21.975553 L 132.264364 5.459504 M 135.266968 21.975553 L 135.266968 5.459504 M 138.269571 21.975553 L 138.269571 5.459504 M 141.240595 21.975553 L 141.240595 5.459504 " stroke="#394d54" stroke-width="1.56" stroke-opacity="1" stroke-miterlimit="4"/></g></g><g clip-path="url(#0f286e1929)"><g clip-path="url(#f1a5b3ea82)"><path fill="#00acd3" d="M 372.726562 265.292969 L 402.144531 265.292969 L 402.144531 235.839844 L 372.726562 235.839844 Z M 372.726562 265.292969 " fill-opacity="1" fill-rule="nonzero"/></g></g><g clip-path="url(#58876801e3)"><g clip-path="url(#bb2779485b)"><path fill="#20c2ef" d="M 372.726562 231.292969 L 402.144531 231.292969 L 402.144531 201.839844 L 372.726562 201.839844 Z M 372.726562 231.292969 " fill-opacity="1" fill-rule="nonzero"/></g></g><g clip-path="url(#5212d551c6)"><g clip-path="url(#88b9f42535)"><path fill="#000000" d="M 376.335938 238.277344 L 376.335938 262.824219 M 380.746094 238.277344 L 380.746094 262.824219 M 385.203125 238.277344 L 385.203125 262.824219 M 389.660156 238.277344 L 389.660156 262.824219 M 394.117188 238.277344 L 394.117188 262.824219 M 398.527344 238.277344 L 398.527344 262.824219 " fill-opacity="1" fill-rule="nonzero"/></g></g><g clip-path="url(#4046b74b10)"><g clip-path="url(#c58347b641)"><path stroke-linecap="butt" transform="matrix(1.484389, 0, 0, -1.486244, 188.871985, 270.939879)" fill="none" stroke-linejoin="miter" d="M 126.290308 21.976566 L 126.290308 5.460518 M 129.261333 21.976566 L 129.261333 5.460518 M 132.263936 21.976566 L 132.263936 5.460518 M 135.266539 21.976566 L 135.266539 5.460518 M 138.269142 21.976566 L 138.269142 5.460518 M 141.240167 21.976566 L 141.240167 5.460518 " stroke="#394d54" stroke-width="1.56" stroke-opacity="1" stroke-miterlimit="4"/></g></g><g clip-path="url(#9be87f1725)"><g clip-path="url(#8b8bfaadf9)"><path fill="#000000" d="M 376.335938 204.292969 L 376.335938 228.839844 M 380.746094 204.292969 L 380.746094 228.839844 M 385.203125 204.292969 L 385.203125 228.839844 M 389.660156 204.292969 L 389.660156 228.839844 M 394.117188 204.292969 L 394.117188 228.839844 M 398.527344 204.292969 L 398.527344 228.839844 " fill-opacity="1" fill-rule="nonzero"/></g></g><g clip-path="url(#2f17cd3195)"><g clip-path="url(#b00c6ef2bf)"><path stroke-linecap="butt" transform="matrix(1.484389, 0, 0, -1.486244, 188.871985, 236.955423)" fill="none" stroke-linejoin="miter" d="M 126.290308 21.976512 L 126.290308 5.460463 M 129.261333 21.976512 L 129.261333 5.460463 M 132.263936 21.976512 L 132.263936 5.460463 M 135.266539 21.976512 L 135.266539 5.460463 M 138.269142 21.976512 L 138.269142 5.460463 M 141.240167 21.976512 L 141.240167 5.460463 " stroke="#394d54" stroke-width="1.56" stroke-opacity="1" stroke-miterlimit="4"/></g></g><g clip-path="url(#206040fb7b)"><g clip-path="url(#5209224a3d)"><path fill="#00acd3" d="M 406.671875 201.824219 L 436.089844 201.824219 L 436.089844 231.277344 L 406.667969 231.277344 Z M 406.671875 201.824219 " fill-opacity="1" fill-rule="nonzero"/></g></g><g clip-path="url(#4c720d0587)"><g clip-path="url(#0efb8ab868)"><path fill="#20c2ef" d="M 406.671875 235.820312 L 436.089844 235.820312 L 436.089844 265.277344 L 406.667969 265.277344 Z M 406.671875 235.820312 " fill-opacity="1" fill-rule="nonzero"/></g></g><g clip-path="url(#9eda938785)"><g clip-path="url(#bf929d787e)"><path fill="#000000" d="M 410.277344 228.839844 L 410.277344 204.289062 M 414.6875 228.835938 L 414.6875 204.289062 M 419.144531 228.835938 L 419.144531 204.289062 M 423.601562 228.835938 L 423.601562 204.289062 M 428.058594 228.835938 L 428.058594 204.289062 M 432.46875 228.835938 L 432.46875 204.289062 " fill-opacity="1" fill-rule="nonzero"/></g></g><g clip-path="url(#57520bdc2c)"><g clip-path="url(#e8c39a70b5)"><path stroke-linecap="butt" transform="matrix(1.484389, 0, 0, 1.486244, 222.814025, 196.17484)" fill="none" stroke-linejoin="miter" d="M 126.289882 21.978227 L 126.289882 5.45955 M 129.260906 21.975599 L 129.260906 5.45955 M 132.263509 21.975599 L 132.263509 5.45955 M 135.266112 21.975599 L 135.266112 5.45955 M 138.268715 21.975599 L 138.268715 5.45955 M 141.23974 21.975599 L 141.23974 5.45955 " stroke="#394d54" stroke-width="1.56" stroke-opacity="1" stroke-miterlimit="4"/></g></g><g clip-path="url(#af3b1208f4)"><g clip-path="url(#92a03e1dba)"><path fill="#000000" d="M 410.277344 262.824219 L 410.277344 238.273438 M 414.6875 262.820312 L 414.6875 238.273438 M 419.144531 262.820312 L 419.144531 238.273438 M 423.601562 262.820312 L 423.601562 238.273438 M 428.058594 262.820312 L 428.058594 238.273438 M 432.46875 262.820312 L 432.46875 238.273438 " fill-opacity="1" fill-rule="nonzero"/></g></g><g clip-path="url(#9ec8c2cf5f)"><g clip-path="url(#b324b28bfe)"><path stroke-linecap="butt" transform="matrix(1.484389, 0, 0, 1.486244, 222.814025, 230.159284)" fill="none" stroke-linejoin="miter" d="M 126.289882 21.978181 L 126.289882 5.459504 M 129.260906 21.975553 L 129.260906 5.459504 M 132.263509 21.975553 L 132.263509 5.459504 M 135.266112 21.975553 L 135.266112 5.459504 M 138.268715 21.975553 L 138.268715 5.459504 M 141.23974 21.975553 L 141.23974 5.459504 " stroke="#394d54" stroke-width="1.56" stroke-opacity="1" stroke-miterlimit="4"/></g></g><g clip-path="url(#207936c1fd)"><g clip-path="url(#1412ccda66)"><path fill="#00acd3" d="M 440.613281 265.292969 L 470.03125 265.292969 L 470.03125 235.839844 L 440.609375 235.839844 Z M 440.613281 265.292969 " fill-opacity="1" fill-rule="nonzero"/></g></g><g clip-path="url(#2be84c3e5d)"><g clip-path="url(#1e9fff8fda)"><path fill="#20c2ef" d="M 440.613281 231.292969 L 470.03125 231.292969 L 470.03125 201.839844 L 440.609375 201.839844 Z M 440.613281 231.292969 " fill-opacity="1" fill-rule="nonzero"/></g></g><g clip-path="url(#4114b10f6a)"><g clip-path="url(#3b214a794b)"><path fill="#000000" d="M 444.21875 238.277344 L 444.21875 262.824219 M 448.632812 238.277344 L 448.632812 262.824219 M 453.085938 238.277344 L 453.085938 262.824219 M 457.546875 238.277344 L 457.546875 262.824219 M 462.003906 238.277344 L 462.003906 262.824219 M 466.410156 238.277344 L 466.410156 262.824219 " fill-opacity="1" fill-rule="nonzero"/></g></g><g clip-path="url(#b06ffd3ef2)"><g clip-path="url(#e958251598)"><path stroke-linecap="butt" transform="matrix(1.484389, 0, 0, -1.486244, 256.756079, 270.939879)" fill="none" stroke-linejoin="miter" d="M 126.289445 21.976566 L 126.289445 5.460518 M 129.263101 21.976566 L 129.263101 5.460518 M 132.263073 21.976566 L 132.263073 5.460518 M 135.268307 21.976566 L 135.268307 5.460518 M 138.270911 21.976566 L 138.270911 5.460518 M 141.239303 21.976566 L 141.239303 5.460518 " stroke="#394d54" stroke-width="1.56" stroke-opacity="1" stroke-miterlimit="4"/></g></g><g clip-path="url(#71e2101f8c)"><g clip-path="url(#d60086662a)"><path fill="#000000" d="M 444.21875 204.292969 L 444.21875 228.839844 M 448.632812 204.292969 L 448.632812 228.839844 M 453.085938 204.292969 L 453.085938 228.839844 M 457.546875 204.292969 L 457.546875 228.839844 M 462.003906 204.292969 L 462.003906 228.839844 M 466.410156 204.292969 L 466.410156 228.839844 " fill-opacity="1" fill-rule="nonzero"/></g></g><g clip-path="url(#25f32c003e)"><g clip-path="url(#9cebae1402)"><path stroke-linecap="butt" transform="matrix(1.484389, 0, 0, -1.486244, 256.756079, 236.955423)" fill="none" stroke-linejoin="miter" d="M 126.289445 21.976512 L 126.289445 5.460463 M 129.263101 21.976512 L 129.263101 5.460463 M 132.263073 21.976512 L 132.263073 5.460463 M 135.268307 21.976512 L 135.268307 5.460463 M 138.270911 21.976512 L 138.270911 5.460463 M 141.239303 21.976512 L 141.239303 5.460463 " stroke="#394d54" stroke-width="1.56" stroke-opacity="1" stroke-miterlimit="4"/></g></g><g clip-path="url(#1a61a791dd)"><g clip-path="url(#90f95a0f94)"><path fill="#00acd3" d="M 474.554688 201.824219 L 503.972656 201.824219 L 503.972656 231.277344 L 474.550781 231.277344 Z M 474.554688 201.824219 " fill-opacity="1" fill-rule="nonzero"/></g></g><g clip-path="url(#811ca66cec)"><g clip-path="url(#4fb3a99c5e)"><path fill="#20c2ef" d="M 474.554688 235.820312 L 503.972656 235.820312 L 503.972656 265.277344 L 474.550781 265.277344 Z M 474.554688 235.820312 " fill-opacity="1" fill-rule="nonzero"/></g></g><g clip-path="url(#b82adb7591)"><g clip-path="url(#5cece325fe)"><path fill="#000000" d="M 478.160156 228.839844 L 478.160156 204.289062 M 482.574219 228.835938 L 482.574219 204.289062 M 487.03125 228.835938 L 487.03125 204.289062 M 491.488281 228.835938 L 491.488281 204.289062 M 495.945312 228.835938 L 495.945312 204.289062 M 500.351562 228.835938 L 500.351562 204.289062 " fill-opacity="1" fill-rule="nonzero"/></g></g><g clip-path="url(#d399f2c277)"><g clip-path="url(#e97d2b8d59)"><path stroke-linecap="butt" transform="matrix(1.484389, 0, 0, 1.486244, 290.698104, 196.17484)" fill="none" stroke-linejoin="miter" d="M 126.289028 21.978227 L 126.289028 5.45955 M 129.262684 21.975599 L 129.262684 5.45955 M 132.265287 21.975599 L 132.265287 5.45955 M 135.26789 21.975599 L 135.26789 5.45955 M 138.270493 21.975599 L 138.270493 5.45955 M 141.238886 21.975599 L 141.238886 5.45955 " stroke="#394d54" stroke-width="1.56" stroke-opacity="1" stroke-miterlimit="4"/></g></g><g clip-path="url(#6d7d29c3d0)"><g clip-path="url(#a340fb770e)"><path fill="#000000" d="M 478.160156 262.824219 L 478.160156 238.273438 M 482.574219 262.820312 L 482.574219 238.273438 M 487.03125 262.820312 L 487.03125 238.273438 M 491.488281 262.820312 L 491.488281 238.273438 M 495.945312 262.820312 L 495.945312 238.273438 M 500.351562 262.820312 L 500.351562 238.273438 " fill-opacity="1" fill-rule="nonzero"/></g></g><g clip-path="url(#d4a20eea75)"><g clip-path="url(#c4fb94270b)"><path stroke-linecap="butt" transform="matrix(1.484389, 0, 0, 1.486244, 290.698104, 230.159284)" fill="none" stroke-linejoin="miter" d="M 126.289028 21.978181 L 126.289028 5.459504 M 129.262684 21.975553 L 129.262684 5.459504 M 132.265287 21.975553 L 132.265287 5.459504 M 135.26789 21.975553 L 135.26789 5.459504 M 138.270493 21.975553 L 138.270493 5.459504 M 141.238886 21.975553 L 141.238886 5.459504 " stroke="#394d54" stroke-width="1.56" stroke-opacity="1" stroke-miterlimit="4"/></g></g><g clip-path="url(#00ff9951bf)"><g clip-path="url(#28b5f00d8b)"><path fill="#00acd3" d="M 508.496094 265.292969 L 537.914062 265.292969 L 537.914062 235.839844 L 508.492188 235.839844 Z M 508.496094 265.292969 " fill-opacity="1" fill-rule="nonzero"/></g></g><g clip-path="url(#c731631e8e)"><g clip-path="url(#f53f03dcde)"><path fill="#20c2ef" d="M 508.496094 231.292969 L 537.914062 231.292969 L 537.914062 201.839844 L 508.492188 201.839844 Z M 508.496094 231.292969 " fill-opacity="1" fill-rule="nonzero"/></g></g><g clip-path="url(#dd5b2f268c)"><g clip-path="url(#ca26966350)"><path fill="#000000" d="M 512.105469 238.277344 L 512.105469 262.824219 M 516.515625 238.277344 L 516.515625 262.824219 M 520.972656 238.277344 L 520.972656 262.824219 M 525.429688 238.277344 L 525.429688 262.824219 M 529.886719 238.277344 L 529.886719 262.824219 M 534.296875 238.277344 L 534.296875 262.824219 " fill-opacity="1" fill-rule="nonzero"/></g></g><g clip-path="url(#168759938f)"><g clip-path="url(#27ba00a484)"><path stroke-linecap="butt" transform="matrix(1.484389, 0, 0, -1.486244, 324.640132, 270.939879)" fill="none" stroke-linejoin="miter" d="M 126.291241 21.976566 L 126.291241 5.460518 M 129.262265 21.976566 L 129.262265 5.460518 M 132.264868 21.976566 L 132.264868 5.460518 M 135.267472 21.976566 L 135.267472 5.460518 M 138.270075 21.976566 L 138.270075 5.460518 M 141.241099 21.976566 L 141.241099 5.460518 " stroke="#394d54" stroke-width="1.56" stroke-opacity="1" stroke-miterlimit="4"/></g></g><g clip-path="url(#4a89e4dc32)"><g clip-path="url(#4e6eded7a8)"><path fill="#000000" d="M 512.105469 204.292969 L 512.105469 228.839844 M 516.515625 204.292969 L 516.515625 228.839844 M 520.972656 204.292969 L 520.972656 228.839844 M 525.429688 204.292969 L 525.429688 228.839844 M 529.886719 204.292969 L 529.886719 228.839844 M 534.296875 204.292969 L 534.296875 228.839844 " fill-opacity="1" fill-rule="nonzero"/></g></g><g clip-path="url(#6518964b52)"><g clip-path="url(#164d80fa49)"><path stroke-linecap="butt" transform="matrix(1.484389, 0, 0, -1.486244, 324.640132, 236.955423)" fill="none" stroke-linejoin="miter" d="M 126.291241 21.976512 L 126.291241 5.460463 M 129.262265 21.976512 L 129.262265 5.460463 M 132.264868 21.976512 L 132.264868 5.460463 M 135.267472 21.976512 L 135.267472 5.460463 M 138.270075 21.976512 L 138.270075 5.460463 M 141.241099 21.976512 L 141.241099 5.460463 " stroke="#394d54" stroke-width="1.56" stroke-opacity="1" stroke-miterlimit="4"/></g></g><g clip-path="url(#69a3b3b8be)"><g clip-path="url(#349bfa88c2)"><path fill="#17b5eb" d="M 619.59375 243.011719 C 621.871094 225.304688 608.632812 211.390625 600.425781 204.789062 C 590.964844 215.738281 589.496094 244.4375 604.335938 256.519531 C 596.054688 263.886719 578.601562 270.5625 560.730469 270.5625 L 341.160156 270.5625 C 339.421875 289.242188 341.160156 379.183594 341.160156 379.183594 L 663.273438 379.183594 L 661.808594 243.304688 C 647.855469 235.242188 629.917969 237.8125 619.585938 243.011719 " fill-opacity="1" fill-rule="nonzero"/></g></g><g clip-path="url(#826593a617)"><g clip-path="url(#db2e7d2f76)"><path fill="#000000" d="M 341.167969 294.464844 L 341.167969 379.183594 L 663.28125 379.183594 L 663.28125 294.464844 " fill-opacity="0.17" fill-rule="nonzero"/></g></g><g clip-path="url(#f8c3019030)"><g clip-path="url(#759747b68a)"><path fill="#d4edf1" d="M 455.820312 371.601562 C 435.722656 362.054688 424.691406 349.070312 418.554688 334.902344 L 357.496094 337.5625 L 388.667969 379.175781 L 455.816406 371.597656 " fill-opacity="1" fill-rule="nonzero"/></g></g><g clip-path="url(#b83ae77eff)"><g clip-path="url(#250600de29)"><path fill="#000000" d="M 620.976562 242.355469 L 620.976562 242.398438 C 590.011719 282.378906 545.59375 317.277344 497.910156 335.617188 C 455.375 351.976562 418.289062 352.054688 392.703125 338.917969 C 389.949219 337.359375 387.246094 335.628906 384.539062 333.996094 C 365.78125 320.867188 355.21875 299.15625 356.105469 270.550781 L 341.171875 270.550781 L 341.171875 379.183594 L 663.285156 379.183594 L 663.285156 236.503906 L 626.175781 236.503906 Z M 620.976562 242.355469 " fill-opacity="0.085" fill-rule="nonzero"/></g></g><path stroke-linecap="round" transform="matrix(8.038499, 0, 0, 8.048542, 266.015874, 258.756806)" fill="none" stroke-linejoin="miter" d="M 11.495916 9.613183 C 14.112232 9.755872 16.903001 9.78305 19.33806 9.019131 " stroke="#394d54" stroke-width="0.628" stroke-opacity="1" stroke-miterlimit="4"/><path fill="#d4edf1" d="M 442.355469 321.15625 C 442.355469 321.691406 442.304688 322.21875 442.199219 322.742188 C 442.09375 323.265625 441.941406 323.769531 441.738281 324.261719 C 441.53125 324.757812 441.28125 325.222656 440.988281 325.667969 C 440.691406 326.109375 440.355469 326.519531 439.976562 326.898438 C 439.601562 327.273438 439.191406 327.609375 438.75 327.90625 C 438.308594 328.203125 437.839844 328.453125 437.347656 328.65625 C 436.855469 328.863281 436.347656 329.015625 435.828125 329.121094 C 435.304688 329.226562 434.777344 329.277344 434.246094 329.277344 C 433.710938 329.277344 433.183594 329.226562 432.664062 329.121094 C 432.140625 329.019531 431.632812 328.863281 431.140625 328.660156 C 430.648438 328.457031 430.179688 328.207031 429.738281 327.910156 C 429.292969 327.613281 428.882812 327.277344 428.507812 326.898438 C 428.128906 326.523438 427.792969 326.113281 427.496094 325.667969 C 427.203125 325.226562 426.953125 324.757812 426.746094 324.265625 C 426.542969 323.773438 426.386719 323.265625 426.285156 322.742188 C 426.179688 322.21875 426.128906 321.691406 426.125 321.15625 C 426.125 320.625 426.179688 320.09375 426.28125 319.570312 C 426.386719 319.046875 426.539062 318.539062 426.746094 318.046875 C 426.949219 317.554688 427.199219 317.085938 427.496094 316.640625 C 427.792969 316.195312 428.128906 315.785156 428.503906 315.410156 C 428.882812 315.03125 429.292969 314.695312 429.734375 314.398438 C 430.179688 314.101562 430.644531 313.851562 431.136719 313.648438 C 431.632812 313.441406 432.140625 313.289062 432.660156 313.183594 C 433.183594 313.082031 433.710938 313.027344 434.246094 313.027344 C 434.777344 313.027344 435.304688 313.082031 435.828125 313.1875 C 436.351562 313.289062 436.859375 313.445312 437.351562 313.648438 C 437.84375 313.855469 438.308594 314.105469 438.753906 314.402344 C 439.195312 314.699219 439.605469 315.035156 439.980469 315.410156 C 440.359375 315.789062 440.695312 316.199219 440.988281 316.644531 C 441.285156 317.085938 441.535156 317.554688 441.738281 318.046875 C 441.941406 318.542969 442.097656 319.050781 442.199219 319.570312 C 442.304688 320.09375 442.355469 320.625 442.355469 321.15625 Z M 442.355469 321.15625 " fill-opacity="1" fill-rule="nonzero"/><path fill="#394d54" d="M 436.433594 315.742188 C 435.726562 316.144531 435.242188 316.914062 435.242188 317.800781 C 435.242188 319.113281 436.304688 320.175781 437.613281 320.175781 C 438.515625 320.175781 439.222656 319.675781 439.703125 318.9375 C 439.996094 319.648438 440.144531 320.394531 440.144531 321.164062 C 440.144531 324.382812 437.542969 326.984375 434.335938 326.984375 C 431.125 326.984375 428.523438 324.375 428.523438 321.164062 C 428.523438 317.953125 431.125 315.347656 434.335938 315.347656 C 435.0625 315.34375 435.761719 315.476562 436.441406 315.742188 Z M 290.695312 296.183594 L 668.214844 296.183594 C 659.992188 294.089844 642.210938 291.351562 645.144531 280.488281 C 630.191406 297.808594 594.148438 292.5625 585.054688 284.09375 C 574.925781 298.804688 515.949219 293.210938 511.839844 281.679688 C 499.140625 296.601562 459.792969 296.601562 447.089844 281.679688 C 442.976562 293.140625 384.003906 298.742188 373.941406 284.09375 C 364.761719 292.5625 328.714844 297.816406 313.765625 280.488281 C 316.699219 291.273438 298.910156 294.171875 290.695312 296.183594 " fill-opacity="1" fill-rule="nonzero"/></svg>