<svg xmlns="http://www.w3.org/2000/svg" xmlns:xlink="http://www.w3.org/1999/xlink" width="1280" zoomAndPan="magnify" viewBox="0 0 960 540.000001" height="720" preserveAspectRatio="xMidYMid meet" version="1.0"><defs><clipPath id="551d811e8c"><path d="M 0.886719 0 L 959.113281 0 L 959.113281 539 L 0.886719 539 Z M 0.886719 0 " clip-rule="nonzero"/></clipPath><clipPath id="af7962648f"><path d="M 145 162 L 478 162 L 478 377.433594 L 145 377.433594 Z M 145 162 " clip-rule="nonzero"/></clipPath><clipPath id="2b1b69f6b3"><path d="M 282 167 L 313 167 L 313 198 L 282 198 Z M 282 167 " clip-rule="nonzero"/></clipPath><clipPath id="7e2246d05e"><path d="M 211.867188 165.164062 L 211.867188 233.53125 L 179.210938 233.53125 L 179.210938 267.714844 L 151.867188 267.714844 L 151.5625 270.6875 C 149.855469 289.308594 153.101562 306.488281 160.5625 321.175781 L 163.066406 325.675781 C 164.550781 328.378906 166.332031 330.914062 168.171875 333.386719 C 170.007812 335.863281 170.671875 337.226562 171.835938 338.867188 C 191.558594 361.042969 220.964844 371.746094 254.914062 371.746094 C 330.09375 371.746094 393.902344 338.398438 422.144531 263.480469 C 442.167969 265.539062 461.390625 260.394531 470.148438 243.277344 C 456.195312 235.21875 438.269531 237.800781 427.9375 243 L 455.3125 165.15625 L 348.433594 233.523438 L 314.292969 233.523438 L 314.292969 165.15625 Z M 211.867188 165.164062 " clip-rule="nonzero"/></clipPath><clipPath id="57946ba75e"><path d="M 286 170 L 309 170 L 309 195 L 286 195 Z M 286 170 " clip-rule="nonzero"/></clipPath><clipPath id="4c3ff96a2b"><path d="M 211.867188 165.164062 L 211.867188 233.53125 L 179.210938 233.53125 L 179.210938 267.714844 L 151.867188 267.714844 L 151.5625 270.6875 C 149.855469 289.308594 153.101562 306.488281 160.5625 321.175781 L 163.066406 325.675781 C 164.550781 328.378906 166.332031 330.914062 168.171875 333.386719 C 170.007812 335.863281 170.671875 337.226562 171.835938 338.867188 C 191.558594 361.042969 220.964844 371.746094 254.914062 371.746094 C 330.09375 371.746094 393.902344 338.398438 422.144531 263.480469 C 442.167969 265.539062 461.390625 260.394531 470.148438 243.277344 C 456.195312 235.21875 438.269531 237.800781 427.9375 243 L 455.3125 165.15625 L 348.433594 233.523438 L 314.292969 233.523438 L 314.292969 165.15625 Z M 211.867188 165.164062 " clip-rule="nonzero"/></clipPath><clipPath id="4829b6cfc6"><path d="M 285 169 L 310 169 L 310 197 L 285 197 Z M 285 169 " clip-rule="nonzero"/></clipPath><clipPath id="58ecf5ba27"><path d="M 211.867188 165.164062 L 211.867188 233.53125 L 179.210938 233.53125 L 179.210938 267.714844 L 151.867188 267.714844 L 151.5625 270.6875 C 149.855469 289.308594 153.101562 306.488281 160.5625 321.175781 L 163.066406 325.675781 C 164.550781 328.378906 166.332031 330.914062 168.171875 333.386719 C 170.007812 335.863281 170.671875 337.226562 171.835938 338.867188 C 191.558594 361.042969 220.964844 371.746094 254.914062 371.746094 C 330.09375 371.746094 393.902344 338.398438 422.144531 263.480469 C 442.167969 265.539062 461.390625 260.394531 470.148438 243.277344 C 456.195312 235.21875 438.269531 237.800781 427.9375 243 L 455.3125 165.15625 L 348.433594 233.523438 L 314.292969 233.523438 L 314.292969 165.15625 Z M 211.867188 165.164062 " clip-rule="nonzero"/></clipPath><clipPath id="463859c131"><path d="M 316 167 L 347 167 L 347 198 L 316 198 Z M 316 167 " clip-rule="nonzero"/></clipPath><clipPath id="449da2e260"><path d="M 211.867188 165.164062 L 211.867188 233.53125 L 179.210938 233.53125 L 179.210938 267.714844 L 151.867188 267.714844 L 151.5625 270.6875 C 149.855469 289.308594 153.101562 306.488281 160.5625 321.175781 L 163.066406 325.675781 C 164.550781 328.378906 166.332031 330.914062 168.171875 333.386719 C 170.007812 335.863281 170.671875 337.226562 171.835938 338.867188 C 191.558594 361.042969 220.964844 371.746094 254.914062 371.746094 C 330.09375 371.746094 393.902344 338.398438 422.144531 263.480469 C 442.167969 265.539062 461.390625 260.394531 470.148438 243.277344 C 456.195312 235.21875 438.269531 237.800781 427.9375 243 L 455.3125 165.15625 L 348.433594 233.523438 L 314.292969 233.523438 L 314.292969 165.15625 Z M 211.867188 165.164062 " clip-rule="nonzero"/></clipPath><clipPath id="5dd8ff7d44"><path d="M 320 170 L 343 170 L 343 195 L 320 195 Z M 320 170 " clip-rule="nonzero"/></clipPath><clipPath id="764c59ddb7"><path d="M 211.867188 165.164062 L 211.867188 233.53125 L 179.210938 233.53125 L 179.210938 267.714844 L 151.867188 267.714844 L 151.5625 270.6875 C 149.855469 289.308594 153.101562 306.488281 160.5625 321.175781 L 163.066406 325.675781 C 164.550781 328.378906 166.332031 330.914062 168.171875 333.386719 C 170.007812 335.863281 170.671875 337.226562 171.835938 338.867188 C 191.558594 361.042969 220.964844 371.746094 254.914062 371.746094 C 330.09375 371.746094 393.902344 338.398438 422.144531 263.480469 C 442.167969 265.539062 461.390625 260.394531 470.148438 243.277344 C 456.195312 235.21875 438.269531 237.800781 427.9375 243 L 455.3125 165.15625 L 348.433594 233.523438 L 314.292969 233.523438 L 314.292969 165.15625 Z M 211.867188 165.164062 " clip-rule="nonzero"/></clipPath><clipPath id="95bce060c0"><path d="M 319 169 L 344 169 L 344 197 L 319 197 Z M 319 169 " clip-rule="nonzero"/></clipPath><clipPath id="f7d6663dd9"><path d="M 211.867188 165.164062 L 211.867188 233.53125 L 179.210938 233.53125 L 179.210938 267.714844 L 151.867188 267.714844 L 151.5625 270.6875 C 149.855469 289.308594 153.101562 306.488281 160.5625 321.175781 L 163.066406 325.675781 C 164.550781 328.378906 166.332031 330.914062 168.171875 333.386719 C 170.007812 335.863281 170.671875 337.226562 171.835938 338.867188 C 191.558594 361.042969 220.964844 371.746094 254.914062 371.746094 C 330.09375 371.746094 393.902344 338.398438 422.144531 263.480469 C 442.167969 265.539062 461.390625 260.394531 470.148438 243.277344 C 456.195312 235.21875 438.269531 237.800781 427.9375 243 L 455.3125 165.15625 L 348.433594 233.523438 L 314.292969 233.523438 L 314.292969 165.15625 Z M 211.867188 165.164062 " clip-rule="nonzero"/></clipPath><clipPath id="4b02804458"><path d="M 151.007812 201 L 177 201 L 177 232 L 151.007812 232 Z M 151.007812 201 " clip-rule="nonzero"/></clipPath><clipPath id="36315e7efe"><path d="M 211.867188 165.164062 L 211.867188 233.53125 L 179.210938 233.53125 L 179.210938 267.714844 L 151.867188 267.714844 L 151.5625 270.6875 C 149.855469 289.308594 153.101562 306.488281 160.5625 321.175781 L 163.066406 325.675781 C 164.550781 328.378906 166.332031 330.914062 168.171875 333.386719 C 170.007812 335.863281 170.671875 337.226562 171.835938 338.867188 C 191.558594 361.042969 220.964844 371.746094 254.914062 371.746094 C 330.09375 371.746094 393.902344 338.398438 422.144531 263.480469 C 442.167969 265.539062 461.390625 260.394531 470.148438 243.277344 C 456.195312 235.21875 438.269531 237.800781 427.9375 243 L 455.3125 165.15625 L 348.433594 233.523438 L 314.292969 233.523438 L 314.292969 165.15625 Z M 211.867188 165.164062 " clip-rule="nonzero"/></clipPath><clipPath id="1772296733"><path d="M 151.007812 235 L 177 235 L 177 266 L 151.007812 266 Z M 151.007812 235 " clip-rule="nonzero"/></clipPath><clipPath id="d42e66a4fd"><path d="M 211.867188 165.164062 L 211.867188 233.53125 L 179.210938 233.53125 L 179.210938 267.714844 L 151.867188 267.714844 L 151.5625 270.6875 C 149.855469 289.308594 153.101562 306.488281 160.5625 321.175781 L 163.066406 325.675781 C 164.550781 328.378906 166.332031 330.914062 168.171875 333.386719 C 170.007812 335.863281 170.671875 337.226562 171.835938 338.867188 C 191.558594 361.042969 220.964844 371.746094 254.914062 371.746094 C 330.09375 371.746094 393.902344 338.398438 422.144531 263.480469 C 442.167969 265.539062 461.390625 260.394531 470.148438 243.277344 C 456.195312 235.21875 438.269531 237.800781 427.9375 243 L 455.3125 165.15625 L 348.433594 233.523438 L 314.292969 233.523438 L 314.292969 165.15625 Z M 211.867188 165.164062 " clip-rule="nonzero"/></clipPath><clipPath id="f5a5104ebb"><path d="M 151.007812 204 L 173 204 L 173 229 L 151.007812 229 Z M 151.007812 204 " clip-rule="nonzero"/></clipPath><clipPath id="240dd1ba43"><path d="M 211.867188 165.164062 L 211.867188 233.53125 L 179.210938 233.53125 L 179.210938 267.714844 L 151.867188 267.714844 L 151.5625 270.6875 C 149.855469 289.308594 153.101562 306.488281 160.5625 321.175781 L 163.066406 325.675781 C 164.550781 328.378906 166.332031 330.914062 168.171875 333.386719 C 170.007812 335.863281 170.671875 337.226562 171.835938 338.867188 C 191.558594 361.042969 220.964844 371.746094 254.914062 371.746094 C 330.09375 371.746094 393.902344 338.398438 422.144531 263.480469 C 442.167969 265.539062 461.390625 260.394531 470.148438 243.277344 C 456.195312 235.21875 438.269531 237.800781 427.9375 243 L 455.3125 165.15625 L 348.433594 233.523438 L 314.292969 233.523438 L 314.292969 165.15625 Z M 211.867188 165.164062 " clip-rule="nonzero"/></clipPath><clipPath id="77fec46587"><path d="M 151.007812 203 L 175 203 L 175 230 L 151.007812 230 Z M 151.007812 203 " clip-rule="nonzero"/></clipPath><clipPath id="6fbb0bdf90"><path d="M 211.867188 165.164062 L 211.867188 233.53125 L 179.210938 233.53125 L 179.210938 267.714844 L 151.867188 267.714844 L 151.5625 270.6875 C 149.855469 289.308594 153.101562 306.488281 160.5625 321.175781 L 163.066406 325.675781 C 164.550781 328.378906 166.332031 330.914062 168.171875 333.386719 C 170.007812 335.863281 170.671875 337.226562 171.835938 338.867188 C 191.558594 361.042969 220.964844 371.746094 254.914062 371.746094 C 330.09375 371.746094 393.902344 338.398438 422.144531 263.480469 C 442.167969 265.539062 461.390625 260.394531 470.148438 243.277344 C 456.195312 235.21875 438.269531 237.800781 427.9375 243 L 455.3125 165.15625 L 348.433594 233.523438 L 314.292969 233.523438 L 314.292969 165.15625 Z M 211.867188 165.164062 " clip-rule="nonzero"/></clipPath><clipPath id="3792821ba5"><path d="M 151.007812 238 L 173 238 L 173 263 L 151.007812 263 Z M 151.007812 238 " clip-rule="nonzero"/></clipPath><clipPath id="8a940d76bf"><path d="M 211.867188 165.164062 L 211.867188 233.53125 L 179.210938 233.53125 L 179.210938 267.714844 L 151.867188 267.714844 L 151.5625 270.6875 C 149.855469 289.308594 153.101562 306.488281 160.5625 321.175781 L 163.066406 325.675781 C 164.550781 328.378906 166.332031 330.914062 168.171875 333.386719 C 170.007812 335.863281 170.671875 337.226562 171.835938 338.867188 C 191.558594 361.042969 220.964844 371.746094 254.914062 371.746094 C 330.09375 371.746094 393.902344 338.398438 422.144531 263.480469 C 442.167969 265.539062 461.390625 260.394531 470.148438 243.277344 C 456.195312 235.21875 438.269531 237.800781 427.9375 243 L 455.3125 165.15625 L 348.433594 233.523438 L 314.292969 233.523438 L 314.292969 165.15625 Z M 211.867188 165.164062 " clip-rule="nonzero"/></clipPath><clipPath id="04a68f4da5"><path d="M 151.007812 237 L 175 237 L 175 264 L 151.007812 264 Z M 151.007812 237 " clip-rule="nonzero"/></clipPath><clipPath id="35b7ba789a"><path d="M 211.867188 165.164062 L 211.867188 233.53125 L 179.210938 233.53125 L 179.210938 267.714844 L 151.867188 267.714844 L 151.5625 270.6875 C 149.855469 289.308594 153.101562 306.488281 160.5625 321.175781 L 163.066406 325.675781 C 164.550781 328.378906 166.332031 330.914062 168.171875 333.386719 C 170.007812 335.863281 170.671875 337.226562 171.835938 338.867188 C 191.558594 361.042969 220.964844 371.746094 254.914062 371.746094 C 330.09375 371.746094 393.902344 338.398438 422.144531 263.480469 C 442.167969 265.539062 461.390625 260.394531 470.148438 243.277344 C 456.195312 235.21875 438.269531 237.800781 427.9375 243 L 455.3125 165.15625 L 348.433594 233.523438 L 314.292969 233.523438 L 314.292969 165.15625 Z M 211.867188 165.164062 " clip-rule="nonzero"/></clipPath><clipPath id="8d07cf8b7d"><path d="M 181 235 L 211 235 L 211 266 L 181 266 Z M 181 235 " clip-rule="nonzero"/></clipPath><clipPath id="e48fdfa18f"><path d="M 211.867188 165.164062 L 211.867188 233.53125 L 179.210938 233.53125 L 179.210938 267.714844 L 151.867188 267.714844 L 151.5625 270.6875 C 149.855469 289.308594 153.101562 306.488281 160.5625 321.175781 L 163.066406 325.675781 C 164.550781 328.378906 166.332031 330.914062 168.171875 333.386719 C 170.007812 335.863281 170.671875 337.226562 171.835938 338.867188 C 191.558594 361.042969 220.964844 371.746094 254.914062 371.746094 C 330.09375 371.746094 393.902344 338.398438 422.144531 263.480469 C 442.167969 265.539062 461.390625 260.394531 470.148438 243.277344 C 456.195312 235.21875 438.269531 237.800781 427.9375 243 L 455.3125 165.15625 L 348.433594 233.523438 L 314.292969 233.523438 L 314.292969 165.15625 Z M 211.867188 165.164062 " clip-rule="nonzero"/></clipPath><clipPath id="7293ae4b6d"><path d="M 181 201 L 211 201 L 211 232 L 181 232 Z M 181 201 " clip-rule="nonzero"/></clipPath><clipPath id="b038a7db96"><path d="M 211.867188 165.164062 L 211.867188 233.53125 L 179.210938 233.53125 L 179.210938 267.714844 L 151.867188 267.714844 L 151.5625 270.6875 C 149.855469 289.308594 153.101562 306.488281 160.5625 321.175781 L 163.066406 325.675781 C 164.550781 328.378906 166.332031 330.914062 168.171875 333.386719 C 170.007812 335.863281 170.671875 337.226562 171.835938 338.867188 C 191.558594 361.042969 220.964844 371.746094 254.914062 371.746094 C 330.09375 371.746094 393.902344 338.398438 422.144531 263.480469 C 442.167969 265.539062 461.390625 260.394531 470.148438 243.277344 C 456.195312 235.21875 438.269531 237.800781 427.9375 243 L 455.3125 165.15625 L 348.433594 233.523438 L 314.292969 233.523438 L 314.292969 165.15625 Z M 211.867188 165.164062 " clip-rule="nonzero"/></clipPath><clipPath id="ac84375d86"><path d="M 184 238 L 207 238 L 207 263 L 184 263 Z M 184 238 " clip-rule="nonzero"/></clipPath><clipPath id="c6dc8122e3"><path d="M 211.867188 165.164062 L 211.867188 233.53125 L 179.210938 233.53125 L 179.210938 267.714844 L 151.867188 267.714844 L 151.5625 270.6875 C 149.855469 289.308594 153.101562 306.488281 160.5625 321.175781 L 163.066406 325.675781 C 164.550781 328.378906 166.332031 330.914062 168.171875 333.386719 C 170.007812 335.863281 170.671875 337.226562 171.835938 338.867188 C 191.558594 361.042969 220.964844 371.746094 254.914062 371.746094 C 330.09375 371.746094 393.902344 338.398438 422.144531 263.480469 C 442.167969 265.539062 461.390625 260.394531 470.148438 243.277344 C 456.195312 235.21875 438.269531 237.800781 427.9375 243 L 455.3125 165.15625 L 348.433594 233.523438 L 314.292969 233.523438 L 314.292969 165.15625 Z M 211.867188 165.164062 " clip-rule="nonzero"/></clipPath><clipPath id="ab53fefd0d"><path d="M 183 237 L 209 237 L 209 264 L 183 264 Z M 183 237 " clip-rule="nonzero"/></clipPath><clipPath id="c907ac4560"><path d="M 211.867188 165.164062 L 211.867188 233.53125 L 179.210938 233.53125 L 179.210938 267.714844 L 151.867188 267.714844 L 151.5625 270.6875 C 149.855469 289.308594 153.101562 306.488281 160.5625 321.175781 L 163.066406 325.675781 C 164.550781 328.378906 166.332031 330.914062 168.171875 333.386719 C 170.007812 335.863281 170.671875 337.226562 171.835938 338.867188 C 191.558594 361.042969 220.964844 371.746094 254.914062 371.746094 C 330.09375 371.746094 393.902344 338.398438 422.144531 263.480469 C 442.167969 265.539062 461.390625 260.394531 470.148438 243.277344 C 456.195312 235.21875 438.269531 237.800781 427.9375 243 L 455.3125 165.15625 L 348.433594 233.523438 L 314.292969 233.523438 L 314.292969 165.15625 Z M 211.867188 165.164062 " clip-rule="nonzero"/></clipPath><clipPath id="a065f6abea"><path d="M 184 204 L 207 204 L 207 229 L 184 229 Z M 184 204 " clip-rule="nonzero"/></clipPath><clipPath id="432c725340"><path d="M 211.867188 165.164062 L 211.867188 233.53125 L 179.210938 233.53125 L 179.210938 267.714844 L 151.867188 267.714844 L 151.5625 270.6875 C 149.855469 289.308594 153.101562 306.488281 160.5625 321.175781 L 163.066406 325.675781 C 164.550781 328.378906 166.332031 330.914062 168.171875 333.386719 C 170.007812 335.863281 170.671875 337.226562 171.835938 338.867188 C 191.558594 361.042969 220.964844 371.746094 254.914062 371.746094 C 330.09375 371.746094 393.902344 338.398438 422.144531 263.480469 C 442.167969 265.539062 461.390625 260.394531 470.148438 243.277344 C 456.195312 235.21875 438.269531 237.800781 427.9375 243 L 455.3125 165.15625 L 348.433594 233.523438 L 314.292969 233.523438 L 314.292969 165.15625 Z M 211.867188 165.164062 " clip-rule="nonzero"/></clipPath><clipPath id="c5674fc245"><path d="M 183 203 L 209 203 L 209 230 L 183 230 Z M 183 203 " clip-rule="nonzero"/></clipPath><clipPath id="68dbae88d4"><path d="M 211.867188 165.164062 L 211.867188 233.53125 L 179.210938 233.53125 L 179.210938 267.714844 L 151.867188 267.714844 L 151.5625 270.6875 C 149.855469 289.308594 153.101562 306.488281 160.5625 321.175781 L 163.066406 325.675781 C 164.550781 328.378906 166.332031 330.914062 168.171875 333.386719 C 170.007812 335.863281 170.671875 337.226562 171.835938 338.867188 C 191.558594 361.042969 220.964844 371.746094 254.914062 371.746094 C 330.09375 371.746094 393.902344 338.398438 422.144531 263.480469 C 442.167969 265.539062 461.390625 260.394531 470.148438 243.277344 C 456.195312 235.21875 438.269531 237.800781 427.9375 243 L 455.3125 165.15625 L 348.433594 233.523438 L 314.292969 233.523438 L 314.292969 165.15625 Z M 211.867188 165.164062 " clip-rule="nonzero"/></clipPath><clipPath id="923aaf3daf"><path d="M 215 201 L 245 201 L 245 232 L 215 232 Z M 215 201 " clip-rule="nonzero"/></clipPath><clipPath id="f330070d30"><path d="M 211.867188 165.164062 L 211.867188 233.53125 L 179.210938 233.53125 L 179.210938 267.714844 L 151.867188 267.714844 L 151.5625 270.6875 C 149.855469 289.308594 153.101562 306.488281 160.5625 321.175781 L 163.066406 325.675781 C 164.550781 328.378906 166.332031 330.914062 168.171875 333.386719 C 170.007812 335.863281 170.671875 337.226562 171.835938 338.867188 C 191.558594 361.042969 220.964844 371.746094 254.914062 371.746094 C 330.09375 371.746094 393.902344 338.398438 422.144531 263.480469 C 442.167969 265.539062 461.390625 260.394531 470.148438 243.277344 C 456.195312 235.21875 438.269531 237.800781 427.9375 243 L 455.3125 165.15625 L 348.433594 233.523438 L 314.292969 233.523438 L 314.292969 165.15625 Z M 211.867188 165.164062 " clip-rule="nonzero"/></clipPath><clipPath id="bf0397ea25"><path d="M 215 235 L 245 235 L 245 266 L 215 266 Z M 215 235 " clip-rule="nonzero"/></clipPath><clipPath id="ad6907b6ac"><path d="M 211.867188 165.164062 L 211.867188 233.53125 L 179.210938 233.53125 L 179.210938 267.714844 L 151.867188 267.714844 L 151.5625 270.6875 C 149.855469 289.308594 153.101562 306.488281 160.5625 321.175781 L 163.066406 325.675781 C 164.550781 328.378906 166.332031 330.914062 168.171875 333.386719 C 170.007812 335.863281 170.671875 337.226562 171.835938 338.867188 C 191.558594 361.042969 220.964844 371.746094 254.914062 371.746094 C 330.09375 371.746094 393.902344 338.398438 422.144531 263.480469 C 442.167969 265.539062 461.390625 260.394531 470.148438 243.277344 C 456.195312 235.21875 438.269531 237.800781 427.9375 243 L 455.3125 165.15625 L 348.433594 233.523438 L 314.292969 233.523438 L 314.292969 165.15625 Z M 211.867188 165.164062 " clip-rule="nonzero"/></clipPath><clipPath id="cfff0dc358"><path d="M 218 204 L 241 204 L 241 229 L 218 229 Z M 218 204 " clip-rule="nonzero"/></clipPath><clipPath id="5e39ce24c3"><path d="M 211.867188 165.164062 L 211.867188 233.53125 L 179.210938 233.53125 L 179.210938 267.714844 L 151.867188 267.714844 L 151.5625 270.6875 C 149.855469 289.308594 153.101562 306.488281 160.5625 321.175781 L 163.066406 325.675781 C 164.550781 328.378906 166.332031 330.914062 168.171875 333.386719 C 170.007812 335.863281 170.671875 337.226562 171.835938 338.867188 C 191.558594 361.042969 220.964844 371.746094 254.914062 371.746094 C 330.09375 371.746094 393.902344 338.398438 422.144531 263.480469 C 442.167969 265.539062 461.390625 260.394531 470.148438 243.277344 C 456.195312 235.21875 438.269531 237.800781 427.9375 243 L 455.3125 165.15625 L 348.433594 233.523438 L 314.292969 233.523438 L 314.292969 165.15625 Z M 211.867188 165.164062 " clip-rule="nonzero"/></clipPath><clipPath id="a427d4dba1"><path d="M 217 203 L 242 203 L 242 230 L 217 230 Z M 217 203 " clip-rule="nonzero"/></clipPath><clipPath id="9f2d956eb5"><path d="M 211.867188 165.164062 L 211.867188 233.53125 L 179.210938 233.53125 L 179.210938 267.714844 L 151.867188 267.714844 L 151.5625 270.6875 C 149.855469 289.308594 153.101562 306.488281 160.5625 321.175781 L 163.066406 325.675781 C 164.550781 328.378906 166.332031 330.914062 168.171875 333.386719 C 170.007812 335.863281 170.671875 337.226562 171.835938 338.867188 C 191.558594 361.042969 220.964844 371.746094 254.914062 371.746094 C 330.09375 371.746094 393.902344 338.398438 422.144531 263.480469 C 442.167969 265.539062 461.390625 260.394531 470.148438 243.277344 C 456.195312 235.21875 438.269531 237.800781 427.9375 243 L 455.3125 165.15625 L 348.433594 233.523438 L 314.292969 233.523438 L 314.292969 165.15625 Z M 211.867188 165.164062 " clip-rule="nonzero"/></clipPath><clipPath id="09f81684b0"><path d="M 218 238 L 241 238 L 241 263 L 218 263 Z M 218 238 " clip-rule="nonzero"/></clipPath><clipPath id="e9200832a8"><path d="M 211.867188 165.164062 L 211.867188 233.53125 L 179.210938 233.53125 L 179.210938 267.714844 L 151.867188 267.714844 L 151.5625 270.6875 C 149.855469 289.308594 153.101562 306.488281 160.5625 321.175781 L 163.066406 325.675781 C 164.550781 328.378906 166.332031 330.914062 168.171875 333.386719 C 170.007812 335.863281 170.671875 337.226562 171.835938 338.867188 C 191.558594 361.042969 220.964844 371.746094 254.914062 371.746094 C 330.09375 371.746094 393.902344 338.398438 422.144531 263.480469 C 442.167969 265.539062 461.390625 260.394531 470.148438 243.277344 C 456.195312 235.21875 438.269531 237.800781 427.9375 243 L 455.3125 165.15625 L 348.433594 233.523438 L 314.292969 233.523438 L 314.292969 165.15625 Z M 211.867188 165.164062 " clip-rule="nonzero"/></clipPath><clipPath id="4106380bbd"><path d="M 217 237 L 242 237 L 242 264 L 217 264 Z M 217 237 " clip-rule="nonzero"/></clipPath><clipPath id="8af62e19ca"><path d="M 211.867188 165.164062 L 211.867188 233.53125 L 179.210938 233.53125 L 179.210938 267.714844 L 151.867188 267.714844 L 151.5625 270.6875 C 149.855469 289.308594 153.101562 306.488281 160.5625 321.175781 L 163.066406 325.675781 C 164.550781 328.378906 166.332031 330.914062 168.171875 333.386719 C 170.007812 335.863281 170.671875 337.226562 171.835938 338.867188 C 191.558594 361.042969 220.964844 371.746094 254.914062 371.746094 C 330.09375 371.746094 393.902344 338.398438 422.144531 263.480469 C 442.167969 265.539062 461.390625 260.394531 470.148438 243.277344 C 456.195312 235.21875 438.269531 237.800781 427.9375 243 L 455.3125 165.15625 L 348.433594 233.523438 L 314.292969 233.523438 L 314.292969 165.15625 Z M 211.867188 165.164062 " clip-rule="nonzero"/></clipPath><clipPath id="8cb4924e4e"><path d="M 248 235 L 279 235 L 279 266 L 248 266 Z M 248 235 " clip-rule="nonzero"/></clipPath><clipPath id="c4bffeb1c0"><path d="M 211.867188 165.164062 L 211.867188 233.53125 L 179.210938 233.53125 L 179.210938 267.714844 L 151.867188 267.714844 L 151.5625 270.6875 C 149.855469 289.308594 153.101562 306.488281 160.5625 321.175781 L 163.066406 325.675781 C 164.550781 328.378906 166.332031 330.914062 168.171875 333.386719 C 170.007812 335.863281 170.671875 337.226562 171.835938 338.867188 C 191.558594 361.042969 220.964844 371.746094 254.914062 371.746094 C 330.09375 371.746094 393.902344 338.398438 422.144531 263.480469 C 442.167969 265.539062 461.390625 260.394531 470.148438 243.277344 C 456.195312 235.21875 438.269531 237.800781 427.9375 243 L 455.3125 165.15625 L 348.433594 233.523438 L 314.292969 233.523438 L 314.292969 165.15625 Z M 211.867188 165.164062 " clip-rule="nonzero"/></clipPath><clipPath id="5e75ebe79f"><path d="M 248 201 L 279 201 L 279 232 L 248 232 Z M 248 201 " clip-rule="nonzero"/></clipPath><clipPath id="6f01a1da2b"><path d="M 211.867188 165.164062 L 211.867188 233.53125 L 179.210938 233.53125 L 179.210938 267.714844 L 151.867188 267.714844 L 151.5625 270.6875 C 149.855469 289.308594 153.101562 306.488281 160.5625 321.175781 L 163.066406 325.675781 C 164.550781 328.378906 166.332031 330.914062 168.171875 333.386719 C 170.007812 335.863281 170.671875 337.226562 171.835938 338.867188 C 191.558594 361.042969 220.964844 371.746094 254.914062 371.746094 C 330.09375 371.746094 393.902344 338.398438 422.144531 263.480469 C 442.167969 265.539062 461.390625 260.394531 470.148438 243.277344 C 456.195312 235.21875 438.269531 237.800781 427.9375 243 L 455.3125 165.15625 L 348.433594 233.523438 L 314.292969 233.523438 L 314.292969 165.15625 Z M 211.867188 165.164062 " clip-rule="nonzero"/></clipPath><clipPath id="5c0be53ee6"><path d="M 252 238 L 275 238 L 275 263 L 252 263 Z M 252 238 " clip-rule="nonzero"/></clipPath><clipPath id="03a51498c2"><path d="M 211.867188 165.164062 L 211.867188 233.53125 L 179.210938 233.53125 L 179.210938 267.714844 L 151.867188 267.714844 L 151.5625 270.6875 C 149.855469 289.308594 153.101562 306.488281 160.5625 321.175781 L 163.066406 325.675781 C 164.550781 328.378906 166.332031 330.914062 168.171875 333.386719 C 170.007812 335.863281 170.671875 337.226562 171.835938 338.867188 C 191.558594 361.042969 220.964844 371.746094 254.914062 371.746094 C 330.09375 371.746094 393.902344 338.398438 422.144531 263.480469 C 442.167969 265.539062 461.390625 260.394531 470.148438 243.277344 C 456.195312 235.21875 438.269531 237.800781 427.9375 243 L 455.3125 165.15625 L 348.433594 233.523438 L 314.292969 233.523438 L 314.292969 165.15625 Z M 211.867188 165.164062 " clip-rule="nonzero"/></clipPath><clipPath id="0a81df77cc"><path d="M 251 237 L 276 237 L 276 264 L 251 264 Z M 251 237 " clip-rule="nonzero"/></clipPath><clipPath id="bd652b0ebe"><path d="M 211.867188 165.164062 L 211.867188 233.53125 L 179.210938 233.53125 L 179.210938 267.714844 L 151.867188 267.714844 L 151.5625 270.6875 C 149.855469 289.308594 153.101562 306.488281 160.5625 321.175781 L 163.066406 325.675781 C 164.550781 328.378906 166.332031 330.914062 168.171875 333.386719 C 170.007812 335.863281 170.671875 337.226562 171.835938 338.867188 C 191.558594 361.042969 220.964844 371.746094 254.914062 371.746094 C 330.09375 371.746094 393.902344 338.398438 422.144531 263.480469 C 442.167969 265.539062 461.390625 260.394531 470.148438 243.277344 C 456.195312 235.21875 438.269531 237.800781 427.9375 243 L 455.3125 165.15625 L 348.433594 233.523438 L 314.292969 233.523438 L 314.292969 165.15625 Z M 211.867188 165.164062 " clip-rule="nonzero"/></clipPath><clipPath id="4ea48aed30"><path d="M 252 204 L 275 204 L 275 229 L 252 229 Z M 252 204 " clip-rule="nonzero"/></clipPath><clipPath id="e3614aa3b1"><path d="M 211.867188 165.164062 L 211.867188 233.53125 L 179.210938 233.53125 L 179.210938 267.714844 L 151.867188 267.714844 L 151.5625 270.6875 C 149.855469 289.308594 153.101562 306.488281 160.5625 321.175781 L 163.066406 325.675781 C 164.550781 328.378906 166.332031 330.914062 168.171875 333.386719 C 170.007812 335.863281 170.671875 337.226562 171.835938 338.867188 C 191.558594 361.042969 220.964844 371.746094 254.914062 371.746094 C 330.09375 371.746094 393.902344 338.398438 422.144531 263.480469 C 442.167969 265.539062 461.390625 260.394531 470.148438 243.277344 C 456.195312 235.21875 438.269531 237.800781 427.9375 243 L 455.3125 165.15625 L 348.433594 233.523438 L 314.292969 233.523438 L 314.292969 165.15625 Z M 211.867188 165.164062 " clip-rule="nonzero"/></clipPath><clipPath id="ac1244acb7"><path d="M 251 203 L 276 203 L 276 230 L 251 230 Z M 251 203 " clip-rule="nonzero"/></clipPath><clipPath id="f1c41c8412"><path d="M 211.867188 165.164062 L 211.867188 233.53125 L 179.210938 233.53125 L 179.210938 267.714844 L 151.867188 267.714844 L 151.5625 270.6875 C 149.855469 289.308594 153.101562 306.488281 160.5625 321.175781 L 163.066406 325.675781 C 164.550781 328.378906 166.332031 330.914062 168.171875 333.386719 C 170.007812 335.863281 170.671875 337.226562 171.835938 338.867188 C 191.558594 361.042969 220.964844 371.746094 254.914062 371.746094 C 330.09375 371.746094 393.902344 338.398438 422.144531 263.480469 C 442.167969 265.539062 461.390625 260.394531 470.148438 243.277344 C 456.195312 235.21875 438.269531 237.800781 427.9375 243 L 455.3125 165.15625 L 348.433594 233.523438 L 314.292969 233.523438 L 314.292969 165.15625 Z M 211.867188 165.164062 " clip-rule="nonzero"/></clipPath><clipPath id="d1ca0e8cf1"><path d="M 282 201 L 313 201 L 313 232 L 282 232 Z M 282 201 " clip-rule="nonzero"/></clipPath><clipPath id="1a7c739c6e"><path d="M 211.867188 165.164062 L 211.867188 233.53125 L 179.210938 233.53125 L 179.210938 267.714844 L 151.867188 267.714844 L 151.5625 270.6875 C 149.855469 289.308594 153.101562 306.488281 160.5625 321.175781 L 163.066406 325.675781 C 164.550781 328.378906 166.332031 330.914062 168.171875 333.386719 C 170.007812 335.863281 170.671875 337.226562 171.835938 338.867188 C 191.558594 361.042969 220.964844 371.746094 254.914062 371.746094 C 330.09375 371.746094 393.902344 338.398438 422.144531 263.480469 C 442.167969 265.539062 461.390625 260.394531 470.148438 243.277344 C 456.195312 235.21875 438.269531 237.800781 427.9375 243 L 455.3125 165.15625 L 348.433594 233.523438 L 314.292969 233.523438 L 314.292969 165.15625 Z M 211.867188 165.164062 " clip-rule="nonzero"/></clipPath><clipPath id="293963bd44"><path d="M 282 235 L 313 235 L 313 266 L 282 266 Z M 282 235 " clip-rule="nonzero"/></clipPath><clipPath id="93093f6a8b"><path d="M 211.867188 165.164062 L 211.867188 233.53125 L 179.210938 233.53125 L 179.210938 267.714844 L 151.867188 267.714844 L 151.5625 270.6875 C 149.855469 289.308594 153.101562 306.488281 160.5625 321.175781 L 163.066406 325.675781 C 164.550781 328.378906 166.332031 330.914062 168.171875 333.386719 C 170.007812 335.863281 170.671875 337.226562 171.835938 338.867188 C 191.558594 361.042969 220.964844 371.746094 254.914062 371.746094 C 330.09375 371.746094 393.902344 338.398438 422.144531 263.480469 C 442.167969 265.539062 461.390625 260.394531 470.148438 243.277344 C 456.195312 235.21875 438.269531 237.800781 427.9375 243 L 455.3125 165.15625 L 348.433594 233.523438 L 314.292969 233.523438 L 314.292969 165.15625 Z M 211.867188 165.164062 " clip-rule="nonzero"/></clipPath><clipPath id="1865e5e3da"><path d="M 286 204 L 309 204 L 309 229 L 286 229 Z M 286 204 " clip-rule="nonzero"/></clipPath><clipPath id="6987347162"><path d="M 211.867188 165.164062 L 211.867188 233.53125 L 179.210938 233.53125 L 179.210938 267.714844 L 151.867188 267.714844 L 151.5625 270.6875 C 149.855469 289.308594 153.101562 306.488281 160.5625 321.175781 L 163.066406 325.675781 C 164.550781 328.378906 166.332031 330.914062 168.171875 333.386719 C 170.007812 335.863281 170.671875 337.226562 171.835938 338.867188 C 191.558594 361.042969 220.964844 371.746094 254.914062 371.746094 C 330.09375 371.746094 393.902344 338.398438 422.144531 263.480469 C 442.167969 265.539062 461.390625 260.394531 470.148438 243.277344 C 456.195312 235.21875 438.269531 237.800781 427.9375 243 L 455.3125 165.15625 L 348.433594 233.523438 L 314.292969 233.523438 L 314.292969 165.15625 Z M 211.867188 165.164062 " clip-rule="nonzero"/></clipPath><clipPath id="a0678aff05"><path d="M 285 203 L 310 203 L 310 230 L 285 230 Z M 285 203 " clip-rule="nonzero"/></clipPath><clipPath id="df5ff68312"><path d="M 211.867188 165.164062 L 211.867188 233.53125 L 179.210938 233.53125 L 179.210938 267.714844 L 151.867188 267.714844 L 151.5625 270.6875 C 149.855469 289.308594 153.101562 306.488281 160.5625 321.175781 L 163.066406 325.675781 C 164.550781 328.378906 166.332031 330.914062 168.171875 333.386719 C 170.007812 335.863281 170.671875 337.226562 171.835938 338.867188 C 191.558594 361.042969 220.964844 371.746094 254.914062 371.746094 C 330.09375 371.746094 393.902344 338.398438 422.144531 263.480469 C 442.167969 265.539062 461.390625 260.394531 470.148438 243.277344 C 456.195312 235.21875 438.269531 237.800781 427.9375 243 L 455.3125 165.15625 L 348.433594 233.523438 L 314.292969 233.523438 L 314.292969 165.15625 Z M 211.867188 165.164062 " clip-rule="nonzero"/></clipPath><clipPath id="5b5b4a3efa"><path d="M 286 238 L 309 238 L 309 263 L 286 263 Z M 286 238 " clip-rule="nonzero"/></clipPath><clipPath id="39bcb69caf"><path d="M 211.867188 165.164062 L 211.867188 233.53125 L 179.210938 233.53125 L 179.210938 267.714844 L 151.867188 267.714844 L 151.5625 270.6875 C 149.855469 289.308594 153.101562 306.488281 160.5625 321.175781 L 163.066406 325.675781 C 164.550781 328.378906 166.332031 330.914062 168.171875 333.386719 C 170.007812 335.863281 170.671875 337.226562 171.835938 338.867188 C 191.558594 361.042969 220.964844 371.746094 254.914062 371.746094 C 330.09375 371.746094 393.902344 338.398438 422.144531 263.480469 C 442.167969 265.539062 461.390625 260.394531 470.148438 243.277344 C 456.195312 235.21875 438.269531 237.800781 427.9375 243 L 455.3125 165.15625 L 348.433594 233.523438 L 314.292969 233.523438 L 314.292969 165.15625 Z M 211.867188 165.164062 " clip-rule="nonzero"/></clipPath><clipPath id="80c2d21756"><path d="M 285 237 L 310 237 L 310 264 L 285 264 Z M 285 237 " clip-rule="nonzero"/></clipPath><clipPath id="dbbb87417b"><path d="M 211.867188 165.164062 L 211.867188 233.53125 L 179.210938 233.53125 L 179.210938 267.714844 L 151.867188 267.714844 L 151.5625 270.6875 C 149.855469 289.308594 153.101562 306.488281 160.5625 321.175781 L 163.066406 325.675781 C 164.550781 328.378906 166.332031 330.914062 168.171875 333.386719 C 170.007812 335.863281 170.671875 337.226562 171.835938 338.867188 C 191.558594 361.042969 220.964844 371.746094 254.914062 371.746094 C 330.09375 371.746094 393.902344 338.398438 422.144531 263.480469 C 442.167969 265.539062 461.390625 260.394531 470.148438 243.277344 C 456.195312 235.21875 438.269531 237.800781 427.9375 243 L 455.3125 165.15625 L 348.433594 233.523438 L 314.292969 233.523438 L 314.292969 165.15625 Z M 211.867188 165.164062 " clip-rule="nonzero"/></clipPath><clipPath id="d548611757"><path d="M 316 235 L 347 235 L 347 266 L 316 266 Z M 316 235 " clip-rule="nonzero"/></clipPath><clipPath id="05b1ccc555"><path d="M 211.867188 165.164062 L 211.867188 233.53125 L 179.210938 233.53125 L 179.210938 267.714844 L 151.867188 267.714844 L 151.5625 270.6875 C 149.855469 289.308594 153.101562 306.488281 160.5625 321.175781 L 163.066406 325.675781 C 164.550781 328.378906 166.332031 330.914062 168.171875 333.386719 C 170.007812 335.863281 170.671875 337.226562 171.835938 338.867188 C 191.558594 361.042969 220.964844 371.746094 254.914062 371.746094 C 330.09375 371.746094 393.902344 338.398438 422.144531 263.480469 C 442.167969 265.539062 461.390625 260.394531 470.148438 243.277344 C 456.195312 235.21875 438.269531 237.800781 427.9375 243 L 455.3125 165.15625 L 348.433594 233.523438 L 314.292969 233.523438 L 314.292969 165.15625 Z M 211.867188 165.164062 " clip-rule="nonzero"/></clipPath><clipPath id="03a100dfce"><path d="M 316 201 L 347 201 L 347 232 L 316 232 Z M 316 201 " clip-rule="nonzero"/></clipPath><clipPath id="e4650d6219"><path d="M 211.867188 165.164062 L 211.867188 233.53125 L 179.210938 233.53125 L 179.210938 267.714844 L 151.867188 267.714844 L 151.5625 270.6875 C 149.855469 289.308594 153.101562 306.488281 160.5625 321.175781 L 163.066406 325.675781 C 164.550781 328.378906 166.332031 330.914062 168.171875 333.386719 C 170.007812 335.863281 170.671875 337.226562 171.835938 338.867188 C 191.558594 361.042969 220.964844 371.746094 254.914062 371.746094 C 330.09375 371.746094 393.902344 338.398438 422.144531 263.480469 C 442.167969 265.539062 461.390625 260.394531 470.148438 243.277344 C 456.195312 235.21875 438.269531 237.800781 427.9375 243 L 455.3125 165.15625 L 348.433594 233.523438 L 314.292969 233.523438 L 314.292969 165.15625 Z M 211.867188 165.164062 " clip-rule="nonzero"/></clipPath><clipPath id="fd327793dc"><path d="M 320 238 L 343 238 L 343 263 L 320 263 Z M 320 238 " clip-rule="nonzero"/></clipPath><clipPath id="ade282b977"><path d="M 211.867188 165.164062 L 211.867188 233.53125 L 179.210938 233.53125 L 179.210938 267.714844 L 151.867188 267.714844 L 151.5625 270.6875 C 149.855469 289.308594 153.101562 306.488281 160.5625 321.175781 L 163.066406 325.675781 C 164.550781 328.378906 166.332031 330.914062 168.171875 333.386719 C 170.007812 335.863281 170.671875 337.226562 171.835938 338.867188 C 191.558594 361.042969 220.964844 371.746094 254.914062 371.746094 C 330.09375 371.746094 393.902344 338.398438 422.144531 263.480469 C 442.167969 265.539062 461.390625 260.394531 470.148438 243.277344 C 456.195312 235.21875 438.269531 237.800781 427.9375 243 L 455.3125 165.15625 L 348.433594 233.523438 L 314.292969 233.523438 L 314.292969 165.15625 Z M 211.867188 165.164062 " clip-rule="nonzero"/></clipPath><clipPath id="4b4752ce1a"><path d="M 319 237 L 344 237 L 344 264 L 319 264 Z M 319 237 " clip-rule="nonzero"/></clipPath><clipPath id="9038e671d5"><path d="M 211.867188 165.164062 L 211.867188 233.53125 L 179.210938 233.53125 L 179.210938 267.714844 L 151.867188 267.714844 L 151.5625 270.6875 C 149.855469 289.308594 153.101562 306.488281 160.5625 321.175781 L 163.066406 325.675781 C 164.550781 328.378906 166.332031 330.914062 168.171875 333.386719 C 170.007812 335.863281 170.671875 337.226562 171.835938 338.867188 C 191.558594 361.042969 220.964844 371.746094 254.914062 371.746094 C 330.09375 371.746094 393.902344 338.398438 422.144531 263.480469 C 442.167969 265.539062 461.390625 260.394531 470.148438 243.277344 C 456.195312 235.21875 438.269531 237.800781 427.9375 243 L 455.3125 165.15625 L 348.433594 233.523438 L 314.292969 233.523438 L 314.292969 165.15625 Z M 211.867188 165.164062 " clip-rule="nonzero"/></clipPath><clipPath id="be91be3377"><path d="M 320 204 L 343 204 L 343 229 L 320 229 Z M 320 204 " clip-rule="nonzero"/></clipPath><clipPath id="c8084c08f5"><path d="M 211.867188 165.164062 L 211.867188 233.53125 L 179.210938 233.53125 L 179.210938 267.714844 L 151.867188 267.714844 L 151.5625 270.6875 C 149.855469 289.308594 153.101562 306.488281 160.5625 321.175781 L 163.066406 325.675781 C 164.550781 328.378906 166.332031 330.914062 168.171875 333.386719 C 170.007812 335.863281 170.671875 337.226562 171.835938 338.867188 C 191.558594 361.042969 220.964844 371.746094 254.914062 371.746094 C 330.09375 371.746094 393.902344 338.398438 422.144531 263.480469 C 442.167969 265.539062 461.390625 260.394531 470.148438 243.277344 C 456.195312 235.21875 438.269531 237.800781 427.9375 243 L 455.3125 165.15625 L 348.433594 233.523438 L 314.292969 233.523438 L 314.292969 165.15625 Z M 211.867188 165.164062 " clip-rule="nonzero"/></clipPath><clipPath id="7f266a83f3"><path d="M 319 203 L 344 203 L 344 230 L 319 230 Z M 319 203 " clip-rule="nonzero"/></clipPath><clipPath id="03c05570f6"><path d="M 211.867188 165.164062 L 211.867188 233.53125 L 179.210938 233.53125 L 179.210938 267.714844 L 151.867188 267.714844 L 151.5625 270.6875 C 149.855469 289.308594 153.101562 306.488281 160.5625 321.175781 L 163.066406 325.675781 C 164.550781 328.378906 166.332031 330.914062 168.171875 333.386719 C 170.007812 335.863281 170.671875 337.226562 171.835938 338.867188 C 191.558594 361.042969 220.964844 371.746094 254.914062 371.746094 C 330.09375 371.746094 393.902344 338.398438 422.144531 263.480469 C 442.167969 265.539062 461.390625 260.394531 470.148438 243.277344 C 456.195312 235.21875 438.269531 237.800781 427.9375 243 L 455.3125 165.15625 L 348.433594 233.523438 L 314.292969 233.523438 L 314.292969 165.15625 Z M 211.867188 165.164062 " clip-rule="nonzero"/></clipPath><clipPath id="6498db8285"><path d="M 151.007812 204 L 470.148438 204 L 470.148438 371.75 L 151.007812 371.75 Z M 151.007812 204 " clip-rule="nonzero"/></clipPath><clipPath id="30dd4aab67"><path d="M 211.867188 165.164062 L 211.867188 233.53125 L 179.210938 233.53125 L 179.210938 267.714844 L 151.867188 267.714844 L 151.5625 270.6875 C 149.855469 289.308594 153.101562 306.488281 160.5625 321.175781 L 163.066406 325.675781 C 164.550781 328.378906 166.332031 330.914062 168.171875 333.386719 C 170.007812 335.863281 170.671875 337.226562 171.835938 338.867188 C 191.558594 361.042969 220.964844 371.746094 254.914062 371.746094 C 330.09375 371.746094 393.902344 338.398438 422.144531 263.480469 C 442.167969 265.539062 461.390625 260.394531 470.148438 243.277344 C 456.195312 235.21875 438.269531 237.800781 427.9375 243 L 455.3125 165.15625 L 348.433594 233.523438 L 314.292969 233.523438 L 314.292969 165.15625 Z M 211.867188 165.164062 " clip-rule="nonzero"/></clipPath><clipPath id="da12ce6732"><path d="M 151.007812 294 L 470.148438 294 L 470.148438 371.75 L 151.007812 371.75 Z M 151.007812 294 " clip-rule="nonzero"/></clipPath><clipPath id="f5954b3a07"><path d="M 211.867188 165.164062 L 211.867188 233.53125 L 179.210938 233.53125 L 179.210938 267.714844 L 151.867188 267.714844 L 151.5625 270.6875 C 149.855469 289.308594 153.101562 306.488281 160.5625 321.175781 L 163.066406 325.675781 C 164.550781 328.378906 166.332031 330.914062 168.171875 333.386719 C 170.007812 335.863281 170.671875 337.226562 171.835938 338.867188 C 191.558594 361.042969 220.964844 371.746094 254.914062 371.746094 C 330.09375 371.746094 393.902344 338.398438 422.144531 263.480469 C 442.167969 265.539062 461.390625 260.394531 470.148438 243.277344 C 456.195312 235.21875 438.269531 237.800781 427.9375 243 L 455.3125 165.15625 L 348.433594 233.523438 L 314.292969 233.523438 L 314.292969 165.15625 Z M 211.867188 165.164062 " clip-rule="nonzero"/></clipPath><clipPath id="6e943c96b9"><path d="M 165 334 L 265 334 L 265 371.75 L 165 371.75 Z M 165 334 " clip-rule="nonzero"/></clipPath><clipPath id="bcd2c0b830"><path d="M 211.867188 165.164062 L 211.867188 233.53125 L 179.210938 233.53125 L 179.210938 267.714844 L 151.867188 267.714844 L 151.5625 270.6875 C 149.855469 289.308594 153.101562 306.488281 160.5625 321.175781 L 163.066406 325.675781 C 164.550781 328.378906 166.332031 330.914062 168.171875 333.386719 C 170.007812 335.863281 170.671875 337.226562 171.835938 338.867188 C 191.558594 361.042969 220.964844 371.746094 254.914062 371.746094 C 330.09375 371.746094 393.902344 338.398438 422.144531 263.480469 C 442.167969 265.539062 461.390625 260.394531 470.148438 243.277344 C 456.195312 235.21875 438.269531 237.800781 427.9375 243 L 455.3125 165.15625 L 348.433594 233.523438 L 314.292969 233.523438 L 314.292969 165.15625 Z M 211.867188 165.164062 " clip-rule="nonzero"/></clipPath><clipPath id="acb606fbe8"><path d="M 151.007812 236 L 470.148438 236 L 470.148438 371.75 L 151.007812 371.75 Z M 151.007812 236 " clip-rule="nonzero"/></clipPath><clipPath id="130f2f1d3a"><path d="M 211.867188 165.164062 L 211.867188 233.53125 L 179.210938 233.53125 L 179.210938 267.714844 L 151.867188 267.714844 L 151.5625 270.6875 C 149.855469 289.308594 153.101562 306.488281 160.5625 321.175781 L 163.066406 325.675781 C 164.550781 328.378906 166.332031 330.914062 168.171875 333.386719 C 170.007812 335.863281 170.671875 337.226562 171.835938 338.867188 C 191.558594 361.042969 220.964844 371.746094 254.914062 371.746094 C 330.09375 371.746094 393.902344 338.398438 422.144531 263.480469 C 442.167969 265.539062 461.390625 260.394531 470.148438 243.277344 C 456.195312 235.21875 438.269531 237.800781 427.9375 243 L 455.3125 165.15625 L 348.433594 233.523438 L 314.292969 233.523438 L 314.292969 165.15625 Z M 211.867188 165.164062 " clip-rule="nonzero"/></clipPath><clipPath id="772e697153"><path d="M 589.347656 144.355469 L 819.171875 144.355469 L 819.171875 394.394531 L 589.347656 394.394531 Z M 589.347656 144.355469 " clip-rule="nonzero"/></clipPath></defs><g clip-path="url(#551d811e8c)"><path fill="#ffffff" d="M 0.886719 0 L 959.113281 0 L 959.113281 539 L 0.886719 539 Z M 0.886719 0 " fill-opacity="1" fill-rule="nonzero"/><path fill="#000000" d="M 0.886719 0 L 959.113281 0 L 959.113281 539 L 0.886719 539 Z M 0.886719 0 " fill-opacity="1" fill-rule="nonzero"/></g><g clip-path="url(#af7962648f)"><path fill="#394d54" d="M 317.976562 230.160156 L 351.917969 230.160156 L 351.917969 264.898438 L 369.078125 264.898438 C 377.15625 264.859375 385.015625 263.539062 392.664062 260.9375 C 396.359375 259.683594 400.492188 257.945312 404.125 255.753906 C 399.335938 249.492188 396.890625 241.589844 396.085938 233.78125 C 395.105469 223.183594 397.246094 209.378906 404.414062 201.082031 L 407.984375 196.953125 L 412.246094 200.371094 C 422.953125 208.984375 431.957031 221.015625 433.546875 234.738281 C 446.433594 230.941406 461.570312 231.84375 472.9375 238.410156 L 477.597656 241.105469 L 475.144531 245.902344 C 465.605469 264.65625 445.507812 270.476562 425.871094 269.445312 C 396.480469 342.726562 332.503906 377.425781 254.929688 377.425781 C 214.851562 377.425781 178.082031 362.421875 157.152344 326.824219 C 155.921875 324.609375 154.875 322.300781 153.757812 320.03125 C 146.683594 304.359375 144.328125 287.191406 145.921875 270.128906 L 146.402344 264.996094 L 175.34375 264.996094 L 175.34375 230.183594 L 209.28125 230.183594 L 209.28125 196.203125 L 277.167969 196.203125 L 277.167969 162.222656 L 317.898438 162.222656 L 317.898438 230.191406 " fill-opacity="1" fill-rule="nonzero"/></g><g clip-path="url(#2b1b69f6b3)"><g clip-path="url(#7e2246d05e)"><path fill="#20c2ef" d="M 282.910156 167.851562 L 312.328125 167.851562 L 312.328125 197.308594 L 282.90625 197.308594 Z M 282.910156 167.851562 " fill-opacity="1" fill-rule="nonzero"/></g></g><g clip-path="url(#57946ba75e)"><g clip-path="url(#4c3ff96a2b)"><path fill="#000000" d="M 286.515625 194.855469 L 286.515625 170.304688 M 290.929688 194.851562 L 290.929688 170.304688 M 295.382812 194.851562 L 295.382812 170.304688 M 299.84375 194.851562 L 299.84375 170.304688 M 304.300781 194.851562 L 304.300781 170.304688 M 308.707031 194.851562 L 308.707031 170.304688 " fill-opacity="1" fill-rule="nonzero"/></g></g><g clip-path="url(#4829b6cfc6)"><g clip-path="url(#58ecf5ba27)"><path stroke-linecap="butt" transform="matrix(1.484389, 0, 0, 1.486244, 99.053003, 162.190384)" fill="none" stroke-linejoin="miter" d="M 126.289412 21.978281 L 126.289412 5.459604 M 129.263068 21.975653 L 129.263068 5.459604 M 132.26304 21.975653 L 132.26304 5.459604 M 135.268274 21.975653 L 135.268274 5.459604 M 138.270877 21.975653 L 138.270877 5.459604 M 141.23927 21.975653 L 141.23927 5.459604 " stroke="#394d54" stroke-width="1.56" stroke-opacity="1" stroke-miterlimit="4"/></g></g><g clip-path="url(#463859c131)"><g clip-path="url(#449da2e260)"><path fill="#00acd3" d="M 316.851562 197.324219 L 346.269531 197.324219 L 346.269531 167.871094 L 316.847656 167.871094 Z M 316.851562 197.324219 " fill-opacity="1" fill-rule="nonzero"/></g></g><g clip-path="url(#5dd8ff7d44)"><g clip-path="url(#764c59ddb7)"><path fill="#000000" d="M 320.457031 170.308594 L 320.457031 194.855469 M 324.871094 170.308594 L 324.871094 194.855469 M 329.328125 170.308594 L 329.328125 194.855469 M 333.785156 170.308594 L 333.785156 194.855469 M 338.242188 170.308594 L 338.242188 194.855469 M 342.648438 170.308594 L 342.648438 194.855469 " fill-opacity="1" fill-rule="nonzero"/></g></g><g clip-path="url(#95bce060c0)"><g clip-path="url(#f7d6663dd9)"><path stroke-linecap="butt" transform="matrix(1.484389, 0, 0, -1.486244, 132.995038, 202.97098)" fill="none" stroke-linejoin="miter" d="M 126.288988 21.976466 L 126.288988 5.460417 M 129.262644 21.976466 L 129.262644 5.460417 M 132.265248 21.976466 L 132.265248 5.460417 M 135.267851 21.976466 L 135.267851 5.460417 M 138.270454 21.976466 L 138.270454 5.460417 M 141.238847 21.976466 L 141.238847 5.460417 " stroke="#394d54" stroke-width="1.56" stroke-opacity="1" stroke-miterlimit="4"/></g></g><g clip-path="url(#4b02804458)"><g clip-path="url(#36315e7efe)"><path fill="#00acd3" d="M 147.140625 201.824219 L 176.558594 201.824219 L 176.558594 231.277344 L 147.136719 231.277344 Z M 147.140625 201.824219 " fill-opacity="1" fill-rule="nonzero"/></g></g><g clip-path="url(#1772296733)"><g clip-path="url(#d42e66a4fd)"><path fill="#20c2ef" d="M 147.140625 235.820312 L 176.558594 235.820312 L 176.558594 265.277344 L 147.136719 265.277344 Z M 147.140625 235.820312 " fill-opacity="1" fill-rule="nonzero"/></g></g><g clip-path="url(#f5a5104ebb)"><g clip-path="url(#240dd1ba43)"><path fill="#000000" d="M 150.75 228.839844 L 150.75 204.289062 M 155.160156 228.835938 L 155.160156 204.289062 M 159.617188 228.835938 L 159.617188 204.289062 M 164.074219 228.835938 L 164.074219 204.289062 M 168.53125 228.835938 L 168.53125 204.289062 M 172.941406 228.835938 L 172.941406 204.289062 " fill-opacity="1" fill-rule="nonzero"/></g></g><g clip-path="url(#77fec46587)"><g clip-path="url(#6fbb0bdf90)"><path stroke-linecap="butt" transform="matrix(1.484389, 0, 0, 1.486244, -36.715158, 196.17484)" fill="none" stroke-linejoin="miter" d="M 126.29112 21.978227 L 126.29112 5.45955 M 129.262145 21.975599 L 129.262145 5.45955 M 132.264748 21.975599 L 132.264748 5.45955 M 135.267351 21.975599 L 135.267351 5.45955 M 138.269954 21.975599 L 138.269954 5.45955 M 141.240979 21.975599 L 141.240979 5.45955 " stroke="#394d54" stroke-width="1.56" stroke-opacity="1" stroke-miterlimit="4"/></g></g><g clip-path="url(#3792821ba5)"><g clip-path="url(#8a940d76bf)"><path fill="#000000" d="M 150.75 262.824219 L 150.75 238.273438 M 155.160156 262.820312 L 155.160156 238.273438 M 159.617188 262.820312 L 159.617188 238.273438 M 164.074219 262.820312 L 164.074219 238.273438 M 168.53125 262.820312 L 168.53125 238.273438 M 172.941406 262.820312 L 172.941406 238.273438 " fill-opacity="1" fill-rule="nonzero"/></g></g><g clip-path="url(#04a68f4da5)"><g clip-path="url(#35b7ba789a)"><path stroke-linecap="butt" transform="matrix(1.484389, 0, 0, 1.486244, -36.715158, 230.159284)" fill="none" stroke-linejoin="miter" d="M 126.29112 21.978181 L 126.29112 5.459504 M 129.262145 21.975553 L 129.262145 5.459504 M 132.264748 21.975553 L 132.264748 5.459504 M 135.267351 21.975553 L 135.267351 5.459504 M 138.269954 21.975553 L 138.269954 5.459504 M 141.240979 21.975553 L 141.240979 5.459504 " stroke="#394d54" stroke-width="1.56" stroke-opacity="1" stroke-miterlimit="4"/></g></g><g clip-path="url(#8d07cf8b7d)"><g clip-path="url(#e48fdfa18f)"><path fill="#00acd3" d="M 181.082031 265.292969 L 210.5 265.292969 L 210.5 235.839844 L 181.082031 235.839844 Z M 181.082031 265.292969 " fill-opacity="1" fill-rule="nonzero"/></g></g><g clip-path="url(#7293ae4b6d)"><g clip-path="url(#b038a7db96)"><path fill="#20c2ef" d="M 181.082031 231.292969 L 210.5 231.292969 L 210.5 201.839844 L 181.082031 201.839844 Z M 181.082031 231.292969 " fill-opacity="1" fill-rule="nonzero"/></g></g><g clip-path="url(#ac84375d86)"><g clip-path="url(#c6dc8122e3)"><path fill="#000000" d="M 184.691406 238.277344 L 184.691406 262.824219 M 189.101562 238.277344 L 189.101562 262.824219 M 193.558594 238.277344 L 193.558594 262.824219 M 198.015625 238.277344 L 198.015625 262.824219 M 202.472656 238.277344 L 202.472656 262.824219 M 206.882812 238.277344 L 206.882812 262.824219 " fill-opacity="1" fill-rule="nonzero"/></g></g><g clip-path="url(#ab53fefd0d)"><g clip-path="url(#c907ac4560)"><path stroke-linecap="butt" transform="matrix(1.484389, 0, 0, -1.486244, -2.773118, 270.939879)" fill="none" stroke-linejoin="miter" d="M 126.290693 21.976566 L 126.290693 5.460518 M 129.261718 21.976566 L 129.261718 5.460518 M 132.264321 21.976566 L 132.264321 5.460518 M 135.266924 21.976566 L 135.266924 5.460518 M 138.269527 21.976566 L 138.269527 5.460518 M 141.240551 21.976566 L 141.240551 5.460518 " stroke="#394d54" stroke-width="1.56" stroke-opacity="1" stroke-miterlimit="4"/></g></g><g clip-path="url(#a065f6abea)"><g clip-path="url(#432c725340)"><path fill="#000000" d="M 184.691406 204.292969 L 184.691406 228.839844 M 189.101562 204.292969 L 189.101562 228.839844 M 193.558594 204.292969 L 193.558594 228.839844 M 198.015625 204.292969 L 198.015625 228.839844 M 202.472656 204.292969 L 202.472656 228.839844 M 206.882812 204.292969 L 206.882812 228.839844 " fill-opacity="1" fill-rule="nonzero"/></g></g><g clip-path="url(#c5674fc245)"><g clip-path="url(#68dbae88d4)"><path stroke-linecap="butt" transform="matrix(1.484389, 0, 0, -1.486244, -2.773118, 236.955423)" fill="none" stroke-linejoin="miter" d="M 126.290693 21.976512 L 126.290693 5.460463 M 129.261718 21.976512 L 129.261718 5.460463 M 132.264321 21.976512 L 132.264321 5.460463 M 135.266924 21.976512 L 135.266924 5.460463 M 138.269527 21.976512 L 138.269527 5.460463 M 141.240551 21.976512 L 141.240551 5.460463 " stroke="#394d54" stroke-width="1.56" stroke-opacity="1" stroke-miterlimit="4"/></g></g><g clip-path="url(#923aaf3daf)"><g clip-path="url(#f330070d30)"><path fill="#00acd3" d="M 215.023438 201.824219 L 244.441406 201.824219 L 244.441406 231.277344 L 215.023438 231.277344 Z M 215.023438 201.824219 " fill-opacity="1" fill-rule="nonzero"/></g></g><g clip-path="url(#bf0397ea25)"><g clip-path="url(#ad6907b6ac)"><path fill="#20c2ef" d="M 215.023438 235.820312 L 244.441406 235.820312 L 244.441406 265.277344 L 215.023438 265.277344 Z M 215.023438 235.820312 " fill-opacity="1" fill-rule="nonzero"/></g></g><g clip-path="url(#cfff0dc358)"><g clip-path="url(#5e39ce24c3)"><path fill="#000000" d="M 218.632812 228.839844 L 218.632812 204.289062 M 223.042969 228.835938 L 223.042969 204.289062 M 227.5 228.835938 L 227.5 204.289062 M 231.957031 228.835938 L 231.957031 204.289062 M 236.414062 228.835938 L 236.414062 204.289062 M 240.824219 228.835938 L 240.824219 204.289062 " fill-opacity="1" fill-rule="nonzero"/></g></g><g clip-path="url(#a427d4dba1)"><g clip-path="url(#9f2d956eb5)"><path stroke-linecap="butt" transform="matrix(1.484389, 0, 0, 1.486244, 31.168923, 196.17484)" fill="none" stroke-linejoin="miter" d="M 126.290266 21.978227 L 126.290266 5.45955 M 129.26129 21.975599 L 129.26129 5.45955 M 132.263894 21.975599 L 132.263894 5.45955 M 135.266497 21.975599 L 135.266497 5.45955 M 138.2691 21.975599 L 138.2691 5.45955 M 141.240124 21.975599 L 141.240124 5.45955 " stroke="#394d54" stroke-width="1.56" stroke-opacity="1" stroke-miterlimit="4"/></g></g><g clip-path="url(#09f81684b0)"><g clip-path="url(#e9200832a8)"><path fill="#000000" d="M 218.632812 262.824219 L 218.632812 238.273438 M 223.042969 262.820312 L 223.042969 238.273438 M 227.5 262.820312 L 227.5 238.273438 M 231.957031 262.820312 L 231.957031 238.273438 M 236.414062 262.820312 L 236.414062 238.273438 M 240.824219 262.820312 L 240.824219 238.273438 " fill-opacity="1" fill-rule="nonzero"/></g></g><g clip-path="url(#4106380bbd)"><g clip-path="url(#8af62e19ca)"><path stroke-linecap="butt" transform="matrix(1.484389, 0, 0, 1.486244, 31.168923, 230.159284)" fill="none" stroke-linejoin="miter" d="M 126.290266 21.978181 L 126.290266 5.459504 M 129.26129 21.975553 L 129.26129 5.459504 M 132.263894 21.975553 L 132.263894 5.459504 M 135.266497 21.975553 L 135.266497 5.459504 M 138.2691 21.975553 L 138.2691 5.459504 M 141.240124 21.975553 L 141.240124 5.459504 " stroke="#394d54" stroke-width="1.56" stroke-opacity="1" stroke-miterlimit="4"/></g></g><g clip-path="url(#8cb4924e4e)"><g clip-path="url(#c4bffeb1c0)"><path fill="#00acd3" d="M 248.96875 265.292969 L 278.386719 265.292969 L 278.386719 235.839844 L 248.964844 235.839844 Z M 248.96875 265.292969 " fill-opacity="1" fill-rule="nonzero"/></g></g><g clip-path="url(#5e75ebe79f)"><g clip-path="url(#6f01a1da2b)"><path fill="#20c2ef" d="M 248.96875 231.292969 L 278.386719 231.292969 L 278.386719 201.839844 L 248.964844 201.839844 Z M 248.96875 231.292969 " fill-opacity="1" fill-rule="nonzero"/></g></g><g clip-path="url(#5c0be53ee6)"><g clip-path="url(#03a51498c2)"><path fill="#000000" d="M 252.574219 238.277344 L 252.574219 262.824219 M 256.984375 238.277344 L 256.984375 262.824219 M 261.441406 238.277344 L 261.441406 262.824219 M 265.898438 238.277344 L 265.898438 262.824219 M 270.359375 238.277344 L 270.359375 262.824219 M 274.765625 238.277344 L 274.765625 262.824219 " fill-opacity="1" fill-rule="nonzero"/></g></g><g clip-path="url(#0a81df77cc)"><g clip-path="url(#bd652b0ebe)"><path stroke-linecap="butt" transform="matrix(1.484389, 0, 0, -1.486244, 65.110963, 270.939879)" fill="none" stroke-linejoin="miter" d="M 126.289839 21.976566 L 126.289839 5.460518 M 129.260863 21.976566 L 129.260863 5.460518 M 132.263466 21.976566 L 132.263466 5.460518 M 135.26607 21.976566 L 135.26607 5.460518 M 138.271304 21.976566 L 138.271304 5.460518 M 141.239697 21.976566 L 141.239697 5.460518 " stroke="#394d54" stroke-width="1.56" stroke-opacity="1" stroke-miterlimit="4"/></g></g><g clip-path="url(#4ea48aed30)"><g clip-path="url(#e3614aa3b1)"><path fill="#000000" d="M 252.574219 204.292969 L 252.574219 228.839844 M 256.984375 204.292969 L 256.984375 228.839844 M 261.441406 204.292969 L 261.441406 228.839844 M 265.898438 204.292969 L 265.898438 228.839844 M 270.359375 204.292969 L 270.359375 228.839844 M 274.765625 204.292969 L 274.765625 228.839844 " fill-opacity="1" fill-rule="nonzero"/></g></g><g clip-path="url(#ac1244acb7)"><g clip-path="url(#f1c41c8412)"><path stroke-linecap="butt" transform="matrix(1.484389, 0, 0, -1.486244, 65.110963, 236.955423)" fill="none" stroke-linejoin="miter" d="M 126.289839 21.976512 L 126.289839 5.460463 M 129.260863 21.976512 L 129.260863 5.460463 M 132.263466 21.976512 L 132.263466 5.460463 M 135.26607 21.976512 L 135.26607 5.460463 M 138.271304 21.976512 L 138.271304 5.460463 M 141.239697 21.976512 L 141.239697 5.460463 " stroke="#394d54" stroke-width="1.56" stroke-opacity="1" stroke-miterlimit="4"/></g></g><g clip-path="url(#d1ca0e8cf1)"><g clip-path="url(#1a7c739c6e)"><path fill="#00acd3" d="M 282.910156 201.824219 L 312.328125 201.824219 L 312.328125 231.277344 L 282.90625 231.277344 Z M 282.910156 201.824219 " fill-opacity="1" fill-rule="nonzero"/></g></g><g clip-path="url(#293963bd44)"><g clip-path="url(#93093f6a8b)"><path fill="#20c2ef" d="M 282.910156 235.820312 L 312.328125 235.820312 L 312.328125 265.277344 L 282.90625 265.277344 Z M 282.910156 235.820312 " fill-opacity="1" fill-rule="nonzero"/></g></g><g clip-path="url(#1865e5e3da)"><g clip-path="url(#6987347162)"><path fill="#000000" d="M 286.515625 228.839844 L 286.515625 204.289062 M 290.929688 228.835938 L 290.929688 204.289062 M 295.382812 228.835938 L 295.382812 204.289062 M 299.84375 228.835938 L 299.84375 204.289062 M 304.300781 228.835938 L 304.300781 204.289062 M 308.707031 228.835938 L 308.707031 204.289062 " fill-opacity="1" fill-rule="nonzero"/></g></g><g clip-path="url(#a0678aff05)"><g clip-path="url(#df5ff68312)"><path stroke-linecap="butt" transform="matrix(1.484389, 0, 0, 1.486244, 99.053003, 196.17484)" fill="none" stroke-linejoin="miter" d="M 126.289412 21.978227 L 126.289412 5.45955 M 129.263068 21.975599 L 129.263068 5.45955 M 132.26304 21.975599 L 132.26304 5.45955 M 135.268274 21.975599 L 135.268274 5.45955 M 138.270877 21.975599 L 138.270877 5.45955 M 141.23927 21.975599 L 141.23927 5.45955 " stroke="#394d54" stroke-width="1.56" stroke-opacity="1" stroke-miterlimit="4"/></g></g><g clip-path="url(#5b5b4a3efa)"><g clip-path="url(#39bcb69caf)"><path fill="#000000" d="M 286.515625 262.824219 L 286.515625 238.273438 M 290.929688 262.820312 L 290.929688 238.273438 M 295.382812 262.820312 L 295.382812 238.273438 M 299.84375 262.820312 L 299.84375 238.273438 M 304.300781 262.820312 L 304.300781 238.273438 M 308.707031 262.820312 L 308.707031 238.273438 " fill-opacity="1" fill-rule="nonzero"/></g></g><g clip-path="url(#80c2d21756)"><g clip-path="url(#dbbb87417b)"><path stroke-linecap="butt" transform="matrix(1.484389, 0, 0, 1.486244, 99.053003, 230.159284)" fill="none" stroke-linejoin="miter" d="M 126.289412 21.978181 L 126.289412 5.459504 M 129.263068 21.975553 L 129.263068 5.459504 M 132.26304 21.975553 L 132.26304 5.459504 M 135.268274 21.975553 L 135.268274 5.459504 M 138.270877 21.975553 L 138.270877 5.459504 M 141.23927 21.975553 L 141.23927 5.459504 " stroke="#394d54" stroke-width="1.56" stroke-opacity="1" stroke-miterlimit="4"/></g></g><g clip-path="url(#d548611757)"><g clip-path="url(#05b1ccc555)"><path fill="#00acd3" d="M 316.851562 265.292969 L 346.269531 265.292969 L 346.269531 235.839844 L 316.847656 235.839844 Z M 316.851562 265.292969 " fill-opacity="1" fill-rule="nonzero"/></g></g><g clip-path="url(#03a100dfce)"><g clip-path="url(#e4650d6219)"><path fill="#20c2ef" d="M 316.851562 231.292969 L 346.269531 231.292969 L 346.269531 201.839844 L 316.847656 201.839844 Z M 316.851562 231.292969 " fill-opacity="1" fill-rule="nonzero"/></g></g><g clip-path="url(#fd327793dc)"><g clip-path="url(#ade282b977)"><path fill="#000000" d="M 320.457031 238.277344 L 320.457031 262.824219 M 324.871094 238.277344 L 324.871094 262.824219 M 329.328125 238.277344 L 329.328125 262.824219 M 333.785156 238.277344 L 333.785156 262.824219 M 338.242188 238.277344 L 338.242188 262.824219 M 342.648438 238.277344 L 342.648438 262.824219 " fill-opacity="1" fill-rule="nonzero"/></g></g><g clip-path="url(#4b4752ce1a)"><g clip-path="url(#9038e671d5)"><path stroke-linecap="butt" transform="matrix(1.484389, 0, 0, -1.486244, 132.995038, 270.939879)" fill="none" stroke-linejoin="miter" d="M 126.288988 21.976566 L 126.288988 5.460518 M 129.262644 21.976566 L 129.262644 5.460518 M 132.265248 21.976566 L 132.265248 5.460518 M 135.267851 21.976566 L 135.267851 5.460518 M 138.270454 21.976566 L 138.270454 5.460518 M 141.238847 21.976566 L 141.238847 5.460518 " stroke="#394d54" stroke-width="1.56" stroke-opacity="1" stroke-miterlimit="4"/></g></g><g clip-path="url(#be91be3377)"><g clip-path="url(#c8084c08f5)"><path fill="#000000" d="M 320.457031 204.292969 L 320.457031 228.839844 M 324.871094 204.292969 L 324.871094 228.839844 M 329.328125 204.292969 L 329.328125 228.839844 M 333.785156 204.292969 L 333.785156 228.839844 M 338.242188 204.292969 L 338.242188 228.839844 M 342.648438 204.292969 L 342.648438 228.839844 " fill-opacity="1" fill-rule="nonzero"/></g></g><g clip-path="url(#7f266a83f3)"><g clip-path="url(#03c05570f6)"><path stroke-linecap="butt" transform="matrix(1.484389, 0, 0, -1.486244, 132.995038, 236.955423)" fill="none" stroke-linejoin="miter" d="M 126.288988 21.976512 L 126.288988 5.460463 M 129.262644 21.976512 L 129.262644 5.460463 M 132.265248 21.976512 L 132.265248 5.460463 M 135.267851 21.976512 L 135.267851 5.460463 M 138.270454 21.976512 L 138.270454 5.460463 M 141.238847 21.976512 L 141.238847 5.460463 " stroke="#394d54" stroke-width="1.56" stroke-opacity="1" stroke-miterlimit="4"/></g></g><g clip-path="url(#6498db8285)"><g clip-path="url(#30dd4aab67)"><path fill="#17b5eb" d="M 427.949219 243.011719 C 430.226562 225.304688 416.988281 211.390625 408.78125 204.789062 C 399.320312 215.738281 397.851562 244.4375 412.691406 256.519531 C 404.40625 263.886719 386.957031 270.5625 369.085938 270.5625 L 149.515625 270.5625 C 147.777344 289.242188 149.515625 379.183594 149.515625 379.183594 L 471.628906 379.183594 L 470.164062 243.304688 C 456.207031 235.242188 438.273438 237.8125 427.941406 243.011719 " fill-opacity="1" fill-rule="nonzero"/></g></g><g clip-path="url(#da12ce6732)"><g clip-path="url(#f5954b3a07)"><path fill="#000000" d="M 149.523438 294.464844 L 149.523438 379.183594 L 471.632812 379.183594 L 471.632812 294.464844 " fill-opacity="0.17" fill-rule="nonzero"/></g></g><g clip-path="url(#6e943c96b9)"><g clip-path="url(#bcd2c0b830)"><path fill="#d4edf1" d="M 264.175781 371.601562 C 244.078125 362.054688 233.046875 349.070312 226.90625 334.902344 L 165.851562 337.5625 L 197.023438 379.175781 L 264.171875 371.597656 " fill-opacity="1" fill-rule="nonzero"/></g></g><g clip-path="url(#acb606fbe8)"><g clip-path="url(#130f2f1d3a)"><path fill="#000000" d="M 429.328125 242.355469 L 429.328125 242.398438 C 398.363281 282.378906 353.949219 317.277344 306.265625 335.617188 C 263.730469 351.976562 226.644531 352.054688 201.058594 338.917969 C 198.304688 337.359375 195.601562 335.628906 192.894531 333.996094 C 174.136719 320.867188 163.570312 299.15625 164.460938 270.550781 L 149.527344 270.550781 L 149.527344 379.183594 L 471.640625 379.183594 L 471.640625 236.503906 L 434.53125 236.503906 Z M 429.328125 242.355469 " fill-opacity="0.085" fill-rule="nonzero"/></g></g><path stroke-linecap="round" transform="matrix(8.038499, 0, 0, 8.048542, 74.370794, 258.756806)" fill="none" stroke-linejoin="miter" d="M 11.495985 9.613183 C 14.111814 9.755872 16.903069 9.78305 19.338128 9.019131 " stroke="#394d54" stroke-width="0.628" stroke-opacity="1" stroke-miterlimit="4"/><path fill="#d4edf1" d="M 250.710938 321.15625 C 250.710938 321.691406 250.660156 322.21875 250.554688 322.742188 C 250.449219 323.265625 250.296875 323.769531 250.089844 324.261719 C 249.886719 324.757812 249.636719 325.222656 249.34375 325.667969 C 249.046875 326.109375 248.710938 326.519531 248.332031 326.898438 C 247.957031 327.273438 247.546875 327.609375 247.105469 327.90625 C 246.664062 328.203125 246.195312 328.453125 245.703125 328.65625 C 245.210938 328.863281 244.703125 329.015625 244.183594 329.121094 C 243.660156 329.226562 243.132812 329.277344 242.601562 329.277344 C 242.066406 329.277344 241.539062 329.226562 241.015625 329.121094 C 240.496094 329.019531 239.988281 328.863281 239.496094 328.660156 C 239.003906 328.457031 238.535156 328.207031 238.09375 327.910156 C 237.648438 327.613281 237.238281 327.277344 236.863281 326.898438 C 236.484375 326.523438 236.148438 326.113281 235.851562 325.667969 C 235.554688 325.226562 235.304688 324.757812 235.101562 324.265625 C 234.898438 323.773438 234.742188 323.265625 234.640625 322.742188 C 234.535156 322.21875 234.480469 321.691406 234.480469 321.15625 C 234.480469 320.625 234.535156 320.09375 234.636719 319.570312 C 234.742188 319.046875 234.894531 318.539062 235.101562 318.046875 C 235.304688 317.554688 235.554688 317.085938 235.851562 316.640625 C 236.144531 316.195312 236.484375 315.785156 236.859375 315.410156 C 237.238281 315.03125 237.648438 314.695312 238.089844 314.398438 C 238.53125 314.101562 239 313.851562 239.492188 313.648438 C 239.984375 313.441406 240.492188 313.289062 241.015625 313.183594 C 241.539062 313.082031 242.066406 313.027344 242.601562 313.027344 C 243.132812 313.027344 243.660156 313.082031 244.183594 313.1875 C 244.707031 313.289062 245.214844 313.445312 245.703125 313.648438 C 246.195312 313.855469 246.664062 314.105469 247.105469 314.402344 C 247.550781 314.699219 247.960938 315.035156 248.335938 315.410156 C 248.710938 315.789062 249.050781 316.199219 249.34375 316.644531 C 249.640625 317.085938 249.890625 317.554688 250.09375 318.046875 C 250.296875 318.542969 250.453125 319.050781 250.554688 319.570312 C 250.660156 320.09375 250.710938 320.625 250.710938 321.15625 Z M 250.710938 321.15625 " fill-opacity="1" fill-rule="nonzero"/><path fill="#394d54" d="M 244.785156 315.742188 C 244.078125 316.144531 243.597656 316.914062 243.597656 317.800781 C 243.597656 319.113281 244.660156 320.175781 245.96875 320.175781 C 246.867188 320.175781 247.578125 319.675781 248.058594 318.9375 C 248.351562 319.648438 248.5 320.394531 248.5 321.164062 C 248.5 324.382812 245.894531 326.984375 242.6875 326.984375 C 239.480469 326.984375 236.878906 324.375 236.878906 321.164062 C 236.878906 317.953125 239.480469 315.347656 242.6875 315.347656 C 243.414062 315.34375 244.117188 315.476562 244.796875 315.742188 Z M 99.050781 296.183594 L 476.570312 296.183594 C 468.34375 294.089844 450.566406 291.351562 453.5 280.488281 C 438.546875 297.808594 402.503906 292.5625 393.410156 284.09375 C 383.28125 298.804688 324.304688 293.210938 320.195312 281.679688 C 307.496094 296.601562 268.148438 296.601562 255.445312 281.679688 C 251.332031 293.140625 192.359375 298.742188 182.296875 284.09375 C 173.117188 292.5625 137.070312 297.816406 122.121094 280.488281 C 125.054688 291.273438 107.265625 294.171875 99.050781 296.183594 " fill-opacity="1" fill-rule="nonzero"/><path fill="#209237" d="M 809.296875 329.289062 L 809.296875 209.460938 L 704.257812 149.542969 L 599.21875 209.460938 L 599.21875 329.289062 L 704.257812 389.207031 Z M 809.296875 329.289062 " fill-opacity="1" fill-rule="nonzero"/><path fill="#ffffff" d="M 672.539062 317.183594 C 672.539062 324.695312 667.113281 330.625 660.402344 330.625 L 659.683594 330.625 C 652.8125 330.625 647.386719 324.371094 647.386719 317.183594 L 647.386719 221.554688 C 647.386719 214.210938 653.386719 208.117188 661.675781 208.117188 C 667.832031 208.117188 674.824219 210.773438 679.117188 216.554688 L 722.492188 273.28125 C 726.863281 279 736.007812 275.90625 736.007812 268.71875 L 736.007812 221.554688 C 736.007812 214.042969 741.726562 208.117188 748.300781 208.117188 L 749.023438 208.117188 C 755.878906 208.117188 761.316406 214.367188 761.316406 221.554688 L 761.316406 317.195312 L 761.464844 317.195312 C 761.464844 324.539062 755.304688 330.632812 746.894531 330.632812 C 740.882812 330.632812 734.023438 327.976562 729.734375 322.195312 L 684.386719 263.175781 C 680.554688 258.1875 672.570312 260.894531 672.570312 267.175781 L 672.570312 317.183594 Z M 672.539062 317.183594 " fill-opacity="1" fill-rule="nonzero"/><g clip-path="url(#772e697153)"><path fill="#000000" d="M 704.257812 394.394531 C 702.984375 394.394531 701.710938 394.089844 700.5625 393.464844 L 593.585938 336.167969 C 591.039062 334.800781 589.453125 332.15625 589.453125 329.28125 L 589.453125 209.46875 C 589.453125 206.59375 591.039062 203.949219 593.585938 202.582031 L 700.5625 145.285156 C 702.878906 144.042969 705.644531 144.042969 707.964844 145.285156 L 814.941406 202.582031 C 817.476562 203.949219 819.0625 206.59375 819.0625 209.46875 L 819.0625 329.28125 C 819.0625 332.15625 817.476562 334.800781 814.929688 336.167969 L 707.953125 393.464844 C 706.804688 394.089844 705.53125 394.394531 704.257812 394.394531 Z M 605.105469 324.613281 L 704.257812 377.714844 L 803.410156 324.613281 L 803.410156 214.136719 L 704.257812 161.046875 L 605.105469 214.136719 Z M 605.105469 324.613281 " fill-opacity="1" fill-rule="nonzero"/></g><path fill="#000000" d="M 747.121094 334.488281 C 737.875 334.488281 729.117188 330.4375 723.703125 323.652344 L 683.28125 278.054688 L 683.28125 314.089844 C 683.28125 326.101562 671.632812 334.476562 661.183594 334.476562 C 649.035156 334.476562 639.027344 324.957031 639.027344 314.089844 L 639.027344 224.648438 C 639.027344 213.210938 648.796875 204.261719 661.257812 204.261719 C 670.671875 204.261719 679.53125 208.3125 684.949219 215.097656 L 725.089844 260.613281 L 725.089844 224.648438 C 725.089844 212.636719 736.570312 204.261719 746.871094 204.261719 C 759.25 204.261719 769.480469 213.785156 769.480469 224.648438 L 769.480469 314.101562 C 769.488281 325.539062 759.667969 334.488281 747.121094 334.488281 Z M 675.453125 249.621094 C 677.644531 249.621094 679.804688 250.550781 681.316406 252.257812 L 735.695312 313.601562 C 742.351562 321.894531 753.832031 319.300781 753.832031 314.101562 L 753.832031 224.648438 C 753.832031 222.691406 750.609375 219.886719 747.601562 219.886719 C 744.074219 219.886719 740.746094 222.472656 740.746094 224.648438 L 740.746094 281.304688 C 740.746094 284.554688 738.730469 287.472656 735.683594 288.617188 C 732.667969 289.753906 729.203125 288.898438 727.042969 286.460938 L 672.957031 225.128906 C 670.316406 221.835938 665.820312 219.886719 661.257812 219.886719 C 657.511719 219.886719 654.683594 221.929688 654.683594 224.648438 L 654.683594 314.089844 C 654.683594 316.121094 657.53125 318.851562 660.453125 318.851562 C 664.136719 318.851562 667.625 316.265625 667.625 314.089844 L 667.625 257.4375 C 667.625 254.183594 669.640625 251.277344 672.675781 250.132812 C 673.582031 249.789062 674.511719 249.621094 675.453125 249.621094 Z M 675.453125 249.621094 " fill-opacity="1" fill-rule="nonzero"/></svg>