<svg xmlns="http://www.w3.org/2000/svg" xmlns:xlink="http://www.w3.org/1999/xlink" width="1280" zoomAndPan="magnify" viewBox="0 0 960 540.000001" height="720" preserveAspectRatio="xMidYMid meet" version="1.0"><defs><clipPath id="0c5db1cb76"><path d="M 0.886719 0 L 959.113281 0 L 959.113281 539 L 0.886719 539 Z M 0.886719 0 " clip-rule="nonzero"/></clipPath><clipPath id="29626a7314"><path d="M 308 140 L 708 140 L 708 398.96875 L 308 398.96875 Z M 308 140 " clip-rule="nonzero"/></clipPath><clipPath id="26efe8cc0e"><path d="M 473 147 L 509 147 L 509 183 L 473 183 Z M 473 147 " clip-rule="nonzero"/></clipPath><clipPath id="d25188550a"><path d="M 387.957031 143.953125 L 387.957031 226.089844 L 348.664062 226.089844 L 348.664062 267.15625 L 315.769531 267.15625 L 315.402344 270.726562 C 313.347656 293.101562 317.25 313.738281 326.230469 331.382812 L 329.246094 336.792969 C 331.03125 340.035156 333.171875 343.082031 335.382812 346.054688 C 337.59375 349.027344 338.394531 350.667969 339.796875 352.640625 C 363.523438 379.28125 398.902344 392.136719 439.746094 392.136719 C 530.199219 392.136719 606.964844 352.074219 640.945312 262.070312 C 665.039062 264.542969 688.167969 258.363281 698.703125 237.800781 C 681.914062 228.113281 660.34375 231.21875 647.917969 237.464844 L 680.847656 143.945312 L 552.265625 226.082031 L 511.1875 226.082031 L 511.1875 143.945312 Z M 387.957031 143.953125 " clip-rule="nonzero"/></clipPath><clipPath id="5f4fdbc0de"><path d="M 477 150 L 505 150 L 505 180 L 477 180 Z M 477 150 " clip-rule="nonzero"/></clipPath><clipPath id="2611190d33"><path d="M 387.957031 143.953125 L 387.957031 226.089844 L 348.664062 226.089844 L 348.664062 267.15625 L 315.769531 267.15625 L 315.402344 270.726562 C 313.347656 293.101562 317.25 313.738281 326.230469 331.382812 L 329.246094 336.792969 C 331.03125 340.035156 333.171875 343.082031 335.382812 346.054688 C 337.59375 349.027344 338.394531 350.667969 339.796875 352.640625 C 363.523438 379.28125 398.902344 392.136719 439.746094 392.136719 C 530.199219 392.136719 606.964844 352.074219 640.945312 262.070312 C 665.039062 264.542969 688.167969 258.363281 698.703125 237.800781 C 681.914062 228.113281 660.34375 231.21875 647.917969 237.464844 L 680.847656 143.945312 L 552.265625 226.082031 L 511.1875 226.082031 L 511.1875 143.945312 Z M 387.957031 143.953125 " clip-rule="nonzero"/></clipPath><clipPath id="7d06719895"><path d="M 476 148 L 506 148 L 506 182 L 476 182 Z M 476 148 " clip-rule="nonzero"/></clipPath><clipPath id="e262a4147f"><path d="M 387.957031 143.953125 L 387.957031 226.089844 L 348.664062 226.089844 L 348.664062 267.15625 L 315.769531 267.15625 L 315.402344 270.726562 C 313.347656 293.101562 317.25 313.738281 326.230469 331.382812 L 329.246094 336.792969 C 331.03125 340.035156 333.171875 343.082031 335.382812 346.054688 C 337.59375 349.027344 338.394531 350.667969 339.796875 352.640625 C 363.523438 379.28125 398.902344 392.136719 439.746094 392.136719 C 530.199219 392.136719 606.964844 352.074219 640.945312 262.070312 C 665.039062 264.542969 688.167969 258.363281 698.703125 237.800781 C 681.914062 228.113281 660.34375 231.21875 647.917969 237.464844 L 680.847656 143.945312 L 552.265625 226.082031 L 511.1875 226.082031 L 511.1875 143.945312 Z M 387.957031 143.953125 " clip-rule="nonzero"/></clipPath><clipPath id="84385f6ce0"><path d="M 514 147 L 550 147 L 550 183 L 514 183 Z M 514 147 " clip-rule="nonzero"/></clipPath><clipPath id="199cef117d"><path d="M 387.957031 143.953125 L 387.957031 226.089844 L 348.664062 226.089844 L 348.664062 267.15625 L 315.769531 267.15625 L 315.402344 270.726562 C 313.347656 293.101562 317.25 313.738281 326.230469 331.382812 L 329.246094 336.792969 C 331.03125 340.035156 333.171875 343.082031 335.382812 346.054688 C 337.59375 349.027344 338.394531 350.667969 339.796875 352.640625 C 363.523438 379.28125 398.902344 392.136719 439.746094 392.136719 C 530.199219 392.136719 606.964844 352.074219 640.945312 262.070312 C 665.039062 264.542969 688.167969 258.363281 698.703125 237.800781 C 681.914062 228.113281 660.34375 231.21875 647.917969 237.464844 L 680.847656 143.945312 L 552.265625 226.082031 L 511.1875 226.082031 L 511.1875 143.945312 Z M 387.957031 143.953125 " clip-rule="nonzero"/></clipPath><clipPath id="95d88554ca"><path d="M 518 150 L 546 150 L 546 180 L 518 180 Z M 518 150 " clip-rule="nonzero"/></clipPath><clipPath id="2c6539275b"><path d="M 387.957031 143.953125 L 387.957031 226.089844 L 348.664062 226.089844 L 348.664062 267.15625 L 315.769531 267.15625 L 315.402344 270.726562 C 313.347656 293.101562 317.25 313.738281 326.230469 331.382812 L 329.246094 336.792969 C 331.03125 340.035156 333.171875 343.082031 335.382812 346.054688 C 337.59375 349.027344 338.394531 350.667969 339.796875 352.640625 C 363.523438 379.28125 398.902344 392.136719 439.746094 392.136719 C 530.199219 392.136719 606.964844 352.074219 640.945312 262.070312 C 665.039062 264.542969 688.167969 258.363281 698.703125 237.800781 C 681.914062 228.113281 660.34375 231.21875 647.917969 237.464844 L 680.847656 143.945312 L 552.265625 226.082031 L 511.1875 226.082031 L 511.1875 143.945312 Z M 387.957031 143.953125 " clip-rule="nonzero"/></clipPath><clipPath id="0979382e46"><path d="M 517 148 L 547 148 L 547 182 L 517 182 Z M 517 148 " clip-rule="nonzero"/></clipPath><clipPath id="1a49428328"><path d="M 387.957031 143.953125 L 387.957031 226.089844 L 348.664062 226.089844 L 348.664062 267.15625 L 315.769531 267.15625 L 315.402344 270.726562 C 313.347656 293.101562 317.25 313.738281 326.230469 331.382812 L 329.246094 336.792969 C 331.03125 340.035156 333.171875 343.082031 335.382812 346.054688 C 337.59375 349.027344 338.394531 350.667969 339.796875 352.640625 C 363.523438 379.28125 398.902344 392.136719 439.746094 392.136719 C 530.199219 392.136719 606.964844 352.074219 640.945312 262.070312 C 665.039062 264.542969 688.167969 258.363281 698.703125 237.800781 C 681.914062 228.113281 660.34375 231.21875 647.917969 237.464844 L 680.847656 143.945312 L 552.265625 226.082031 L 511.1875 226.082031 L 511.1875 143.945312 Z M 387.957031 143.953125 " clip-rule="nonzero"/></clipPath><clipPath id="53125988d6"><path d="M 314.734375 187 L 346 187 L 346 224 L 314.734375 224 Z M 314.734375 187 " clip-rule="nonzero"/></clipPath><clipPath id="61e2c6c1fb"><path d="M 387.957031 143.953125 L 387.957031 226.089844 L 348.664062 226.089844 L 348.664062 267.15625 L 315.769531 267.15625 L 315.402344 270.726562 C 313.347656 293.101562 317.25 313.738281 326.230469 331.382812 L 329.246094 336.792969 C 331.03125 340.035156 333.171875 343.082031 335.382812 346.054688 C 337.59375 349.027344 338.394531 350.667969 339.796875 352.640625 C 363.523438 379.28125 398.902344 392.136719 439.746094 392.136719 C 530.199219 392.136719 606.964844 352.074219 640.945312 262.070312 C 665.039062 264.542969 688.167969 258.363281 698.703125 237.800781 C 681.914062 228.113281 660.34375 231.21875 647.917969 237.464844 L 680.847656 143.945312 L 552.265625 226.082031 L 511.1875 226.082031 L 511.1875 143.945312 Z M 387.957031 143.953125 " clip-rule="nonzero"/></clipPath><clipPath id="cc7e098a5b"><path d="M 314.734375 228 L 346 228 L 346 265 L 314.734375 265 Z M 314.734375 228 " clip-rule="nonzero"/></clipPath><clipPath id="21e2fa24e0"><path d="M 387.957031 143.953125 L 387.957031 226.089844 L 348.664062 226.089844 L 348.664062 267.15625 L 315.769531 267.15625 L 315.402344 270.726562 C 313.347656 293.101562 317.25 313.738281 326.230469 331.382812 L 329.246094 336.792969 C 331.03125 340.035156 333.171875 343.082031 335.382812 346.054688 C 337.59375 349.027344 338.394531 350.667969 339.796875 352.640625 C 363.523438 379.28125 398.902344 392.136719 439.746094 392.136719 C 530.199219 392.136719 606.964844 352.074219 640.945312 262.070312 C 665.039062 264.542969 688.167969 258.363281 698.703125 237.800781 C 681.914062 228.113281 660.34375 231.21875 647.917969 237.464844 L 680.847656 143.945312 L 552.265625 226.082031 L 511.1875 226.082031 L 511.1875 143.945312 Z M 387.957031 143.953125 " clip-rule="nonzero"/></clipPath><clipPath id="da357ce019"><path d="M 314.734375 190 L 342 190 L 342 221 L 314.734375 221 Z M 314.734375 190 " clip-rule="nonzero"/></clipPath><clipPath id="02267e9328"><path d="M 387.957031 143.953125 L 387.957031 226.089844 L 348.664062 226.089844 L 348.664062 267.15625 L 315.769531 267.15625 L 315.402344 270.726562 C 313.347656 293.101562 317.25 313.738281 326.230469 331.382812 L 329.246094 336.792969 C 331.03125 340.035156 333.171875 343.082031 335.382812 346.054688 C 337.59375 349.027344 338.394531 350.667969 339.796875 352.640625 C 363.523438 379.28125 398.902344 392.136719 439.746094 392.136719 C 530.199219 392.136719 606.964844 352.074219 640.945312 262.070312 C 665.039062 264.542969 688.167969 258.363281 698.703125 237.800781 C 681.914062 228.113281 660.34375 231.21875 647.917969 237.464844 L 680.847656 143.945312 L 552.265625 226.082031 L 511.1875 226.082031 L 511.1875 143.945312 Z M 387.957031 143.953125 " clip-rule="nonzero"/></clipPath><clipPath id="edab94da3d"><path d="M 314.734375 189 L 343 189 L 343 222 L 314.734375 222 Z M 314.734375 189 " clip-rule="nonzero"/></clipPath><clipPath id="5d68105883"><path d="M 387.957031 143.953125 L 387.957031 226.089844 L 348.664062 226.089844 L 348.664062 267.15625 L 315.769531 267.15625 L 315.402344 270.726562 C 313.347656 293.101562 317.25 313.738281 326.230469 331.382812 L 329.246094 336.792969 C 331.03125 340.035156 333.171875 343.082031 335.382812 346.054688 C 337.59375 349.027344 338.394531 350.667969 339.796875 352.640625 C 363.523438 379.28125 398.902344 392.136719 439.746094 392.136719 C 530.199219 392.136719 606.964844 352.074219 640.945312 262.070312 C 665.039062 264.542969 688.167969 258.363281 698.703125 237.800781 C 681.914062 228.113281 660.34375 231.21875 647.917969 237.464844 L 680.847656 143.945312 L 552.265625 226.082031 L 511.1875 226.082031 L 511.1875 143.945312 Z M 387.957031 143.953125 " clip-rule="nonzero"/></clipPath><clipPath id="1fe0925fae"><path d="M 314.734375 231 L 342 231 L 342 262 L 314.734375 262 Z M 314.734375 231 " clip-rule="nonzero"/></clipPath><clipPath id="f376d98175"><path d="M 387.957031 143.953125 L 387.957031 226.089844 L 348.664062 226.089844 L 348.664062 267.15625 L 315.769531 267.15625 L 315.402344 270.726562 C 313.347656 293.101562 317.25 313.738281 326.230469 331.382812 L 329.246094 336.792969 C 331.03125 340.035156 333.171875 343.082031 335.382812 346.054688 C 337.59375 349.027344 338.394531 350.667969 339.796875 352.640625 C 363.523438 379.28125 398.902344 392.136719 439.746094 392.136719 C 530.199219 392.136719 606.964844 352.074219 640.945312 262.070312 C 665.039062 264.542969 688.167969 258.363281 698.703125 237.800781 C 681.914062 228.113281 660.34375 231.21875 647.917969 237.464844 L 680.847656 143.945312 L 552.265625 226.082031 L 511.1875 226.082031 L 511.1875 143.945312 Z M 387.957031 143.953125 " clip-rule="nonzero"/></clipPath><clipPath id="06a740dee0"><path d="M 314.734375 230 L 343 230 L 343 263 L 314.734375 263 Z M 314.734375 230 " clip-rule="nonzero"/></clipPath><clipPath id="8066899130"><path d="M 387.957031 143.953125 L 387.957031 226.089844 L 348.664062 226.089844 L 348.664062 267.15625 L 315.769531 267.15625 L 315.402344 270.726562 C 313.347656 293.101562 317.25 313.738281 326.230469 331.382812 L 329.246094 336.792969 C 331.03125 340.035156 333.171875 343.082031 335.382812 346.054688 C 337.59375 349.027344 338.394531 350.667969 339.796875 352.640625 C 363.523438 379.28125 398.902344 392.136719 439.746094 392.136719 C 530.199219 392.136719 606.964844 352.074219 640.945312 262.070312 C 665.039062 264.542969 688.167969 258.363281 698.703125 237.800781 C 681.914062 228.113281 660.34375 231.21875 647.917969 237.464844 L 680.847656 143.945312 L 552.265625 226.082031 L 511.1875 226.082031 L 511.1875 143.945312 Z M 387.957031 143.953125 " clip-rule="nonzero"/></clipPath><clipPath id="3885bd008f"><path d="M 350 228 L 387 228 L 387 265 L 350 265 Z M 350 228 " clip-rule="nonzero"/></clipPath><clipPath id="75afc01bfd"><path d="M 387.957031 143.953125 L 387.957031 226.089844 L 348.664062 226.089844 L 348.664062 267.15625 L 315.769531 267.15625 L 315.402344 270.726562 C 313.347656 293.101562 317.25 313.738281 326.230469 331.382812 L 329.246094 336.792969 C 331.03125 340.035156 333.171875 343.082031 335.382812 346.054688 C 337.59375 349.027344 338.394531 350.667969 339.796875 352.640625 C 363.523438 379.28125 398.902344 392.136719 439.746094 392.136719 C 530.199219 392.136719 606.964844 352.074219 640.945312 262.070312 C 665.039062 264.542969 688.167969 258.363281 698.703125 237.800781 C 681.914062 228.113281 660.34375 231.21875 647.917969 237.464844 L 680.847656 143.945312 L 552.265625 226.082031 L 511.1875 226.082031 L 511.1875 143.945312 Z M 387.957031 143.953125 " clip-rule="nonzero"/></clipPath><clipPath id="d98486416d"><path d="M 350 188 L 387 188 L 387 224 L 350 224 Z M 350 188 " clip-rule="nonzero"/></clipPath><clipPath id="0b7be68e03"><path d="M 387.957031 143.953125 L 387.957031 226.089844 L 348.664062 226.089844 L 348.664062 267.15625 L 315.769531 267.15625 L 315.402344 270.726562 C 313.347656 293.101562 317.25 313.738281 326.230469 331.382812 L 329.246094 336.792969 C 331.03125 340.035156 333.171875 343.082031 335.382812 346.054688 C 337.59375 349.027344 338.394531 350.667969 339.796875 352.640625 C 363.523438 379.28125 398.902344 392.136719 439.746094 392.136719 C 530.199219 392.136719 606.964844 352.074219 640.945312 262.070312 C 665.039062 264.542969 688.167969 258.363281 698.703125 237.800781 C 681.914062 228.113281 660.34375 231.21875 647.917969 237.464844 L 680.847656 143.945312 L 552.265625 226.082031 L 511.1875 226.082031 L 511.1875 143.945312 Z M 387.957031 143.953125 " clip-rule="nonzero"/></clipPath><clipPath id="8ea986eb0b"><path d="M 355 231 L 382 231 L 382 262 L 355 262 Z M 355 231 " clip-rule="nonzero"/></clipPath><clipPath id="530413039f"><path d="M 387.957031 143.953125 L 387.957031 226.089844 L 348.664062 226.089844 L 348.664062 267.15625 L 315.769531 267.15625 L 315.402344 270.726562 C 313.347656 293.101562 317.25 313.738281 326.230469 331.382812 L 329.246094 336.792969 C 331.03125 340.035156 333.171875 343.082031 335.382812 346.054688 C 337.59375 349.027344 338.394531 350.667969 339.796875 352.640625 C 363.523438 379.28125 398.902344 392.136719 439.746094 392.136719 C 530.199219 392.136719 606.964844 352.074219 640.945312 262.070312 C 665.039062 264.542969 688.167969 258.363281 698.703125 237.800781 C 681.914062 228.113281 660.34375 231.21875 647.917969 237.464844 L 680.847656 143.945312 L 552.265625 226.082031 L 511.1875 226.082031 L 511.1875 143.945312 Z M 387.957031 143.953125 " clip-rule="nonzero"/></clipPath><clipPath id="44255c17d7"><path d="M 353 230 L 384 230 L 384 263 L 353 263 Z M 353 230 " clip-rule="nonzero"/></clipPath><clipPath id="9ee2a47716"><path d="M 387.957031 143.953125 L 387.957031 226.089844 L 348.664062 226.089844 L 348.664062 267.15625 L 315.769531 267.15625 L 315.402344 270.726562 C 313.347656 293.101562 317.25 313.738281 326.230469 331.382812 L 329.246094 336.792969 C 331.03125 340.035156 333.171875 343.082031 335.382812 346.054688 C 337.59375 349.027344 338.394531 350.667969 339.796875 352.640625 C 363.523438 379.28125 398.902344 392.136719 439.746094 392.136719 C 530.199219 392.136719 606.964844 352.074219 640.945312 262.070312 C 665.039062 264.542969 688.167969 258.363281 698.703125 237.800781 C 681.914062 228.113281 660.34375 231.21875 647.917969 237.464844 L 680.847656 143.945312 L 552.265625 226.082031 L 511.1875 226.082031 L 511.1875 143.945312 Z M 387.957031 143.953125 " clip-rule="nonzero"/></clipPath><clipPath id="a0f33ed9d1"><path d="M 355 190 L 382 190 L 382 221 L 355 221 Z M 355 190 " clip-rule="nonzero"/></clipPath><clipPath id="2e1edae07f"><path d="M 387.957031 143.953125 L 387.957031 226.089844 L 348.664062 226.089844 L 348.664062 267.15625 L 315.769531 267.15625 L 315.402344 270.726562 C 313.347656 293.101562 317.25 313.738281 326.230469 331.382812 L 329.246094 336.792969 C 331.03125 340.035156 333.171875 343.082031 335.382812 346.054688 C 337.59375 349.027344 338.394531 350.667969 339.796875 352.640625 C 363.523438 379.28125 398.902344 392.136719 439.746094 392.136719 C 530.199219 392.136719 606.964844 352.074219 640.945312 262.070312 C 665.039062 264.542969 688.167969 258.363281 698.703125 237.800781 C 681.914062 228.113281 660.34375 231.21875 647.917969 237.464844 L 680.847656 143.945312 L 552.265625 226.082031 L 511.1875 226.082031 L 511.1875 143.945312 Z M 387.957031 143.953125 " clip-rule="nonzero"/></clipPath><clipPath id="c6c5e8b9b5"><path d="M 353 189 L 384 189 L 384 222 L 353 222 Z M 353 189 " clip-rule="nonzero"/></clipPath><clipPath id="82626235a3"><path d="M 387.957031 143.953125 L 387.957031 226.089844 L 348.664062 226.089844 L 348.664062 267.15625 L 315.769531 267.15625 L 315.402344 270.726562 C 313.347656 293.101562 317.25 313.738281 326.230469 331.382812 L 329.246094 336.792969 C 331.03125 340.035156 333.171875 343.082031 335.382812 346.054688 C 337.59375 349.027344 338.394531 350.667969 339.796875 352.640625 C 363.523438 379.28125 398.902344 392.136719 439.746094 392.136719 C 530.199219 392.136719 606.964844 352.074219 640.945312 262.070312 C 665.039062 264.542969 688.167969 258.363281 698.703125 237.800781 C 681.914062 228.113281 660.34375 231.21875 647.917969 237.464844 L 680.847656 143.945312 L 552.265625 226.082031 L 511.1875 226.082031 L 511.1875 143.945312 Z M 387.957031 143.953125 " clip-rule="nonzero"/></clipPath><clipPath id="8de6878c2f"><path d="M 391 187 L 428 187 L 428 224 L 391 224 Z M 391 187 " clip-rule="nonzero"/></clipPath><clipPath id="63ca37ceea"><path d="M 387.957031 143.953125 L 387.957031 226.089844 L 348.664062 226.089844 L 348.664062 267.15625 L 315.769531 267.15625 L 315.402344 270.726562 C 313.347656 293.101562 317.25 313.738281 326.230469 331.382812 L 329.246094 336.792969 C 331.03125 340.035156 333.171875 343.082031 335.382812 346.054688 C 337.59375 349.027344 338.394531 350.667969 339.796875 352.640625 C 363.523438 379.28125 398.902344 392.136719 439.746094 392.136719 C 530.199219 392.136719 606.964844 352.074219 640.945312 262.070312 C 665.039062 264.542969 688.167969 258.363281 698.703125 237.800781 C 681.914062 228.113281 660.34375 231.21875 647.917969 237.464844 L 680.847656 143.945312 L 552.265625 226.082031 L 511.1875 226.082031 L 511.1875 143.945312 Z M 387.957031 143.953125 " clip-rule="nonzero"/></clipPath><clipPath id="d521fdfb63"><path d="M 391 228 L 428 228 L 428 265 L 391 265 Z M 391 228 " clip-rule="nonzero"/></clipPath><clipPath id="3128eecbc3"><path d="M 387.957031 143.953125 L 387.957031 226.089844 L 348.664062 226.089844 L 348.664062 267.15625 L 315.769531 267.15625 L 315.402344 270.726562 C 313.347656 293.101562 317.25 313.738281 326.230469 331.382812 L 329.246094 336.792969 C 331.03125 340.035156 333.171875 343.082031 335.382812 346.054688 C 337.59375 349.027344 338.394531 350.667969 339.796875 352.640625 C 363.523438 379.28125 398.902344 392.136719 439.746094 392.136719 C 530.199219 392.136719 606.964844 352.074219 640.945312 262.070312 C 665.039062 264.542969 688.167969 258.363281 698.703125 237.800781 C 681.914062 228.113281 660.34375 231.21875 647.917969 237.464844 L 680.847656 143.945312 L 552.265625 226.082031 L 511.1875 226.082031 L 511.1875 143.945312 Z M 387.957031 143.953125 " clip-rule="nonzero"/></clipPath><clipPath id="1e9d000a1e"><path d="M 396 190 L 423 190 L 423 221 L 396 221 Z M 396 190 " clip-rule="nonzero"/></clipPath><clipPath id="216af1c1db"><path d="M 387.957031 143.953125 L 387.957031 226.089844 L 348.664062 226.089844 L 348.664062 267.15625 L 315.769531 267.15625 L 315.402344 270.726562 C 313.347656 293.101562 317.25 313.738281 326.230469 331.382812 L 329.246094 336.792969 C 331.03125 340.035156 333.171875 343.082031 335.382812 346.054688 C 337.59375 349.027344 338.394531 350.667969 339.796875 352.640625 C 363.523438 379.28125 398.902344 392.136719 439.746094 392.136719 C 530.199219 392.136719 606.964844 352.074219 640.945312 262.070312 C 665.039062 264.542969 688.167969 258.363281 698.703125 237.800781 C 681.914062 228.113281 660.34375 231.21875 647.917969 237.464844 L 680.847656 143.945312 L 552.265625 226.082031 L 511.1875 226.082031 L 511.1875 143.945312 Z M 387.957031 143.953125 " clip-rule="nonzero"/></clipPath><clipPath id="697533bf6f"><path d="M 394 189 L 425 189 L 425 222 L 394 222 Z M 394 189 " clip-rule="nonzero"/></clipPath><clipPath id="10df30bf5e"><path d="M 387.957031 143.953125 L 387.957031 226.089844 L 348.664062 226.089844 L 348.664062 267.15625 L 315.769531 267.15625 L 315.402344 270.726562 C 313.347656 293.101562 317.25 313.738281 326.230469 331.382812 L 329.246094 336.792969 C 331.03125 340.035156 333.171875 343.082031 335.382812 346.054688 C 337.59375 349.027344 338.394531 350.667969 339.796875 352.640625 C 363.523438 379.28125 398.902344 392.136719 439.746094 392.136719 C 530.199219 392.136719 606.964844 352.074219 640.945312 262.070312 C 665.039062 264.542969 688.167969 258.363281 698.703125 237.800781 C 681.914062 228.113281 660.34375 231.21875 647.917969 237.464844 L 680.847656 143.945312 L 552.265625 226.082031 L 511.1875 226.082031 L 511.1875 143.945312 Z M 387.957031 143.953125 " clip-rule="nonzero"/></clipPath><clipPath id="e4c19a7247"><path d="M 396 231 L 423 231 L 423 262 L 396 262 Z M 396 231 " clip-rule="nonzero"/></clipPath><clipPath id="6b6a706c03"><path d="M 387.957031 143.953125 L 387.957031 226.089844 L 348.664062 226.089844 L 348.664062 267.15625 L 315.769531 267.15625 L 315.402344 270.726562 C 313.347656 293.101562 317.25 313.738281 326.230469 331.382812 L 329.246094 336.792969 C 331.03125 340.035156 333.171875 343.082031 335.382812 346.054688 C 337.59375 349.027344 338.394531 350.667969 339.796875 352.640625 C 363.523438 379.28125 398.902344 392.136719 439.746094 392.136719 C 530.199219 392.136719 606.964844 352.074219 640.945312 262.070312 C 665.039062 264.542969 688.167969 258.363281 698.703125 237.800781 C 681.914062 228.113281 660.34375 231.21875 647.917969 237.464844 L 680.847656 143.945312 L 552.265625 226.082031 L 511.1875 226.082031 L 511.1875 143.945312 Z M 387.957031 143.953125 " clip-rule="nonzero"/></clipPath><clipPath id="fa30b8ac5e"><path d="M 394 230 L 425 230 L 425 263 L 394 263 Z M 394 230 " clip-rule="nonzero"/></clipPath><clipPath id="052dab29cb"><path d="M 387.957031 143.953125 L 387.957031 226.089844 L 348.664062 226.089844 L 348.664062 267.15625 L 315.769531 267.15625 L 315.402344 270.726562 C 313.347656 293.101562 317.25 313.738281 326.230469 331.382812 L 329.246094 336.792969 C 331.03125 340.035156 333.171875 343.082031 335.382812 346.054688 C 337.59375 349.027344 338.394531 350.667969 339.796875 352.640625 C 363.523438 379.28125 398.902344 392.136719 439.746094 392.136719 C 530.199219 392.136719 606.964844 352.074219 640.945312 262.070312 C 665.039062 264.542969 688.167969 258.363281 698.703125 237.800781 C 681.914062 228.113281 660.34375 231.21875 647.917969 237.464844 L 680.847656 143.945312 L 552.265625 226.082031 L 511.1875 226.082031 L 511.1875 143.945312 Z M 387.957031 143.953125 " clip-rule="nonzero"/></clipPath><clipPath id="dd47354903"><path d="M 432 228 L 468 228 L 468 265 L 432 265 Z M 432 228 " clip-rule="nonzero"/></clipPath><clipPath id="1c12132df9"><path d="M 387.957031 143.953125 L 387.957031 226.089844 L 348.664062 226.089844 L 348.664062 267.15625 L 315.769531 267.15625 L 315.402344 270.726562 C 313.347656 293.101562 317.25 313.738281 326.230469 331.382812 L 329.246094 336.792969 C 331.03125 340.035156 333.171875 343.082031 335.382812 346.054688 C 337.59375 349.027344 338.394531 350.667969 339.796875 352.640625 C 363.523438 379.28125 398.902344 392.136719 439.746094 392.136719 C 530.199219 392.136719 606.964844 352.074219 640.945312 262.070312 C 665.039062 264.542969 688.167969 258.363281 698.703125 237.800781 C 681.914062 228.113281 660.34375 231.21875 647.917969 237.464844 L 680.847656 143.945312 L 552.265625 226.082031 L 511.1875 226.082031 L 511.1875 143.945312 Z M 387.957031 143.953125 " clip-rule="nonzero"/></clipPath><clipPath id="641100e666"><path d="M 432 188 L 468 188 L 468 224 L 432 224 Z M 432 188 " clip-rule="nonzero"/></clipPath><clipPath id="ec27c7bb72"><path d="M 387.957031 143.953125 L 387.957031 226.089844 L 348.664062 226.089844 L 348.664062 267.15625 L 315.769531 267.15625 L 315.402344 270.726562 C 313.347656 293.101562 317.25 313.738281 326.230469 331.382812 L 329.246094 336.792969 C 331.03125 340.035156 333.171875 343.082031 335.382812 346.054688 C 337.59375 349.027344 338.394531 350.667969 339.796875 352.640625 C 363.523438 379.28125 398.902344 392.136719 439.746094 392.136719 C 530.199219 392.136719 606.964844 352.074219 640.945312 262.070312 C 665.039062 264.542969 688.167969 258.363281 698.703125 237.800781 C 681.914062 228.113281 660.34375 231.21875 647.917969 237.464844 L 680.847656 143.945312 L 552.265625 226.082031 L 511.1875 226.082031 L 511.1875 143.945312 Z M 387.957031 143.953125 " clip-rule="nonzero"/></clipPath><clipPath id="cb0a3561ca"><path d="M 436 231 L 464 231 L 464 262 L 436 262 Z M 436 231 " clip-rule="nonzero"/></clipPath><clipPath id="f25bff5d61"><path d="M 387.957031 143.953125 L 387.957031 226.089844 L 348.664062 226.089844 L 348.664062 267.15625 L 315.769531 267.15625 L 315.402344 270.726562 C 313.347656 293.101562 317.25 313.738281 326.230469 331.382812 L 329.246094 336.792969 C 331.03125 340.035156 333.171875 343.082031 335.382812 346.054688 C 337.59375 349.027344 338.394531 350.667969 339.796875 352.640625 C 363.523438 379.28125 398.902344 392.136719 439.746094 392.136719 C 530.199219 392.136719 606.964844 352.074219 640.945312 262.070312 C 665.039062 264.542969 688.167969 258.363281 698.703125 237.800781 C 681.914062 228.113281 660.34375 231.21875 647.917969 237.464844 L 680.847656 143.945312 L 552.265625 226.082031 L 511.1875 226.082031 L 511.1875 143.945312 Z M 387.957031 143.953125 " clip-rule="nonzero"/></clipPath><clipPath id="8892ae8f26"><path d="M 435 230 L 466 230 L 466 263 L 435 263 Z M 435 230 " clip-rule="nonzero"/></clipPath><clipPath id="f353152ebf"><path d="M 387.957031 143.953125 L 387.957031 226.089844 L 348.664062 226.089844 L 348.664062 267.15625 L 315.769531 267.15625 L 315.402344 270.726562 C 313.347656 293.101562 317.25 313.738281 326.230469 331.382812 L 329.246094 336.792969 C 331.03125 340.035156 333.171875 343.082031 335.382812 346.054688 C 337.59375 349.027344 338.394531 350.667969 339.796875 352.640625 C 363.523438 379.28125 398.902344 392.136719 439.746094 392.136719 C 530.199219 392.136719 606.964844 352.074219 640.945312 262.070312 C 665.039062 264.542969 688.167969 258.363281 698.703125 237.800781 C 681.914062 228.113281 660.34375 231.21875 647.917969 237.464844 L 680.847656 143.945312 L 552.265625 226.082031 L 511.1875 226.082031 L 511.1875 143.945312 Z M 387.957031 143.953125 " clip-rule="nonzero"/></clipPath><clipPath id="2a44fb4044"><path d="M 436 190 L 464 190 L 464 221 L 436 221 Z M 436 190 " clip-rule="nonzero"/></clipPath><clipPath id="f167fb478e"><path d="M 387.957031 143.953125 L 387.957031 226.089844 L 348.664062 226.089844 L 348.664062 267.15625 L 315.769531 267.15625 L 315.402344 270.726562 C 313.347656 293.101562 317.25 313.738281 326.230469 331.382812 L 329.246094 336.792969 C 331.03125 340.035156 333.171875 343.082031 335.382812 346.054688 C 337.59375 349.027344 338.394531 350.667969 339.796875 352.640625 C 363.523438 379.28125 398.902344 392.136719 439.746094 392.136719 C 530.199219 392.136719 606.964844 352.074219 640.945312 262.070312 C 665.039062 264.542969 688.167969 258.363281 698.703125 237.800781 C 681.914062 228.113281 660.34375 231.21875 647.917969 237.464844 L 680.847656 143.945312 L 552.265625 226.082031 L 511.1875 226.082031 L 511.1875 143.945312 Z M 387.957031 143.953125 " clip-rule="nonzero"/></clipPath><clipPath id="050793bfd7"><path d="M 435 189 L 466 189 L 466 222 L 435 222 Z M 435 189 " clip-rule="nonzero"/></clipPath><clipPath id="0b3c53cd26"><path d="M 387.957031 143.953125 L 387.957031 226.089844 L 348.664062 226.089844 L 348.664062 267.15625 L 315.769531 267.15625 L 315.402344 270.726562 C 313.347656 293.101562 317.25 313.738281 326.230469 331.382812 L 329.246094 336.792969 C 331.03125 340.035156 333.171875 343.082031 335.382812 346.054688 C 337.59375 349.027344 338.394531 350.667969 339.796875 352.640625 C 363.523438 379.28125 398.902344 392.136719 439.746094 392.136719 C 530.199219 392.136719 606.964844 352.074219 640.945312 262.070312 C 665.039062 264.542969 688.167969 258.363281 698.703125 237.800781 C 681.914062 228.113281 660.34375 231.21875 647.917969 237.464844 L 680.847656 143.945312 L 552.265625 226.082031 L 511.1875 226.082031 L 511.1875 143.945312 Z M 387.957031 143.953125 " clip-rule="nonzero"/></clipPath><clipPath id="c31abe6da3"><path d="M 473 187 L 509 187 L 509 224 L 473 224 Z M 473 187 " clip-rule="nonzero"/></clipPath><clipPath id="2801aa27b6"><path d="M 387.957031 143.953125 L 387.957031 226.089844 L 348.664062 226.089844 L 348.664062 267.15625 L 315.769531 267.15625 L 315.402344 270.726562 C 313.347656 293.101562 317.25 313.738281 326.230469 331.382812 L 329.246094 336.792969 C 331.03125 340.035156 333.171875 343.082031 335.382812 346.054688 C 337.59375 349.027344 338.394531 350.667969 339.796875 352.640625 C 363.523438 379.28125 398.902344 392.136719 439.746094 392.136719 C 530.199219 392.136719 606.964844 352.074219 640.945312 262.070312 C 665.039062 264.542969 688.167969 258.363281 698.703125 237.800781 C 681.914062 228.113281 660.34375 231.21875 647.917969 237.464844 L 680.847656 143.945312 L 552.265625 226.082031 L 511.1875 226.082031 L 511.1875 143.945312 Z M 387.957031 143.953125 " clip-rule="nonzero"/></clipPath><clipPath id="90209decba"><path d="M 473 228 L 509 228 L 509 265 L 473 265 Z M 473 228 " clip-rule="nonzero"/></clipPath><clipPath id="8ab1eaad36"><path d="M 387.957031 143.953125 L 387.957031 226.089844 L 348.664062 226.089844 L 348.664062 267.15625 L 315.769531 267.15625 L 315.402344 270.726562 C 313.347656 293.101562 317.25 313.738281 326.230469 331.382812 L 329.246094 336.792969 C 331.03125 340.035156 333.171875 343.082031 335.382812 346.054688 C 337.59375 349.027344 338.394531 350.667969 339.796875 352.640625 C 363.523438 379.28125 398.902344 392.136719 439.746094 392.136719 C 530.199219 392.136719 606.964844 352.074219 640.945312 262.070312 C 665.039062 264.542969 688.167969 258.363281 698.703125 237.800781 C 681.914062 228.113281 660.34375 231.21875 647.917969 237.464844 L 680.847656 143.945312 L 552.265625 226.082031 L 511.1875 226.082031 L 511.1875 143.945312 Z M 387.957031 143.953125 " clip-rule="nonzero"/></clipPath><clipPath id="390f21672d"><path d="M 477 190 L 505 190 L 505 221 L 477 221 Z M 477 190 " clip-rule="nonzero"/></clipPath><clipPath id="0b68b0de3e"><path d="M 387.957031 143.953125 L 387.957031 226.089844 L 348.664062 226.089844 L 348.664062 267.15625 L 315.769531 267.15625 L 315.402344 270.726562 C 313.347656 293.101562 317.25 313.738281 326.230469 331.382812 L 329.246094 336.792969 C 331.03125 340.035156 333.171875 343.082031 335.382812 346.054688 C 337.59375 349.027344 338.394531 350.667969 339.796875 352.640625 C 363.523438 379.28125 398.902344 392.136719 439.746094 392.136719 C 530.199219 392.136719 606.964844 352.074219 640.945312 262.070312 C 665.039062 264.542969 688.167969 258.363281 698.703125 237.800781 C 681.914062 228.113281 660.34375 231.21875 647.917969 237.464844 L 680.847656 143.945312 L 552.265625 226.082031 L 511.1875 226.082031 L 511.1875 143.945312 Z M 387.957031 143.953125 " clip-rule="nonzero"/></clipPath><clipPath id="d9772372ab"><path d="M 476 189 L 506 189 L 506 222 L 476 222 Z M 476 189 " clip-rule="nonzero"/></clipPath><clipPath id="44a7548904"><path d="M 387.957031 143.953125 L 387.957031 226.089844 L 348.664062 226.089844 L 348.664062 267.15625 L 315.769531 267.15625 L 315.402344 270.726562 C 313.347656 293.101562 317.25 313.738281 326.230469 331.382812 L 329.246094 336.792969 C 331.03125 340.035156 333.171875 343.082031 335.382812 346.054688 C 337.59375 349.027344 338.394531 350.667969 339.796875 352.640625 C 363.523438 379.28125 398.902344 392.136719 439.746094 392.136719 C 530.199219 392.136719 606.964844 352.074219 640.945312 262.070312 C 665.039062 264.542969 688.167969 258.363281 698.703125 237.800781 C 681.914062 228.113281 660.34375 231.21875 647.917969 237.464844 L 680.847656 143.945312 L 552.265625 226.082031 L 511.1875 226.082031 L 511.1875 143.945312 Z M 387.957031 143.953125 " clip-rule="nonzero"/></clipPath><clipPath id="52c6522260"><path d="M 477 231 L 505 231 L 505 262 L 477 262 Z M 477 231 " clip-rule="nonzero"/></clipPath><clipPath id="6f960f33f0"><path d="M 387.957031 143.953125 L 387.957031 226.089844 L 348.664062 226.089844 L 348.664062 267.15625 L 315.769531 267.15625 L 315.402344 270.726562 C 313.347656 293.101562 317.25 313.738281 326.230469 331.382812 L 329.246094 336.792969 C 331.03125 340.035156 333.171875 343.082031 335.382812 346.054688 C 337.59375 349.027344 338.394531 350.667969 339.796875 352.640625 C 363.523438 379.28125 398.902344 392.136719 439.746094 392.136719 C 530.199219 392.136719 606.964844 352.074219 640.945312 262.070312 C 665.039062 264.542969 688.167969 258.363281 698.703125 237.800781 C 681.914062 228.113281 660.34375 231.21875 647.917969 237.464844 L 680.847656 143.945312 L 552.265625 226.082031 L 511.1875 226.082031 L 511.1875 143.945312 Z M 387.957031 143.953125 " clip-rule="nonzero"/></clipPath><clipPath id="e164c32593"><path d="M 476 230 L 506 230 L 506 263 L 476 263 Z M 476 230 " clip-rule="nonzero"/></clipPath><clipPath id="ae407b162d"><path d="M 387.957031 143.953125 L 387.957031 226.089844 L 348.664062 226.089844 L 348.664062 267.15625 L 315.769531 267.15625 L 315.402344 270.726562 C 313.347656 293.101562 317.25 313.738281 326.230469 331.382812 L 329.246094 336.792969 C 331.03125 340.035156 333.171875 343.082031 335.382812 346.054688 C 337.59375 349.027344 338.394531 350.667969 339.796875 352.640625 C 363.523438 379.28125 398.902344 392.136719 439.746094 392.136719 C 530.199219 392.136719 606.964844 352.074219 640.945312 262.070312 C 665.039062 264.542969 688.167969 258.363281 698.703125 237.800781 C 681.914062 228.113281 660.34375 231.21875 647.917969 237.464844 L 680.847656 143.945312 L 552.265625 226.082031 L 511.1875 226.082031 L 511.1875 143.945312 Z M 387.957031 143.953125 " clip-rule="nonzero"/></clipPath><clipPath id="20ce127487"><path d="M 514 228 L 550 228 L 550 265 L 514 265 Z M 514 228 " clip-rule="nonzero"/></clipPath><clipPath id="e44b5816d0"><path d="M 387.957031 143.953125 L 387.957031 226.089844 L 348.664062 226.089844 L 348.664062 267.15625 L 315.769531 267.15625 L 315.402344 270.726562 C 313.347656 293.101562 317.25 313.738281 326.230469 331.382812 L 329.246094 336.792969 C 331.03125 340.035156 333.171875 343.082031 335.382812 346.054688 C 337.59375 349.027344 338.394531 350.667969 339.796875 352.640625 C 363.523438 379.28125 398.902344 392.136719 439.746094 392.136719 C 530.199219 392.136719 606.964844 352.074219 640.945312 262.070312 C 665.039062 264.542969 688.167969 258.363281 698.703125 237.800781 C 681.914062 228.113281 660.34375 231.21875 647.917969 237.464844 L 680.847656 143.945312 L 552.265625 226.082031 L 511.1875 226.082031 L 511.1875 143.945312 Z M 387.957031 143.953125 " clip-rule="nonzero"/></clipPath><clipPath id="2c017fa55b"><path d="M 514 188 L 550 188 L 550 224 L 514 224 Z M 514 188 " clip-rule="nonzero"/></clipPath><clipPath id="5769eb50c8"><path d="M 387.957031 143.953125 L 387.957031 226.089844 L 348.664062 226.089844 L 348.664062 267.15625 L 315.769531 267.15625 L 315.402344 270.726562 C 313.347656 293.101562 317.25 313.738281 326.230469 331.382812 L 329.246094 336.792969 C 331.03125 340.035156 333.171875 343.082031 335.382812 346.054688 C 337.59375 349.027344 338.394531 350.667969 339.796875 352.640625 C 363.523438 379.28125 398.902344 392.136719 439.746094 392.136719 C 530.199219 392.136719 606.964844 352.074219 640.945312 262.070312 C 665.039062 264.542969 688.167969 258.363281 698.703125 237.800781 C 681.914062 228.113281 660.34375 231.21875 647.917969 237.464844 L 680.847656 143.945312 L 552.265625 226.082031 L 511.1875 226.082031 L 511.1875 143.945312 Z M 387.957031 143.953125 " clip-rule="nonzero"/></clipPath><clipPath id="745ba161aa"><path d="M 518 231 L 546 231 L 546 262 L 518 262 Z M 518 231 " clip-rule="nonzero"/></clipPath><clipPath id="be6d28705f"><path d="M 387.957031 143.953125 L 387.957031 226.089844 L 348.664062 226.089844 L 348.664062 267.15625 L 315.769531 267.15625 L 315.402344 270.726562 C 313.347656 293.101562 317.25 313.738281 326.230469 331.382812 L 329.246094 336.792969 C 331.03125 340.035156 333.171875 343.082031 335.382812 346.054688 C 337.59375 349.027344 338.394531 350.667969 339.796875 352.640625 C 363.523438 379.28125 398.902344 392.136719 439.746094 392.136719 C 530.199219 392.136719 606.964844 352.074219 640.945312 262.070312 C 665.039062 264.542969 688.167969 258.363281 698.703125 237.800781 C 681.914062 228.113281 660.34375 231.21875 647.917969 237.464844 L 680.847656 143.945312 L 552.265625 226.082031 L 511.1875 226.082031 L 511.1875 143.945312 Z M 387.957031 143.953125 " clip-rule="nonzero"/></clipPath><clipPath id="8715e5b1c8"><path d="M 517 230 L 547 230 L 547 263 L 517 263 Z M 517 230 " clip-rule="nonzero"/></clipPath><clipPath id="0de1f4ae10"><path d="M 387.957031 143.953125 L 387.957031 226.089844 L 348.664062 226.089844 L 348.664062 267.15625 L 315.769531 267.15625 L 315.402344 270.726562 C 313.347656 293.101562 317.25 313.738281 326.230469 331.382812 L 329.246094 336.792969 C 331.03125 340.035156 333.171875 343.082031 335.382812 346.054688 C 337.59375 349.027344 338.394531 350.667969 339.796875 352.640625 C 363.523438 379.28125 398.902344 392.136719 439.746094 392.136719 C 530.199219 392.136719 606.964844 352.074219 640.945312 262.070312 C 665.039062 264.542969 688.167969 258.363281 698.703125 237.800781 C 681.914062 228.113281 660.34375 231.21875 647.917969 237.464844 L 680.847656 143.945312 L 552.265625 226.082031 L 511.1875 226.082031 L 511.1875 143.945312 Z M 387.957031 143.953125 " clip-rule="nonzero"/></clipPath><clipPath id="0cf984e81e"><path d="M 518 190 L 546 190 L 546 221 L 518 221 Z M 518 190 " clip-rule="nonzero"/></clipPath><clipPath id="9c0589c96f"><path d="M 387.957031 143.953125 L 387.957031 226.089844 L 348.664062 226.089844 L 348.664062 267.15625 L 315.769531 267.15625 L 315.402344 270.726562 C 313.347656 293.101562 317.25 313.738281 326.230469 331.382812 L 329.246094 336.792969 C 331.03125 340.035156 333.171875 343.082031 335.382812 346.054688 C 337.59375 349.027344 338.394531 350.667969 339.796875 352.640625 C 363.523438 379.28125 398.902344 392.136719 439.746094 392.136719 C 530.199219 392.136719 606.964844 352.074219 640.945312 262.070312 C 665.039062 264.542969 688.167969 258.363281 698.703125 237.800781 C 681.914062 228.113281 660.34375 231.21875 647.917969 237.464844 L 680.847656 143.945312 L 552.265625 226.082031 L 511.1875 226.082031 L 511.1875 143.945312 Z M 387.957031 143.953125 " clip-rule="nonzero"/></clipPath><clipPath id="b7a2381f28"><path d="M 517 189 L 547 189 L 547 222 L 517 222 Z M 517 189 " clip-rule="nonzero"/></clipPath><clipPath id="1973132c61"><path d="M 387.957031 143.953125 L 387.957031 226.089844 L 348.664062 226.089844 L 348.664062 267.15625 L 315.769531 267.15625 L 315.402344 270.726562 C 313.347656 293.101562 317.25 313.738281 326.230469 331.382812 L 329.246094 336.792969 C 331.03125 340.035156 333.171875 343.082031 335.382812 346.054688 C 337.59375 349.027344 338.394531 350.667969 339.796875 352.640625 C 363.523438 379.28125 398.902344 392.136719 439.746094 392.136719 C 530.199219 392.136719 606.964844 352.074219 640.945312 262.070312 C 665.039062 264.542969 688.167969 258.363281 698.703125 237.800781 C 681.914062 228.113281 660.34375 231.21875 647.917969 237.464844 L 680.847656 143.945312 L 552.265625 226.082031 L 511.1875 226.082031 L 511.1875 143.945312 Z M 387.957031 143.953125 " clip-rule="nonzero"/></clipPath><clipPath id="ee3128f7dd"><path d="M 314.734375 191 L 698.703125 191 L 698.703125 392.144531 L 314.734375 392.144531 Z M 314.734375 191 " clip-rule="nonzero"/></clipPath><clipPath id="c0087756d2"><path d="M 387.957031 143.953125 L 387.957031 226.089844 L 348.664062 226.089844 L 348.664062 267.15625 L 315.769531 267.15625 L 315.402344 270.726562 C 313.347656 293.101562 317.25 313.738281 326.230469 331.382812 L 329.246094 336.792969 C 331.03125 340.035156 333.171875 343.082031 335.382812 346.054688 C 337.59375 349.027344 338.394531 350.667969 339.796875 352.640625 C 363.523438 379.28125 398.902344 392.136719 439.746094 392.136719 C 530.199219 392.136719 606.964844 352.074219 640.945312 262.070312 C 665.039062 264.542969 688.167969 258.363281 698.703125 237.800781 C 681.914062 228.113281 660.34375 231.21875 647.917969 237.464844 L 680.847656 143.945312 L 552.265625 226.082031 L 511.1875 226.082031 L 511.1875 143.945312 Z M 387.957031 143.953125 " clip-rule="nonzero"/></clipPath><clipPath id="2ab1318c40"><path d="M 314.734375 299 L 698.703125 299 L 698.703125 392.144531 L 314.734375 392.144531 Z M 314.734375 299 " clip-rule="nonzero"/></clipPath><clipPath id="2ca5003250"><path d="M 387.957031 143.953125 L 387.957031 226.089844 L 348.664062 226.089844 L 348.664062 267.15625 L 315.769531 267.15625 L 315.402344 270.726562 C 313.347656 293.101562 317.25 313.738281 326.230469 331.382812 L 329.246094 336.792969 C 331.03125 340.035156 333.171875 343.082031 335.382812 346.054688 C 337.59375 349.027344 338.394531 350.667969 339.796875 352.640625 C 363.523438 379.28125 398.902344 392.136719 439.746094 392.136719 C 530.199219 392.136719 606.964844 352.074219 640.945312 262.070312 C 665.039062 264.542969 688.167969 258.363281 698.703125 237.800781 C 681.914062 228.113281 660.34375 231.21875 647.917969 237.464844 L 680.847656 143.945312 L 552.265625 226.082031 L 511.1875 226.082031 L 511.1875 143.945312 Z M 387.957031 143.953125 " clip-rule="nonzero"/></clipPath><clipPath id="951329f748"><path d="M 332 347 L 451 347 L 451 392.144531 L 332 392.144531 Z M 332 347 " clip-rule="nonzero"/></clipPath><clipPath id="225d890c75"><path d="M 387.957031 143.953125 L 387.957031 226.089844 L 348.664062 226.089844 L 348.664062 267.15625 L 315.769531 267.15625 L 315.402344 270.726562 C 313.347656 293.101562 317.25 313.738281 326.230469 331.382812 L 329.246094 336.792969 C 331.03125 340.035156 333.171875 343.082031 335.382812 346.054688 C 337.59375 349.027344 338.394531 350.667969 339.796875 352.640625 C 363.523438 379.28125 398.902344 392.136719 439.746094 392.136719 C 530.199219 392.136719 606.964844 352.074219 640.945312 262.070312 C 665.039062 264.542969 688.167969 258.363281 698.703125 237.800781 C 681.914062 228.113281 660.34375 231.21875 647.917969 237.464844 L 680.847656 143.945312 L 552.265625 226.082031 L 511.1875 226.082031 L 511.1875 143.945312 Z M 387.957031 143.953125 " clip-rule="nonzero"/></clipPath><clipPath id="253dd7cc4d"><path d="M 314.734375 229 L 698.703125 229 L 698.703125 392.144531 L 314.734375 392.144531 Z M 314.734375 229 " clip-rule="nonzero"/></clipPath><clipPath id="68f271a711"><path d="M 387.957031 143.953125 L 387.957031 226.089844 L 348.664062 226.089844 L 348.664062 267.15625 L 315.769531 267.15625 L 315.402344 270.726562 C 313.347656 293.101562 317.25 313.738281 326.230469 331.382812 L 329.246094 336.792969 C 331.03125 340.035156 333.171875 343.082031 335.382812 346.054688 C 337.59375 349.027344 338.394531 350.667969 339.796875 352.640625 C 363.523438 379.28125 398.902344 392.136719 439.746094 392.136719 C 530.199219 392.136719 606.964844 352.074219 640.945312 262.070312 C 665.039062 264.542969 688.167969 258.363281 698.703125 237.800781 C 681.914062 228.113281 660.34375 231.21875 647.917969 237.464844 L 680.847656 143.945312 L 552.265625 226.082031 L 511.1875 226.082031 L 511.1875 143.945312 Z M 387.957031 143.953125 " clip-rule="nonzero"/></clipPath></defs><g clip-path="url(#0c5db1cb76)"><path fill="#ffffff" d="M 0.886719 0 L 959.113281 0 L 959.113281 546.488281 L 0.886719 546.488281 Z M 0.886719 0 " fill-opacity="1" fill-rule="nonzero"/><path fill="#ffffff" d="M 0.886719 0 L 959.113281 0 L 959.113281 539 L 0.886719 539 Z M 0.886719 0 " fill-opacity="1" fill-rule="nonzero"/><path fill="#ffffff" d="M 0.886719 0 L 959.113281 0 L 959.113281 539 L 0.886719 539 Z M 0.886719 0 " fill-opacity="1" fill-rule="nonzero"/></g><g clip-path="url(#29626a7314)"><path fill="#394d54" d="M 515.621094 222.039062 L 556.453125 222.039062 L 556.453125 263.773438 L 577.101562 263.773438 C 586.816406 263.726562 596.277344 262.140625 605.476562 259.015625 C 609.925781 257.507812 614.894531 255.417969 619.269531 252.789062 C 613.503906 245.265625 610.5625 235.769531 609.597656 226.390625 C 608.417969 213.65625 610.988281 197.074219 619.617188 187.105469 L 623.910156 182.144531 L 629.035156 186.253906 C 641.917969 196.597656 652.75 211.054688 654.664062 227.542969 C 670.167969 222.976562 688.378906 224.0625 702.054688 231.949219 L 707.664062 235.191406 L 704.714844 240.953125 C 693.234375 263.484375 669.054688 270.472656 645.429688 269.234375 C 610.070312 357.277344 533.097656 398.960938 439.769531 398.960938 C 391.546875 398.960938 347.308594 380.9375 322.125 338.167969 C 320.648438 335.511719 319.390625 332.734375 318.046875 330.007812 C 309.535156 311.183594 306.699219 290.558594 308.617188 270.058594 L 309.195312 263.890625 L 344.011719 263.890625 L 344.011719 222.070312 L 384.84375 222.070312 L 384.84375 181.246094 L 466.519531 181.246094 L 466.519531 140.421875 L 515.523438 140.421875 L 515.523438 222.078125 " fill-opacity="1" fill-rule="nonzero"/></g><g clip-path="url(#26efe8cc0e)"><g clip-path="url(#d25188550a)"><path fill="#20c2ef" d="M 473.429688 147.183594 L 508.820312 147.183594 L 508.820312 182.570312 L 473.425781 182.570312 Z M 473.429688 147.183594 " fill-opacity="1" fill-rule="nonzero"/></g></g><g clip-path="url(#5f4fdbc0de)"><g clip-path="url(#2611190d33)"><path fill="#000000" d="M 477.769531 179.621094 L 477.769531 150.128906 M 483.078125 179.621094 L 483.078125 150.128906 M 488.4375 179.621094 L 488.4375 150.128906 M 493.800781 179.621094 L 493.800781 150.128906 M 499.164062 179.621094 L 499.164062 150.128906 M 504.46875 179.621094 L 504.46875 150.128906 " fill-opacity="1" fill-rule="nonzero"/></g></g><g clip-path="url(#7d06719895)"><g clip-path="url(#e262a4147f)"><path stroke-linecap="butt" transform="matrix(1.785905, 0, 0, 1.785557, 252.227026, 140.38147)" fill="none" stroke-linejoin="miter" d="M 126.290345 21.976131 L 126.290345 5.459047 M 129.262841 21.976131 L 129.262841 5.459047 M 132.263771 21.976131 L 132.263771 5.459047 M 135.266888 21.976131 L 135.266888 5.459047 M 138.270006 21.976131 L 138.270006 5.459047 M 141.240314 21.976131 L 141.240314 5.459047 " stroke="#394d54" stroke-width="1.56" stroke-opacity="1" stroke-miterlimit="4"/></g></g><g clip-path="url(#84385f6ce0)"><g clip-path="url(#199cef117d)"><path fill="#00acd3" d="M 514.265625 182.589844 L 549.660156 182.589844 L 549.660156 147.207031 L 514.261719 147.207031 Z M 514.265625 182.589844 " fill-opacity="1" fill-rule="nonzero"/></g></g><g clip-path="url(#95d88554ca)"><g clip-path="url(#2c6539275b)"><path fill="#000000" d="M 518.605469 150.132812 L 518.605469 179.625 M 523.914062 150.136719 L 523.914062 179.625 M 529.273438 150.136719 L 529.273438 179.625 M 534.636719 150.136719 L 534.636719 179.625 M 540 150.136719 L 540 179.625 M 545.304688 150.136719 L 545.304688 179.625 " fill-opacity="1" fill-rule="nonzero"/></g></g><g clip-path="url(#0979382e46)"><g clip-path="url(#1a49428328)"><path stroke-linecap="butt" transform="matrix(1.785905, 0, 0, -1.785557, 293.06352, 189.374826)" fill="none" stroke-linejoin="miter" d="M 126.290034 21.977469 L 126.290034 5.460385 M 129.262529 21.975282 L 129.262529 5.460385 M 132.263459 21.975282 L 132.263459 5.460385 M 135.266577 21.975282 L 135.266577 5.460385 M 138.269694 21.975282 L 138.269694 5.460385 M 141.240003 21.975282 L 141.240003 5.460385 " stroke="#394d54" stroke-width="1.56" stroke-opacity="1" stroke-miterlimit="4"/></g></g><g clip-path="url(#53125988d6)"><g clip-path="url(#61e2c6c1fb)"><path fill="#00acd3" d="M 310.082031 187.996094 L 345.476562 187.996094 L 345.476562 223.378906 L 310.078125 223.378906 Z M 310.082031 187.996094 " fill-opacity="1" fill-rule="nonzero"/></g></g><g clip-path="url(#cc7e098a5b)"><g clip-path="url(#21e2fa24e0)"><path fill="#20c2ef" d="M 310.082031 228.839844 L 345.476562 228.839844 L 345.476562 264.226562 L 310.078125 264.226562 Z M 310.082031 228.839844 " fill-opacity="1" fill-rule="nonzero"/></g></g><g clip-path="url(#da357ce019)"><g clip-path="url(#02267e9328)"><path fill="#000000" d="M 314.421875 220.449219 L 314.421875 190.960938 M 319.730469 220.449219 L 319.730469 190.960938 M 325.09375 220.449219 L 325.09375 190.960938 M 330.453125 220.449219 L 330.453125 190.960938 M 335.816406 220.449219 L 335.816406 190.960938 M 341.121094 220.449219 L 341.121094 190.960938 " fill-opacity="1" fill-rule="nonzero"/></g></g><g clip-path="url(#edab94da3d)"><g clip-path="url(#5d68105883)"><path stroke-linecap="butt" transform="matrix(1.785905, 0, 0, 1.785557, 88.881047, 181.209996)" fill="none" stroke-linejoin="miter" d="M 126.289406 21.975906 L 126.289406 5.46101 M 129.261902 21.975906 L 129.261902 5.46101 M 132.265019 21.975906 L 132.265019 5.46101 M 135.265949 21.975906 L 135.265949 5.46101 M 138.269067 21.975906 L 138.269067 5.46101 M 141.239375 21.975906 L 141.239375 5.46101 " stroke="#394d54" stroke-width="1.56" stroke-opacity="1" stroke-miterlimit="4"/></g></g><g clip-path="url(#1fe0925fae)"><g clip-path="url(#f376d98175)"><path fill="#000000" d="M 314.421875 261.28125 L 314.421875 231.789062 M 319.730469 261.277344 L 319.730469 231.789062 M 325.09375 261.277344 L 325.09375 231.789062 M 330.453125 261.277344 L 330.453125 231.789062 M 335.816406 261.277344 L 335.816406 231.789062 M 341.121094 261.277344 L 341.121094 231.789062 " fill-opacity="1" fill-rule="nonzero"/></g></g><g clip-path="url(#06a740dee0)"><g clip-path="url(#8066899130)"><path stroke-linecap="butt" transform="matrix(1.785905, 0, 0, 1.785557, 88.881047, 222.038536)" fill="none" stroke-linejoin="miter" d="M 126.289406 21.977862 L 126.289406 5.460777 M 129.261902 21.975674 L 129.261902 5.460777 M 132.265019 21.975674 L 132.265019 5.460777 M 135.265949 21.975674 L 135.265949 5.460777 M 138.269067 21.975674 L 138.269067 5.460777 M 141.239375 21.975674 L 141.239375 5.460777 " stroke="#394d54" stroke-width="1.56" stroke-opacity="1" stroke-miterlimit="4"/></g></g><g clip-path="url(#3885bd008f)"><g clip-path="url(#75afc01bfd)"><path fill="#00acd3" d="M 350.917969 264.246094 L 386.3125 264.246094 L 386.3125 228.863281 L 350.917969 228.863281 Z M 350.917969 264.246094 " fill-opacity="1" fill-rule="nonzero"/></g></g><g clip-path="url(#d98486416d)"><g clip-path="url(#0b7be68e03)"><path fill="#20c2ef" d="M 350.917969 223.402344 L 386.3125 223.402344 L 386.3125 188.015625 L 350.917969 188.015625 Z M 350.917969 223.402344 " fill-opacity="1" fill-rule="nonzero"/></g></g><g clip-path="url(#8ea986eb0b)"><g clip-path="url(#530413039f)"><path fill="#000000" d="M 355.257812 231.789062 L 355.257812 261.28125 M 360.566406 231.792969 L 360.566406 261.28125 M 365.929688 231.792969 L 365.929688 261.28125 M 371.292969 231.792969 L 371.292969 261.28125 M 376.65625 231.792969 L 376.65625 261.28125 M 381.957031 231.792969 L 381.957031 261.28125 " fill-opacity="1" fill-rule="nonzero"/></g></g><g clip-path="url(#44255c17d7)"><g clip-path="url(#9ee2a47716)"><path stroke-linecap="butt" transform="matrix(1.785905, 0, 0, -1.785557, 129.717543, 271.031907)" fill="none" stroke-linejoin="miter" d="M 126.289093 21.977935 L 126.289093 5.46085 M 129.261589 21.975747 L 129.261589 5.46085 M 132.264706 21.975747 L 132.264706 5.46085 M 135.267824 21.975747 L 135.267824 5.46085 M 138.270941 21.975747 L 138.270941 5.46085 M 141.239063 21.975747 L 141.239063 5.46085 " stroke="#394d54" stroke-width="1.56" stroke-opacity="1" stroke-miterlimit="4"/></g></g><g clip-path="url(#a0f33ed9d1)"><g clip-path="url(#2e1edae07f)"><path fill="#000000" d="M 355.257812 190.960938 L 355.257812 220.453125 M 360.566406 190.964844 L 360.566406 220.453125 M 365.929688 190.964844 L 365.929688 220.453125 M 371.292969 190.964844 L 371.292969 220.453125 M 376.65625 190.964844 L 376.65625 220.453125 M 381.957031 190.964844 L 381.957031 220.453125 " fill-opacity="1" fill-rule="nonzero"/></g></g><g clip-path="url(#c6c5e8b9b5)"><g clip-path="url(#82626235a3)"><path stroke-linecap="butt" transform="matrix(1.785905, 0, 0, -1.785557, 129.717543, 230.203352)" fill="none" stroke-linejoin="miter" d="M 126.289093 21.977694 L 126.289093 5.46061 M 129.261589 21.975506 L 129.261589 5.46061 M 132.264706 21.975506 L 132.264706 5.46061 M 135.267824 21.975506 L 135.267824 5.46061 M 138.270941 21.975506 L 138.270941 5.46061 M 141.239063 21.975506 L 141.239063 5.46061 " stroke="#394d54" stroke-width="1.56" stroke-opacity="1" stroke-miterlimit="4"/></g></g><g clip-path="url(#8de6878c2f)"><g clip-path="url(#63ca37ceea)"><path fill="#00acd3" d="M 391.757812 187.996094 L 427.148438 187.996094 L 427.148438 223.378906 L 391.753906 223.378906 Z M 391.757812 187.996094 " fill-opacity="1" fill-rule="nonzero"/></g></g><g clip-path="url(#d521fdfb63)"><g clip-path="url(#3128eecbc3)"><path fill="#20c2ef" d="M 391.757812 228.839844 L 427.148438 228.839844 L 427.148438 264.226562 L 391.753906 264.226562 Z M 391.757812 228.839844 " fill-opacity="1" fill-rule="nonzero"/></g></g><g clip-path="url(#1e9d000a1e)"><g clip-path="url(#216af1c1db)"><path fill="#000000" d="M 396.097656 220.449219 L 396.097656 190.960938 M 401.402344 220.449219 L 401.402344 190.960938 M 406.765625 220.449219 L 406.765625 190.960938 M 412.128906 220.449219 L 412.128906 190.960938 M 417.492188 220.449219 L 417.492188 190.960938 M 422.796875 220.449219 L 422.796875 190.960938 " fill-opacity="1" fill-rule="nonzero"/></g></g><g clip-path="url(#697533bf6f)"><g clip-path="url(#10df30bf5e)"><path stroke-linecap="butt" transform="matrix(1.785905, 0, 0, 1.785557, 170.554036, 181.209996)" fill="none" stroke-linejoin="miter" d="M 126.290969 21.975906 L 126.290969 5.46101 M 129.261278 21.975906 L 129.261278 5.46101 M 132.264395 21.975906 L 132.264395 5.46101 M 135.267512 21.975906 L 135.267512 5.46101 M 138.27063 21.975906 L 138.27063 5.46101 M 141.240938 21.975906 L 141.240938 5.46101 " stroke="#394d54" stroke-width="1.56" stroke-opacity="1" stroke-miterlimit="4"/></g></g><g clip-path="url(#e4c19a7247)"><g clip-path="url(#6b6a706c03)"><path fill="#000000" d="M 396.097656 261.28125 L 396.097656 231.789062 M 401.402344 261.277344 L 401.402344 231.789062 M 406.765625 261.277344 L 406.765625 231.789062 M 412.128906 261.277344 L 412.128906 231.789062 M 417.492188 261.277344 L 417.492188 231.789062 M 422.796875 261.277344 L 422.796875 231.789062 " fill-opacity="1" fill-rule="nonzero"/></g></g><g clip-path="url(#fa30b8ac5e)"><g clip-path="url(#052dab29cb)"><path stroke-linecap="butt" transform="matrix(1.785905, 0, 0, 1.785557, 170.554036, 222.038536)" fill="none" stroke-linejoin="miter" d="M 126.290969 21.977862 L 126.290969 5.460777 M 129.261278 21.975674 L 129.261278 5.460777 M 132.264395 21.975674 L 132.264395 5.460777 M 135.267512 21.975674 L 135.267512 5.460777 M 138.27063 21.975674 L 138.27063 5.460777 M 141.240938 21.975674 L 141.240938 5.460777 " stroke="#394d54" stroke-width="1.56" stroke-opacity="1" stroke-miterlimit="4"/></g></g><g clip-path="url(#dd47354903)"><g clip-path="url(#1c12132df9)"><path fill="#00acd3" d="M 432.59375 264.246094 L 467.984375 264.246094 L 467.984375 228.863281 L 432.589844 228.863281 Z M 432.59375 264.246094 " fill-opacity="1" fill-rule="nonzero"/></g></g><g clip-path="url(#641100e666)"><g clip-path="url(#ec27c7bb72)"><path fill="#20c2ef" d="M 432.59375 223.402344 L 467.984375 223.402344 L 467.984375 188.015625 L 432.589844 188.015625 Z M 432.59375 223.402344 " fill-opacity="1" fill-rule="nonzero"/></g></g><g clip-path="url(#cb0a3561ca)"><g clip-path="url(#f25bff5d61)"><path fill="#000000" d="M 436.933594 231.789062 L 436.933594 261.28125 M 442.238281 231.792969 L 442.238281 261.28125 M 447.601562 231.792969 L 447.601562 261.28125 M 452.964844 231.792969 L 452.964844 261.28125 M 458.328125 231.792969 L 458.328125 261.28125 M 463.632812 231.792969 L 463.632812 261.28125 " fill-opacity="1" fill-rule="nonzero"/></g></g><g clip-path="url(#8892ae8f26)"><g clip-path="url(#f353152ebf)"><path stroke-linecap="butt" transform="matrix(1.785905, 0, 0, -1.785557, 211.39053, 271.031907)" fill="none" stroke-linejoin="miter" d="M 126.290658 21.977935 L 126.290658 5.46085 M 129.260966 21.975747 L 129.260966 5.46085 M 132.264084 21.975747 L 132.264084 5.46085 M 135.267201 21.975747 L 135.267201 5.46085 M 138.270319 21.975747 L 138.270319 5.46085 M 141.240627 21.975747 L 141.240627 5.46085 " stroke="#394d54" stroke-width="1.56" stroke-opacity="1" stroke-miterlimit="4"/></g></g><g clip-path="url(#2a44fb4044)"><g clip-path="url(#f167fb478e)"><path fill="#000000" d="M 436.933594 190.960938 L 436.933594 220.453125 M 442.238281 190.964844 L 442.238281 220.453125 M 447.601562 190.964844 L 447.601562 220.453125 M 452.964844 190.964844 L 452.964844 220.453125 M 458.328125 190.964844 L 458.328125 220.453125 M 463.632812 190.964844 L 463.632812 220.453125 " fill-opacity="1" fill-rule="nonzero"/></g></g><g clip-path="url(#050793bfd7)"><g clip-path="url(#0b3c53cd26)"><path stroke-linecap="butt" transform="matrix(1.785905, 0, 0, -1.785557, 211.39053, 230.203352)" fill="none" stroke-linejoin="miter" d="M 126.290658 21.977694 L 126.290658 5.46061 M 129.260966 21.975506 L 129.260966 5.46061 M 132.264084 21.975506 L 132.264084 5.46061 M 135.267201 21.975506 L 135.267201 5.46061 M 138.270319 21.975506 L 138.270319 5.46061 M 141.240627 21.975506 L 141.240627 5.46061 " stroke="#394d54" stroke-width="1.56" stroke-opacity="1" stroke-miterlimit="4"/></g></g><g clip-path="url(#c31abe6da3)"><g clip-path="url(#2801aa27b6)"><path fill="#00acd3" d="M 473.429688 187.996094 L 508.820312 187.996094 L 508.820312 223.378906 L 473.425781 223.378906 Z M 473.429688 187.996094 " fill-opacity="1" fill-rule="nonzero"/></g></g><g clip-path="url(#90209decba)"><g clip-path="url(#8ab1eaad36)"><path fill="#20c2ef" d="M 473.429688 228.839844 L 508.820312 228.839844 L 508.820312 264.226562 L 473.425781 264.226562 Z M 473.429688 228.839844 " fill-opacity="1" fill-rule="nonzero"/></g></g><g clip-path="url(#390f21672d)"><g clip-path="url(#0b68b0de3e)"><path fill="#000000" d="M 477.769531 220.449219 L 477.769531 190.960938 M 483.078125 220.449219 L 483.078125 190.960938 M 488.4375 220.449219 L 488.4375 190.960938 M 493.800781 220.449219 L 493.800781 190.960938 M 499.164062 220.449219 L 499.164062 190.960938 M 504.46875 220.449219 L 504.46875 190.960938 " fill-opacity="1" fill-rule="nonzero"/></g></g><g clip-path="url(#d9772372ab)"><g clip-path="url(#44a7548904)"><path stroke-linecap="butt" transform="matrix(1.785905, 0, 0, 1.785557, 252.227026, 181.209996)" fill="none" stroke-linejoin="miter" d="M 126.290345 21.975906 L 126.290345 5.46101 M 129.262841 21.975906 L 129.262841 5.46101 M 132.263771 21.975906 L 132.263771 5.46101 M 135.266888 21.975906 L 135.266888 5.46101 M 138.270006 21.975906 L 138.270006 5.46101 M 141.240314 21.975906 L 141.240314 5.46101 " stroke="#394d54" stroke-width="1.56" stroke-opacity="1" stroke-miterlimit="4"/></g></g><g clip-path="url(#52c6522260)"><g clip-path="url(#6f960f33f0)"><path fill="#000000" d="M 477.769531 261.28125 L 477.769531 231.789062 M 483.078125 261.277344 L 483.078125 231.789062 M 488.4375 261.277344 L 488.4375 231.789062 M 493.800781 261.277344 L 493.800781 231.789062 M 499.164062 261.277344 L 499.164062 231.789062 M 504.46875 261.277344 L 504.46875 231.789062 " fill-opacity="1" fill-rule="nonzero"/></g></g><g clip-path="url(#e164c32593)"><g clip-path="url(#ae407b162d)"><path stroke-linecap="butt" transform="matrix(1.785905, 0, 0, 1.785557, 252.227026, 222.038536)" fill="none" stroke-linejoin="miter" d="M 126.290345 21.977862 L 126.290345 5.460777 M 129.262841 21.975674 L 129.262841 5.460777 M 132.263771 21.975674 L 132.263771 5.460777 M 135.266888 21.975674 L 135.266888 5.460777 M 138.270006 21.975674 L 138.270006 5.460777 M 141.240314 21.975674 L 141.240314 5.460777 " stroke="#394d54" stroke-width="1.56" stroke-opacity="1" stroke-miterlimit="4"/></g></g><g clip-path="url(#20ce127487)"><g clip-path="url(#e44b5816d0)"><path fill="#00acd3" d="M 514.265625 264.246094 L 549.660156 264.246094 L 549.660156 228.863281 L 514.261719 228.863281 Z M 514.265625 264.246094 " fill-opacity="1" fill-rule="nonzero"/></g></g><g clip-path="url(#2c017fa55b)"><g clip-path="url(#5769eb50c8)"><path fill="#20c2ef" d="M 514.265625 223.402344 L 549.660156 223.402344 L 549.660156 188.015625 L 514.261719 188.015625 Z M 514.265625 223.402344 " fill-opacity="1" fill-rule="nonzero"/></g></g><g clip-path="url(#745ba161aa)"><g clip-path="url(#be6d28705f)"><path fill="#000000" d="M 518.605469 231.789062 L 518.605469 261.28125 M 523.914062 231.792969 L 523.914062 261.28125 M 529.273438 231.792969 L 529.273438 261.28125 M 534.636719 231.792969 L 534.636719 261.28125 M 540 231.792969 L 540 261.28125 M 545.304688 231.792969 L 545.304688 261.28125 " fill-opacity="1" fill-rule="nonzero"/></g></g><g clip-path="url(#8715e5b1c8)"><g clip-path="url(#0de1f4ae10)"><path stroke-linecap="butt" transform="matrix(1.785905, 0, 0, -1.785557, 293.06352, 271.031907)" fill="none" stroke-linejoin="miter" d="M 126.290034 21.977935 L 126.290034 5.46085 M 129.262529 21.975747 L 129.262529 5.46085 M 132.263459 21.975747 L 132.263459 5.46085 M 135.266577 21.975747 L 135.266577 5.46085 M 138.269694 21.975747 L 138.269694 5.46085 M 141.240003 21.975747 L 141.240003 5.46085 " stroke="#394d54" stroke-width="1.56" stroke-opacity="1" stroke-miterlimit="4"/></g></g><g clip-path="url(#0cf984e81e)"><g clip-path="url(#9c0589c96f)"><path fill="#000000" d="M 518.605469 190.960938 L 518.605469 220.453125 M 523.914062 190.964844 L 523.914062 220.453125 M 529.273438 190.964844 L 529.273438 220.453125 M 534.636719 190.964844 L 534.636719 220.453125 M 540 190.964844 L 540 220.453125 M 545.304688 190.964844 L 545.304688 220.453125 " fill-opacity="1" fill-rule="nonzero"/></g></g><g clip-path="url(#b7a2381f28)"><g clip-path="url(#1973132c61)"><path stroke-linecap="butt" transform="matrix(1.785905, 0, 0, -1.785557, 293.06352, 230.203352)" fill="none" stroke-linejoin="miter" d="M 126.290034 21.977694 L 126.290034 5.46061 M 129.262529 21.975506 L 129.262529 5.46061 M 132.263459 21.975506 L 132.263459 5.46061 M 135.266577 21.975506 L 135.266577 5.46061 M 138.269694 21.975506 L 138.269694 5.46061 M 141.240003 21.975506 L 141.240003 5.46061 " stroke="#394d54" stroke-width="1.56" stroke-opacity="1" stroke-miterlimit="4"/></g></g><g clip-path="url(#ee3128f7dd)"><g clip-path="url(#c0087756d2)"><path fill="#17b5eb" d="M 647.929688 237.480469 C 650.667969 216.207031 634.742188 199.492188 624.867188 191.558594 C 613.484375 204.714844 611.71875 239.195312 629.574219 253.707031 C 619.605469 262.558594 598.609375 270.578125 577.109375 270.578125 L 312.9375 270.578125 C 310.847656 293.019531 312.9375 401.074219 312.9375 401.074219 L 700.480469 401.074219 L 698.71875 237.828125 C 681.929688 228.144531 660.347656 231.234375 647.921875 237.476562 " fill-opacity="1" fill-rule="nonzero"/></g></g><g clip-path="url(#2ab1318c40)"><g clip-path="url(#2ca5003250)"><path fill="#000000" d="M 312.949219 299.296875 L 312.949219 401.074219 L 700.488281 401.074219 L 700.488281 299.296875 " fill-opacity="0.1686" fill-rule="nonzero"/></g></g><g clip-path="url(#951329f748)"><g clip-path="url(#225d890c75)"><path fill="#d4edf1" d="M 450.890625 391.964844 C 426.710938 380.496094 413.4375 364.898438 406.050781 347.875 L 332.59375 351.070312 L 370.097656 401.066406 L 450.886719 391.960938 " fill-opacity="1" fill-rule="nonzero"/></g></g><g clip-path="url(#253dd7cc4d)"><g clip-path="url(#68f271a711)"><path fill="#000000" d="M 649.589844 236.691406 L 649.589844 236.746094 C 612.335938 284.777344 558.898438 326.699219 501.527344 348.734375 C 450.351562 368.390625 405.734375 368.484375 374.953125 352.699219 C 371.636719 350.828125 368.386719 348.75 365.128906 346.785156 C 342.5625 331.015625 329.851562 304.929688 330.917969 270.566406 L 312.953125 270.566406 L 312.953125 401.074219 L 700.496094 401.074219 L 700.496094 229.660156 L 655.847656 229.660156 Z M 649.589844 236.691406 " fill-opacity="0.0863" fill-rule="nonzero"/></g></g><path stroke-linecap="round" transform="matrix(9.671312, 0, 0, 9.669428, 222.531247, 256.395281)" fill="none" stroke-linejoin="miter" d="M 11.495822 9.613017 C 14.111887 9.756026 16.902841 9.783092 19.337959 9.019167 " stroke="#394d54" stroke-width="0.628" stroke-opacity="1" stroke-miterlimit="4"/><path fill="#d4edf1" d="M 434.691406 331.363281 C 434.691406 332.003906 434.628906 332.636719 434.5 333.265625 C 434.375 333.894531 434.191406 334.503906 433.945312 335.09375 C 433.699219 335.6875 433.398438 336.25 433.042969 336.78125 C 432.6875 337.3125 432.28125 337.804688 431.828125 338.257812 C 431.375 338.710938 430.882812 339.117188 430.351562 339.472656 C 429.820312 339.828125 429.257812 340.128906 428.664062 340.375 C 428.074219 340.617188 427.464844 340.804688 426.835938 340.929688 C 426.207031 341.054688 425.574219 341.117188 424.933594 341.117188 C 424.292969 341.117188 423.65625 341.054688 423.027344 340.929688 C 422.398438 340.804688 421.789062 340.621094 421.195312 340.375 C 420.605469 340.132812 420.042969 339.832031 419.507812 339.476562 C 418.976562 339.117188 418.480469 338.714844 418.027344 338.261719 C 417.574219 337.808594 417.171875 337.316406 416.8125 336.785156 C 416.457031 336.25 416.15625 335.6875 415.910156 335.097656 C 415.664062 334.503906 415.480469 333.894531 415.355469 333.265625 C 415.226562 332.636719 415.164062 332.003906 415.164062 331.363281 C 415.164062 330.722656 415.226562 330.085938 415.351562 329.457031 C 415.476562 328.828125 415.664062 328.21875 415.90625 327.625 C 416.152344 327.03125 416.453125 326.46875 416.8125 325.9375 C 417.167969 325.402344 417.570312 324.910156 418.027344 324.457031 C 418.480469 324.003906 418.972656 323.597656 419.503906 323.242188 C 420.039062 322.886719 420.601562 322.585938 421.195312 322.339844 C 421.785156 322.09375 422.398438 321.910156 423.027344 321.785156 C 423.65625 321.660156 424.292969 321.597656 424.933594 321.597656 C 425.574219 321.597656 426.207031 321.660156 426.835938 321.785156 C 427.464844 321.910156 428.074219 322.097656 428.667969 322.34375 C 429.257812 322.589844 429.820312 322.890625 430.355469 323.246094 C 430.886719 323.601562 431.378906 324.007812 431.832031 324.460938 C 432.285156 324.914062 432.691406 325.40625 433.046875 325.941406 C 433.402344 326.472656 433.703125 327.035156 433.949219 327.628906 C 434.195312 328.21875 434.378906 328.828125 434.503906 329.457031 C 434.628906 330.085938 434.691406 330.722656 434.691406 331.363281 Z M 434.691406 331.363281 " fill-opacity="1" fill-rule="nonzero"/><path fill="#394d54" d="M 427.5625 324.855469 C 426.710938 325.339844 426.132812 326.265625 426.132812 327.332031 C 426.132812 328.90625 427.410156 330.183594 428.984375 330.183594 C 430.066406 330.183594 430.917969 329.582031 431.5 328.695312 C 431.851562 329.550781 432.03125 330.445312 432.03125 331.371094 C 432.03125 335.238281 428.898438 338.363281 425.039062 338.363281 C 421.179688 338.363281 418.046875 335.230469 418.046875 331.371094 C 418.046875 327.515625 421.179688 324.382812 425.039062 324.382812 C 425.914062 324.378906 426.757812 324.539062 427.574219 324.855469 Z M 252.222656 301.359375 L 706.425781 301.359375 C 696.53125 298.84375 675.140625 295.554688 678.667969 282.503906 C 660.679688 303.3125 617.3125 297.007812 606.375 286.835938 C 594.191406 304.511719 523.230469 297.789062 518.289062 283.933594 C 503.007812 301.859375 455.667969 301.859375 440.386719 283.933594 C 435.4375 297.703125 364.488281 304.433594 352.378906 286.835938 C 341.332031 297.007812 297.96875 303.320312 279.980469 282.503906 C 283.507812 295.460938 262.105469 298.941406 252.222656 301.359375 " fill-opacity="1" fill-rule="nonzero"/></svg>