<svg xmlns="http://www.w3.org/2000/svg" xmlns:xlink="http://www.w3.org/1999/xlink" width="1280" zoomAndPan="magnify" viewBox="0 0 960 540.000001" height="720" preserveAspectRatio="xMidYMid meet" version="1.0"><defs><clipPath id="21d0a4d42b"><path d="M 0.886719 0 L 959.113281 0 L 959.113281 539 L 0.886719 539 Z M 0.886719 0 " clip-rule="nonzero"/></clipPath></defs><g clip-path="url(#21d0a4d42b)"><path fill="#ffffff" d="M 0.886719 0 L 959.113281 0 L 959.113281 539 L 0.886719 539 Z M 0.886719 0 " fill-opacity="1" fill-rule="nonzero"/><path fill="#000000" d="M 0.886719 0 L 959.113281 0 L 959.113281 539 L 0.886719 539 Z M 0.886719 0 " fill-opacity="1" fill-rule="nonzero"/></g><path fill="#9d5025" d="M 378.308594 170.832031 L 366.125 177.324219 L 366.125 361.507812 L 378.308594 368 L 426.300781 273.253906 Z M 415.390625 204.074219 L 433.332031 176.855469 L 513.71875 215.160156 L 494.976562 218.351562 L 415.394531 204.078125 Z M 401.46875 336.726562 L 421.214844 365.8125 L 513.71875 323.03125 L 495.847656 320.050781 Z M 401.46875 336.726562 " fill-opacity="1" fill-rule="evenodd"/><path fill="#f58536" d="M 406.6875 360.863281 L 378.308594 368 L 378.308594 170.832031 L 406.6875 177.753906 Z M 406.6875 360.863281 " fill-opacity="1" fill-rule="evenodd"/><path fill="#9d5025" d="M 391.761719 163.625 L 406.6875 155.628906 L 434.800781 282.183594 L 406.6875 383.207031 L 391.761719 375.210938 Z M 494.839844 319.910156 L 513.714844 323.03125 L 530.988281 271.5 L 513.714844 215.160156 L 494.839844 218.351562 Z M 494.839844 319.910156 " fill-opacity="1" fill-rule="evenodd"/><path fill="#f58536" d="M 435.738281 374.421875 L 406.6875 383.207031 L 406.6875 155.628906 L 435.738281 164.449219 Z M 435.738281 374.421875 " fill-opacity="1" fill-rule="evenodd"/><path fill="#f58536" d="M 533.5 319.046875 L 406.691406 344.296875 L 406.691406 383.207031 L 533.5 344.832031 Z M 533.730469 219.210938 L 406.6875 193.355469 L 406.6875 155.628906 L 533.730469 194.25 Z M 533.730469 219.210938 " fill-opacity="1" fill-rule="evenodd"/><path fill="#f58536" d="M 513.714844 188.152344 L 534.097656 194.179688 L 534.097656 344.832031 L 513.714844 350.820312 Z M 513.714844 188.152344 " fill-opacity="1" fill-rule="evenodd"/><path fill="#6b3a19" d="M 593.703125 249.511719 L 539.152344 252.273438 L 519.875 250.875 L 575.027344 203.25 Z M 593.703125 249.511719 " fill-opacity="1" fill-rule="evenodd"/><path fill="#9d5025" d="M 519.875 250.875 L 575.027344 247.539062 L 575.027344 203.25 L 519.875 212.824219 Z M 519.875 250.875 " fill-opacity="1" fill-rule="evenodd"/><path fill="#6b3a19" d="M 467.96875 247.148438 L 523.859375 186.792969 L 552.269531 245.101562 L 494.339844 249.046875 L 467.964844 247.148438 Z M 467.96875 247.148438 " fill-opacity="1" fill-rule="evenodd"/><path fill="#9d5025" d="M 467.96875 247.148438 L 523.859375 242.054688 L 523.859375 186.792969 L 467.96875 200.8125 Z M 519.875 288.746094 L 593.703125 290.109375 L 575.027344 336.371094 L 519.875 326.792969 Z M 519.875 288.746094 " fill-opacity="1" fill-rule="evenodd"/><path fill="#9d5025" d="M 467.96875 292.476562 L 552.269531 294.554688 L 523.859375 352.828125 L 467.96875 338.84375 Z M 467.96875 292.476562 " fill-opacity="1" fill-rule="evenodd"/><path fill="#fbbf93" d="M 467.96875 292.476562 L 523.859375 297.605469 L 552.269531 294.554688 L 494.339844 290.574219 L 467.964844 292.476562 Z M 593.703125 290.109375 L 539.152344 287.382812 L 519.875 288.746094 L 575.027344 292.117188 Z M 593.703125 290.109375 " fill-opacity="1" fill-rule="evenodd"/><path fill="#f58536" d="M 575.027344 247.539062 L 593.703125 249.511719 L 593.703125 209.238281 L 575.027344 203.25 Z M 552.269531 245.101562 L 523.859375 242.054688 L 523.859375 186.792969 L 552.269531 195.9375 Z M 575.027344 292.117188 L 593.703125 290.109375 L 593.703125 330.382812 L 575.027344 336.371094 Z M 552.269531 294.554688 L 523.859375 297.605469 L 523.859375 352.832031 L 552.269531 343.722656 Z M 552.269531 294.554688 " fill-opacity="1" fill-rule="evenodd"/></svg>