<svg xmlns="http://www.w3.org/2000/svg" xmlns:xlink="http://www.w3.org/1999/xlink" width="1280" zoomAndPan="magnify" viewBox="0 0 960 540.000001" height="720" preserveAspectRatio="xMidYMid meet" version="1.0"><defs><clipPath id="dad8249262"><path d="M 0.886719 0 L 959.113281 0 L 959.113281 539 L 0.886719 539 Z M 0.886719 0 " clip-rule="nonzero"/></clipPath><clipPath id="e02a9fcdc0"><path d="M 354.378906 143.878906 L 605.910156 143.878906 L 605.910156 395.414062 L 354.378906 395.414062 Z M 354.378906 143.878906 " clip-rule="nonzero"/></clipPath><clipPath id="2935ba10a3"><path d="M 459 321 L 605.910156 321 L 605.910156 395.414062 L 459 395.414062 Z M 459 321 " clip-rule="nonzero"/></clipPath></defs><g clip-path="url(#dad8249262)"><path fill="#ffffff" d="M 0.886719 0 L 959.113281 0 L 959.113281 539 L 0.886719 539 Z M 0.886719 0 " fill-opacity="1" fill-rule="nonzero"/><path fill="#000000" d="M 0.886719 0 L 959.113281 0 L 959.113281 539 L 0.886719 539 Z M 0.886719 0 " fill-opacity="1" fill-rule="nonzero"/></g><g clip-path="url(#e02a9fcdc0)"><path fill="#4a7ebf" d="M 407.046875 143.878906 C 436.132812 143.878906 459.714844 167.453125 459.714844 196.535156 C 459.714844 225.117188 436.929688 248.363281 408.53125 249.152344 C 408.53125 251.570312 408.636719 256.140625 410.007812 258.898438 C 411.90625 262.726562 423.296875 269.847656 434.464844 269.847656 L 438.476562 269.847656 C 441 251.898438 456.414062 238.082031 475.066406 238.082031 C 493.644531 238.082031 509.015625 251.785156 511.628906 269.632812 L 532.390625 269.632812 C 535.003906 251.785156 550.375 238.082031 568.949219 238.082031 C 589.363281 238.082031 605.910156 254.625 605.910156 275.03125 C 605.910156 295.441406 589.363281 311.980469 568.949219 311.980469 C 550.375 311.980469 535.003906 298.277344 532.390625 280.433594 L 511.628906 280.433594 C 509.015625 298.277344 493.644531 311.980469 475.066406 311.980469 C 456.527344 311.980469 441.175781 298.332031 438.515625 280.535156 L 434.082031 280.667969 C 426.777344 280.609375 419.058594 278.660156 412.859375 274.449219 C 411.167969 273.300781 409.503906 272.09375 407.769531 270.949219 L 407.769531 273.347656 C 407.757812 274.125 407.617188 285.785156 407.605469 298.730469 L 407.605469 301.472656 C 407.613281 309.964844 407.679688 318.710938 407.878906 325.09375 C 408.316406 339.089844 419.703125 350.390625 432.269531 353.035156 C 433.902344 353.378906 436.710938 353.421875 438.480469 353.265625 C 441.003906 335.320312 456.421875 321.511719 475.066406 321.511719 C 495.480469 321.511719 512.027344 338.054688 512.027344 358.460938 C 512.027344 378.871094 495.480469 395.414062 475.066406 395.414062 C 456.625 395.414062 441.34375 381.90625 438.5625 364.253906 L 435.363281 364.253906 C 411.355469 362.941406 396.429688 340.921875 396.6875 323.0625 C 397.015625 300.582031 396.769531 278.09375 396.765625 255.613281 L 396.765625 248.179688 C 372.601562 243.398438 354.378906 222.097656 354.378906 196.535156 C 354.378906 167.453125 377.957031 143.878906 407.046875 143.878906 Z M 475.066406 332.3125 C 460.621094 332.3125 448.910156 344.019531 448.910156 358.460938 C 448.910156 372.90625 460.621094 384.613281 475.066406 384.613281 C 489.511719 384.613281 501.222656 372.90625 501.222656 358.460938 C 501.222656 344.019531 489.511719 332.3125 475.066406 332.3125 Z M 475.066406 248.882812 C 460.621094 248.882812 448.910156 260.589844 448.910156 275.03125 C 448.910156 289.472656 460.621094 301.179688 475.066406 301.179688 C 489.511719 301.179688 501.222656 289.472656 501.222656 275.03125 C 501.222656 260.589844 489.511719 248.882812 475.066406 248.882812 Z M 568.949219 248.882812 C 554.503906 248.882812 542.796875 260.589844 542.796875 275.03125 C 542.796875 289.472656 554.503906 301.179688 568.949219 301.179688 C 583.398438 301.179688 595.109375 289.472656 595.109375 275.03125 C 595.109375 260.589844 583.398438 248.882812 568.953125 248.882812 Z M 583.847656 264.023438 C 584.832031 265.003906 585.402344 266.332031 585.433594 267.726562 C 585.464844 269.117188 584.957031 270.46875 584.015625 271.496094 L 583.855469 271.660156 L 567.832031 287.71875 C 566.851562 288.699219 565.535156 289.269531 564.148438 289.304688 C 562.761719 289.339844 561.417969 288.84375 560.386719 287.914062 L 560.21875 287.753906 L 552.375 280.03125 C 551.867188 279.535156 551.464844 278.941406 551.1875 278.289062 C 550.914062 277.636719 550.765625 276.933594 550.761719 276.226562 C 550.757812 275.515625 550.890625 274.8125 551.15625 274.15625 C 551.421875 273.496094 551.816406 272.898438 552.316406 272.394531 C 553.292969 271.402344 554.617188 270.824219 556.007812 270.785156 C 557.398438 270.746094 558.753906 271.242188 559.789062 272.179688 L 559.953125 272.335938 L 563.972656 276.292969 L 576.207031 264.03125 C 577.21875 263.019531 578.59375 262.449219 580.027344 262.445312 C 581.457031 262.445312 582.832031 263.011719 583.847656 264.023438 Z M 489.53125 263.941406 C 490.519531 264.925781 491.085938 266.253906 491.117188 267.644531 C 491.148438 269.039062 490.640625 270.390625 489.699219 271.417969 L 489.542969 271.582031 L 473.515625 287.640625 C 472.539062 288.621094 471.21875 289.1875 469.832031 289.226562 C 468.449219 289.261719 467.101562 288.761719 466.074219 287.835938 L 465.902344 287.675781 L 458.058594 279.953125 C 457.0625 278.957031 456.496094 277.617188 456.476562 276.210938 C 456.453125 274.804688 456.984375 273.445312 457.949219 272.421875 C 458.914062 271.398438 460.242188 270.792969 461.644531 270.734375 C 463.050781 270.671875 464.421875 271.164062 465.472656 272.097656 L 465.636719 272.257812 L 469.660156 276.214844 L 481.894531 263.953125 C 482.90625 262.9375 484.277344 262.367188 485.710938 262.367188 C 487.144531 262.363281 488.519531 262.929688 489.53125 263.941406 Z M 407.046875 154.679688 C 383.925781 154.679688 365.183594 173.417969 365.183594 196.535156 C 365.183594 219.648438 383.925781 238.390625 407.046875 238.390625 C 430.167969 238.390625 448.910156 219.648438 448.910156 196.535156 C 448.910156 173.417969 430.167969 154.679688 407.046875 154.679688 Z M 402.691406 171.519531 C 411.496094 176.808594 420.183594 182.28125 428.757812 187.9375 C 435.9375 192.671875 435.921875 201.265625 428.660156 206.011719 C 419.941406 211.714844 411.078125 217.191406 402.074219 222.429688 C 394.746094 226.695312 386.546875 221.792969 386.351562 213.25 C 386.222656 207.746094 386.328125 202.234375 386.320312 196.726562 C 386.3125 191.367188 386.207031 186.007812 386.335938 180.648438 C 386.554688 171.5625 394.921875 166.828125 402.691406 171.519531 Z M 396.882812 180.234375 L 396.882812 198.640625 C 396.882812 202.796875 396.882812 206.890625 396.890625 210.980469 C 396.894531 212.90625 397.898438 212.828125 399.195312 212.023438 C 406.667969 207.394531 414.144531 202.765625 421.621094 198.144531 C 422.859375 197.382812 422.894531 196.585938 421.683594 195.820312 C 413.671875 190.769531 405.648438 185.738281 396.882812 180.234375 Z M 396.882812 180.234375 " fill-opacity="1" fill-rule="nonzero"/></g><g clip-path="url(#2935ba10a3)"><path fill="#85b3df" d="M 485.28125 363.855469 C 485.988281 363.855469 486.691406 363.714844 487.347656 363.441406 C 488.003906 363.171875 488.597656 362.773438 489.101562 362.269531 C 489.601562 361.769531 490 361.175781 490.273438 360.519531 C 490.542969 359.863281 490.683594 359.160156 490.683594 358.453125 C 490.683594 357.742188 490.542969 357.039062 490.273438 356.386719 C 490 355.730469 489.601562 355.132812 489.101562 354.628906 C 488.601562 354.128906 488.003906 353.730469 487.347656 353.460938 C 486.695312 353.1875 485.992188 353.050781 485.28125 353.050781 C 483.847656 353.050781 482.476562 353.617188 481.460938 354.628906 C 480.449219 355.644531 479.878906 357.019531 479.878906 358.449219 C 479.878906 359.882812 480.449219 361.257812 481.460938 362.269531 C 482.476562 363.285156 483.847656 363.851562 485.28125 363.851562 M 464.601562 363.855469 C 466.03125 363.855469 467.40625 363.285156 468.417969 362.269531 C 469.433594 361.257812 470.003906 359.882812 470.003906 358.453125 C 470.003906 357.019531 469.433594 355.644531 468.417969 354.628906 C 467.40625 353.617188 466.03125 353.050781 464.601562 353.050781 C 463.167969 353.050781 461.792969 353.617188 460.78125 354.628906 C 459.765625 355.644531 459.199219 357.019531 459.199219 358.449219 C 459.199219 359.882812 459.765625 361.257812 460.78125 362.269531 C 461.792969 363.285156 463.167969 363.851562 464.601562 363.851562 M 568.953125 384.613281 C 554.507812 384.613281 542.796875 372.90625 542.796875 358.460938 C 542.796875 344.019531 554.507812 332.3125 568.953125 332.3125 C 583.398438 332.3125 595.109375 344.019531 595.109375 358.460938 C 595.109375 372.90625 583.398438 384.613281 568.953125 384.613281 Z M 568.953125 321.511719 C 550.375 321.511719 535.003906 335.214844 532.390625 353.0625 L 526.34375 353.0625 C 523.707031 353.0625 521.566406 355.480469 521.566406 358.460938 C 521.566406 361.445312 523.707031 363.863281 526.34375 363.863281 L 532.390625 363.863281 C 535.003906 381.707031 550.375 395.414062 568.949219 395.414062 C 589.367188 395.414062 605.910156 378.867188 605.910156 358.460938 C 605.910156 338.054688 589.363281 321.511719 568.953125 321.511719 " fill-opacity="1" fill-rule="nonzero"/></g></svg>