<svg xmlns="http://www.w3.org/2000/svg" xmlns:xlink="http://www.w3.org/1999/xlink" width="1280" zoomAndPan="magnify" viewBox="0 0 960 540.000001" height="720" preserveAspectRatio="xMidYMid meet" version="1.0"><defs><clipPath id="1f290a3d42"><path d="M 0.886719 0 L 959.113281 0 L 959.113281 539 L 0.886719 539 Z M 0.886719 0 " clip-rule="nonzero"/></clipPath></defs><g clip-path="url(#1f290a3d42)"><path fill="#ffffff" d="M 0.886719 0 L 959.113281 0 L 959.113281 539 L 0.886719 539 Z M 0.886719 0 " fill-opacity="1" fill-rule="nonzero"/><path fill="#000000" d="M 0.886719 0 L 959.113281 0 L 959.113281 539 L 0.886719 539 Z M 0.886719 0 " fill-opacity="1" fill-rule="nonzero"/></g><path fill="#146fbf" d="M 342.824219 379.574219 L 566.707031 379.574219 C 573.679688 379.574219 580.644531 373.914062 582.242188 366.929688 L 627.175781 171.714844 C 628.785156 164.730469 624.425781 159.074219 617.449219 159.074219 L 393.566406 159.074219 C 386.59375 159.074219 379.628906 164.730469 378.03125 171.714844 L 333.097656 366.929688 C 331.488281 373.914062 335.847656 379.574219 342.824219 379.574219 Z M 534.773438 326.960938 C 541.050781 326.960938 546.132812 332.007812 546.171875 338.230469 C 546.132812 344.464844 541.050781 349.5 534.773438 349.5 C 534.75 349.5 534.726562 349.5 534.699219 349.5 L 480.257812 349.5 C 473.921875 349.5 468.789062 344.453125 468.789062 338.230469 C 468.824219 331.992188 473.910156 326.960938 480.1875 326.960938 C 480.210938 326.960938 480.234375 326.960938 480.257812 326.960938 L 534.699219 326.960938 C 534.726562 326.960938 534.75 326.960938 534.773438 326.960938 Z M 391.835938 330.707031 L 482.960938 265.070312 L 482.960938 263.722656 L 425.707031 203.148438 C 421.039062 198.210938 421.519531 190.222656 426.789062 185.300781 C 432.054688 180.375 440.125 180.398438 444.792969 185.347656 L 513.492188 258.039062 C 517.386719 262.167969 517.679688 268.402344 514.597656 273.21875 C 513.664062 275.105469 511.722656 277.164062 508.285156 279.574219 L 407.222656 351.753906 C 401.710938 355.746094 393.789062 354.265625 389.539062 348.457031 C 385.289062 342.640625 386.308594 334.703125 391.835938 330.707031 Z M 391.835938 330.707031 " fill-opacity="1" fill-rule="nonzero"/></svg>