<svg xmlns="http://www.w3.org/2000/svg" xmlns:xlink="http://www.w3.org/1999/xlink" width="1280" zoomAndPan="magnify" viewBox="0 0 960 540.000001" height="720" preserveAspectRatio="xMidYMid meet" version="1.0"><defs><clipPath id="6f176c7d4c"><path d="M 0.886719 0 L 959.113281 0 L 959.113281 539 L 0.886719 539 Z M 0.886719 0 " clip-rule="nonzero"/></clipPath><clipPath id="45389335ef"><path d="M 305.121094 140 L 654.726562 140 L 654.726562 404 L 305.121094 404 Z M 305.121094 140 " clip-rule="nonzero"/></clipPath></defs><g clip-path="url(#6f176c7d4c)"><path fill="#ffffff" d="M 0.886719 0 L 959.113281 0 L 959.113281 546.488281 L 0.886719 546.488281 Z M 0.886719 0 " fill-opacity="1" fill-rule="nonzero"/><path fill="#ffffff" d="M 0.886719 0 L 959.113281 0 L 959.113281 539 L 0.886719 539 Z M 0.886719 0 " fill-opacity="1" fill-rule="nonzero"/><path fill="#ffffff" d="M 0.886719 0 L 959.113281 0 L 959.113281 539 L 0.886719 539 Z M 0.886719 0 " fill-opacity="1" fill-rule="nonzero"/></g><path fill="#146fbf" d="M 327.191406 395.09375 L 576.222656 395.09375 C 583.980469 395.09375 591.726562 388.78125 593.5 380.992188 L 643.484375 163.246094 C 645.273438 155.453125 640.429688 149.144531 632.667969 149.144531 L 383.625 149.144531 C 375.867188 149.144531 368.121094 155.453125 366.34375 163.246094 L 316.363281 380.992188 C 314.585938 388.78125 319.433594 395.09375 327.191406 395.09375 Z M 327.191406 395.09375 " fill-opacity="1" fill-rule="nonzero"/><g clip-path="url(#45389335ef)"><path fill="#000000" d="M 575.921875 403.609375 L 327.648438 403.609375 C 320.726562 403.609375 314.429688 400.679688 310.394531 395.589844 C 306.300781 390.445312 304.878906 383.535156 306.488281 376.683594 L 356.3125 162.734375 C 359.183594 150.351562 371.304688 140.628906 383.925781 140.628906 L 632.199219 140.628906 C 639.121094 140.628906 645.417969 143.554688 649.453125 148.644531 C 653.546875 153.792969 654.964844 160.699219 653.359375 167.550781 L 603.519531 381.503906 C 600.664062 393.886719 588.542969 403.609375 575.921875 403.609375 Z M 383.925781 161.949219 C 381.125 161.949219 377.742188 164.722656 377.089844 167.550781 L 327.234375 381.503906 L 327.648438 382.285156 L 575.921875 382.285156 C 578.722656 382.285156 582.105469 379.515625 582.757812 376.683594 L 632.597656 162.71875 Z M 383.925781 161.949219 " fill-opacity="1" fill-rule="nonzero"/></g><path fill="#000000" d="M 540.324219 364.515625 L 476.371094 364.515625 C 470.488281 364.515625 465.710938 359.742188 465.710938 353.855469 C 465.710938 347.96875 470.488281 343.195312 476.371094 343.195312 L 540.238281 343.195312 C 546.121094 343.195312 550.9375 347.96875 550.9375 353.855469 C 550.9375 359.742188 546.207031 364.515625 540.324219 364.515625 Z M 540.324219 364.515625 " fill-opacity="1" fill-rule="nonzero"/><path fill="#000000" d="M 376.890625 371.625 C 373.59375 371.625 370.351562 370.101562 368.265625 367.21875 C 364.8125 362.457031 365.863281 355.789062 370.625 352.335938 L 482.652344 270.925781 L 414.011719 197.671875 C 409.988281 193.378906 410.203125 186.640625 414.507812 182.605469 C 418.8125 178.566406 425.535156 178.796875 429.574219 183.089844 L 505.476562 264.101562 C 507.324219 266.078125 508.347656 268.691406 508.347656 271.394531 L 508.347656 273.199219 C 508.347656 276.609375 506.710938 279.824219 503.957031 281.8125 L 383.15625 369.578125 C 381.265625 370.957031 379.066406 371.625 376.890625 371.625 Z M 376.890625 371.625 " fill-opacity="1" fill-rule="nonzero"/></svg>