<svg xmlns="http://www.w3.org/2000/svg" xmlns:xlink="http://www.w3.org/1999/xlink" width="1280" zoomAndPan="magnify" viewBox="0 0 960 540.000001" height="720" preserveAspectRatio="xMidYMid meet" version="1.0"><defs><clipPath id="4e5f143052"><path d="M 0.886719 0 L 959.113281 0 L 959.113281 539 L 0.886719 539 Z M 0.886719 0 " clip-rule="nonzero"/></clipPath></defs><g clip-path="url(#4e5f143052)"><path fill="#ffffff" d="M 0.886719 0 L 959.113281 0 L 959.113281 539 L 0.886719 539 Z M 0.886719 0 " fill-opacity="1" fill-rule="nonzero"/><path fill="#000000" d="M 0.886719 0 L 959.113281 0 L 959.113281 539 L 0.886719 539 Z M 0.886719 0 " fill-opacity="1" fill-rule="nonzero"/></g><path fill="#000000" d="M 545.164062 220.09375 L 545.171875 220.09375 L 545.171875 220.054688 Z M 545.164062 220.09375 " fill-opacity="1" fill-rule="nonzero"/><path fill="#f2bb30" d="M 571.167969 329.574219 C 588.71875 329.574219 595.210938 317.332031 601.308594 298.976562 C 607.632812 280.078125 607.355469 261.890625 601.308594 237.679688 C 596.957031 220.242188 588.730469 207.082031 571.167969 207.082031 L 548.546875 207.082031 L 548.546875 233.855469 C 548.546875 254.621094 530.929688 272.121094 510.847656 272.121094 L 450.558594 272.121094 C 434.070312 272.121094 420.417969 286.230469 420.417969 302.769531 L 420.417969 360.234375 C 420.417969 376.597656 434.640625 386.195312 450.558594 390.882812 C 469.628906 396.46875 487.984375 397.480469 510.835938 390.882812 C 526.019531 386.480469 540.980469 377.609375 540.980469 360.234375 L 540.980469 337.257812 L 480.746094 337.257812 L 480.746094 329.585938 L 571.167969 329.585938 Z M 514.617188 352.554688 C 520.878906 352.554688 525.964844 357.695312 525.964844 364.015625 C 525.964844 370.402344 520.886719 375.535156 514.621094 375.535156 C 508.402344 375.535156 503.273438 370.339844 503.273438 364.015625 C 503.335938 357.632812 508.425781 352.554688 514.617188 352.554688 Z M 514.617188 352.554688 " fill-opacity="1" fill-rule="nonzero"/><path fill="#35668f" d="M 389.367188 329.585938 L 410.082031 329.585938 L 410.082031 302.035156 C 410.082031 282.109375 427.296875 264.546875 447.777344 264.546875 L 508.054688 264.546875 C 524.816406 264.546875 538.199219 250.722656 538.199219 233.898438 L 538.199219 176.390625 C 538.199219 160.027344 524.429688 147.765625 508.054688 145.015625 C 487.847656 141.675781 465.890625 141.863281 447.777344 145.078125 L 447.789062 145.066406 C 422.269531 149.578125 417.65625 158.996094 417.65625 176.433594 L 417.65625 199.414062 L 477.996094 199.414062 L 477.996094 207.09375 L 395.015625 207.09375 C 377.460938 207.09375 362.097656 217.652344 357.316406 237.691406 C 351.785156 260.667969 351.5625 275 357.316406 298.988281 C 361.59375 316.828125 371.824219 329.585938 389.367188 329.585938 Z M 444.007812 184.0625 C 437.75 184.0625 432.660156 178.921875 432.660156 172.597656 C 432.734375 166.214844 437.75 161.082031 444.007812 161.082031 C 450.222656 161.082031 455.355469 166.265625 455.355469 172.597656 C 455.355469 178.929688 450.277344 184.0625 444.007812 184.0625 Z M 444.007812 184.0625 " fill-opacity="1" fill-rule="nonzero"/></svg>