<svg xmlns="http://www.w3.org/2000/svg" xmlns:xlink="http://www.w3.org/1999/xlink" width="1280" zoomAndPan="magnify" viewBox="0 0 960 540.000001" height="720" preserveAspectRatio="xMidYMid meet" version="1.0"><defs><clipPath id="e436096a63"><path d="M 0.886719 0 L 959.113281 0 L 959.113281 539 L 0.886719 539 Z M 0.886719 0 " clip-rule="nonzero"/></clipPath><clipPath id="709b9621c8"><path d="M 372.632812 184 L 391 184 L 391 354 L 372.632812 354 Z M 372.632812 184 " clip-rule="nonzero"/></clipPath><clipPath id="fc9e473a3b"><path d="M 440 139.949219 L 481 139.949219 L 481 215 L 440 215 Z M 440 139.949219 " clip-rule="nonzero"/></clipPath><clipPath id="0ce6aa7b3d"><path d="M 480 139.949219 L 520 139.949219 L 520 215 L 480 215 Z M 480 139.949219 " clip-rule="nonzero"/></clipPath><clipPath id="72d8101c5b"><path d="M 440 323 L 481 323 L 481 398.96875 L 440 398.96875 Z M 440 323 " clip-rule="nonzero"/></clipPath><clipPath id="44f7fa68b4"><path d="M 480 323 L 520 323 L 520 398.96875 L 480 398.96875 Z M 480 323 " clip-rule="nonzero"/></clipPath><clipPath id="41b3f1fc4b"><path d="M 570 184 L 587.488281 184 L 587.488281 354 L 570 354 Z M 570 184 " clip-rule="nonzero"/></clipPath></defs><g clip-path="url(#e436096a63)"><path fill="#ffffff" d="M 0.886719 0 L 959.113281 0 L 959.113281 546.488281 L 0.886719 546.488281 Z M 0.886719 0 " fill-opacity="1" fill-rule="nonzero"/><path fill="#ffffff" d="M 0.886719 0 L 959.113281 0 L 959.113281 539 L 0.886719 539 Z M 0.886719 0 " fill-opacity="1" fill-rule="nonzero"/><path fill="#ffffff" d="M 0.886719 0 L 959.113281 0 L 959.113281 539 L 0.886719 539 Z M 0.886719 0 " fill-opacity="1" fill-rule="nonzero"/></g><g clip-path="url(#709b9621c8)"><path fill="#8c3123" d="M 390.089844 184.894531 L 372.808594 193.527344 L 372.808594 345.074219 L 390.089844 353.65625 L 390.195312 353.527344 L 390.195312 185.015625 L 390.089844 184.894531 " fill-opacity="1" fill-rule="nonzero"/></g><path fill="#e05243" d="M 482.574219 331.660156 L 390.085938 353.65625 L 390.089844 184.898438 L 482.578125 206.410156 L 482.578125 331.660156 " fill-opacity="1" fill-rule="nonzero"/><path fill="#8c3123" d="M 440.828125 297.230469 L 480.0625 302.21875 L 480.304688 301.648438 L 480.523438 237.378906 L 480.0625 236.878906 L 440.828125 241.792969 L 440.828125 297.230469 " fill-opacity="1" fill-rule="nonzero"/><path fill="#8c3123" d="M 480.0625 331.914062 L 570.027344 353.703125 L 570.167969 353.480469 L 570.160156 185.046875 L 570.015625 184.894531 L 480.0625 206.65625 L 480.0625 331.914062 " fill-opacity="1" fill-rule="nonzero"/><path fill="#e05243" d="M 519.300781 297.230469 L 480.0625 302.21875 L 480.0625 236.878906 L 519.300781 241.792969 L 519.300781 297.230469 " fill-opacity="1" fill-rule="nonzero"/><path fill="#5e1f18" d="M 519.300781 214.988281 L 480.0625 222.132812 L 440.828125 214.988281 L 480.011719 204.726562 L 519.300781 214.988281 " fill-opacity="1" fill-rule="nonzero"/><path fill="#f2b0a9" d="M 519.300781 323.960938 L 480.0625 316.769531 L 440.828125 323.960938 L 480.011719 334.886719 L 519.300781 323.960938 " fill-opacity="1" fill-rule="nonzero"/><g clip-path="url(#fc9e473a3b)"><path fill="#8c3123" d="M 440.828125 214.988281 L 480.0625 205.285156 L 480.378906 205.1875 L 480.378906 140.210938 L 480.0625 139.949219 L 440.828125 159.550781 L 440.828125 214.988281 " fill-opacity="1" fill-rule="nonzero"/></g><g clip-path="url(#0ce6aa7b3d)"><path fill="#e05243" d="M 519.300781 214.988281 L 480.0625 205.285156 L 480.0625 139.949219 L 519.300781 159.550781 L 519.300781 214.988281 " fill-opacity="1" fill-rule="nonzero"/></g><g clip-path="url(#72d8101c5b)"><path fill="#8c3123" d="M 480.0625 398.996094 L 440.824219 379.398438 L 440.824219 323.96875 L 480.0625 333.664062 L 480.628906 334.316406 L 480.480469 397.867188 L 480.0625 398.996094 " fill-opacity="1" fill-rule="nonzero"/></g><g clip-path="url(#44f7fa68b4)"><path fill="#e05243" d="M 480.0625 398.996094 L 519.292969 379.398438 L 519.292969 323.96875 L 480.0625 333.664062 L 480.0625 398.996094 " fill-opacity="1" fill-rule="nonzero"/></g><g clip-path="url(#41b3f1fc4b)"><path fill="#e05243" d="M 570.027344 184.894531 L 587.3125 193.527344 L 587.3125 345.074219 L 570.027344 353.703125 L 570.027344 184.898438 " fill-opacity="1" fill-rule="nonzero"/></g></svg>