<svg xmlns="http://www.w3.org/2000/svg" xmlns:xlink="http://www.w3.org/1999/xlink" width="1280" zoomAndPan="magnify" viewBox="0 0 960 540.000001" height="720" preserveAspectRatio="xMidYMid meet" version="1.0"><defs><clipPath id="a6eb9810d3"><path d="M 0.886719 0 L 959.113281 0 L 959.113281 539 L 0.886719 539 Z M 0.886719 0 " clip-rule="nonzero"/></clipPath><clipPath id="ce94698d2b"><path d="M 375.246094 187 L 393 187 L 393 352 L 375.246094 352 Z M 375.246094 187 " clip-rule="nonzero"/></clipPath><clipPath id="e42ea55dc2"><path d="M 441 143.101562 L 481 143.101562 L 481 217 L 441 217 Z M 441 143.101562 " clip-rule="nonzero"/></clipPath><clipPath id="29f99f6c31"><path d="M 480 143.101562 L 519 143.101562 L 519 217 L 480 217 Z M 480 143.101562 " clip-rule="nonzero"/></clipPath><clipPath id="0ffd3b6710"><path d="M 441 322 L 481 322 L 481 396.132812 L 441 396.132812 Z M 441 322 " clip-rule="nonzero"/></clipPath><clipPath id="957d48a95b"><path d="M 480 322 L 519 322 L 519 396.132812 L 480 396.132812 Z M 480 322 " clip-rule="nonzero"/></clipPath><clipPath id="f66ffe1c4f"><path d="M 567 187 L 584.855469 187 L 584.855469 352 L 567 352 Z M 567 187 " clip-rule="nonzero"/></clipPath></defs><g clip-path="url(#a6eb9810d3)"><path fill="#ffffff" d="M 0.886719 0 L 959.113281 0 L 959.113281 539 L 0.886719 539 Z M 0.886719 0 " fill-opacity="1" fill-rule="nonzero"/><path fill="#000000" d="M 0.886719 0 L 959.113281 0 L 959.113281 539 L 0.886719 539 Z M 0.886719 0 " fill-opacity="1" fill-rule="nonzero"/></g><g clip-path="url(#ce94698d2b)"><path fill="#8c3123" d="M 392.273438 187.003906 L 375.414062 195.441406 L 375.414062 343.480469 L 392.273438 351.863281 L 392.375 351.742188 L 392.375 187.121094 L 392.273438 187.003906 " fill-opacity="1" fill-rule="nonzero"/></g><path fill="#e05243" d="M 482.503906 330.378906 L 392.269531 351.863281 L 392.273438 187.007812 L 482.507812 208.023438 L 482.507812 330.375 " fill-opacity="1" fill-rule="nonzero"/><path fill="#8c3123" d="M 441.777344 296.742188 L 480.050781 301.617188 L 480.289062 301.0625 L 480.5 238.277344 L 480.050781 237.785156 L 441.777344 242.585938 L 441.777344 296.742188 " fill-opacity="1" fill-rule="nonzero"/><path fill="#8c3123" d="M 480.050781 330.625 L 567.824219 351.914062 L 567.960938 351.691406 L 567.953125 187.15625 L 567.816406 187.003906 L 480.050781 208.265625 L 480.050781 330.625 " fill-opacity="1" fill-rule="nonzero"/><path fill="#e05243" d="M 518.332031 296.742188 L 480.050781 301.617188 L 480.050781 237.785156 L 518.332031 242.585938 L 518.332031 296.742188 " fill-opacity="1" fill-rule="nonzero"/><path fill="#5e1f18" d="M 518.332031 216.402344 L 480.050781 223.382812 L 441.777344 216.402344 L 480.003906 206.378906 L 518.332031 216.402344 " fill-opacity="1" fill-rule="nonzero"/><path fill="#f2b0a9" d="M 518.332031 322.855469 L 480.050781 315.832031 L 441.777344 322.855469 L 480.003906 333.527344 L 518.332031 322.855469 " fill-opacity="1" fill-rule="nonzero"/><g clip-path="url(#e42ea55dc2)"><path fill="#8c3123" d="M 441.777344 216.402344 L 480.050781 206.925781 L 480.363281 206.832031 L 480.363281 143.355469 L 480.050781 143.101562 L 441.777344 162.246094 L 441.777344 216.402344 " fill-opacity="1" fill-rule="nonzero"/></g><g clip-path="url(#29f99f6c31)"><path fill="#e05243" d="M 518.332031 216.402344 L 480.050781 206.925781 L 480.050781 143.101562 L 518.332031 162.246094 L 518.332031 216.402344 " fill-opacity="1" fill-rule="nonzero"/></g><g clip-path="url(#0ffd3b6710)"><path fill="#8c3123" d="M 480.050781 396.15625 L 441.773438 377.011719 L 441.773438 322.863281 L 480.050781 332.332031 L 480.605469 332.972656 L 480.460938 395.050781 L 480.050781 396.15625 " fill-opacity="1" fill-rule="nonzero"/></g><g clip-path="url(#957d48a95b)"><path fill="#e05243" d="M 480.050781 396.15625 L 518.324219 377.011719 L 518.324219 322.863281 L 480.050781 332.332031 L 480.050781 396.15625 " fill-opacity="1" fill-rule="nonzero"/></g><g clip-path="url(#f66ffe1c4f)"><path fill="#e05243" d="M 567.824219 187.003906 L 584.6875 195.441406 L 584.6875 343.480469 L 567.824219 351.914062 L 567.824219 187.007812 " fill-opacity="1" fill-rule="nonzero"/></g></svg>